{"glyphs":{"0":{"ha":606,"x_min":14,"x_max":592,"o":"m 303 867 q 432 833 378 867 q 522 740 486 799 q 574 603 557 682 q 592 435 592 525 q 574 267 592 346 q 522 128 557 188 q 432 35 486 69 q 303 1 378 1 q 174 35 228 1 q 84 128 119 69 q 31 267 49 188 q 14 435 14 346 q 31 603 14 525 q 84 740 49 682 q 174 833 119 799 q 303 867 228 867 m 97 435 q 109 271 97 347 q 146 138 121 194 q 210 48 171 81 q 303 15 249 15 q 396 48 357 15 q 460 138 435 81 q 497 271 485 194 q 508 435 508 347 q 497 597 508 521 q 460 731 485 674 q 396 820 435 788 q 303 853 357 853 q 210 820 249 853 q 146 731 171 788 q 109 597 121 674 q 97 435 97 521 z "},"1":{"ha":303,"x_min":14,"x_max":289,"o":"m 14 676 l 181 853 l 207 853 l 207 57 q 226 17 207 28 q 289 6 246 6 l 289 1 l 40 1 l 40 6 q 104 17 85 6 q 124 57 124 28 l 124 679 q 117 716 124 706 q 99 726 110 726 q 74 718 88 726 q 49 699 60 710 q 21 671 35 686 l 14 676 z "},"2":{"ha":521,"x_min":14,"x_max":507,"o":"m 417 693 q 376 814 417 775 q 279 853 336 853 q 190 818 225 853 q 135 740 154 783 q 99 628 111 690 l 60 738 q 115 803 82 774 q 185 847 143 826 q 285 867 228 867 q 368 856 328 867 q 439 821 408 844 q 488 760 469 797 q 507 671 507 724 q 484 570 507 617 q 423 479 461 524 q 338 390 385 435 q 242 297 290 346 q 148 193 193 249 q 71 71 103 138 l 278 71 q 373 85 336 71 q 432 124 410 100 q 467 178 454 147 q 489 240 479 208 l 500 236 l 444 1 l 14 1 q 77 134 38 71 q 161 256 117 197 q 251 370 206 315 q 334 479 297 425 q 394 586 371 533 q 417 693 417 639 z "},"3":{"ha":561,"x_min":14,"x_max":547,"o":"m 94 239 q 108 149 94 192 q 147 73 122 106 q 206 21 171 40 q 282 1 240 1 q 411 55 358 1 q 464 213 464 108 q 444 320 464 275 q 389 394 424 365 q 308 438 354 424 q 208 451 261 451 l 208 474 q 296 495 254 478 q 369 542 338 513 q 418 612 400 571 q 436 704 436 653 q 401 817 436 781 q 300 853 365 853 q 242 837 271 853 q 191 792 214 821 q 154 725 168 764 q 140 639 140 686 l 81 715 q 180 828 117 790 q 314 867 243 867 q 393 858 356 867 q 458 828 431 849 q 503 778 486 808 q 519 704 519 747 q 499 624 519 661 q 447 556 479 586 q 374 502 415 525 q 290 467 332 479 q 381 444 335 460 q 463 401 426 429 q 524 331 500 372 q 547 231 547 289 q 524 123 547 168 q 463 47 501 78 q 374 2 425 17 q 268 -12 324 -12 q 115 31 185 -12 q 14 156 46 74 l 94 239 z "},"4":{"ha":563,"x_min":14,"x_max":549,"o":"m 407 853 l 444 853 l 444 326 l 451 326 q 488 328 474 326 q 510 337 501 331 q 526 353 519 343 q 539 381 532 364 l 549 376 l 521 257 l 444 257 l 444 57 q 465 17 444 28 q 528 6 485 6 l 528 1 l 279 1 l 279 6 q 342 17 322 6 q 361 57 361 28 l 361 257 l 14 257 l 407 853 m 361 326 l 361 760 l 76 326 l 361 326 z "},"5":{"ha":561,"x_min":14,"x_max":547,"o":"m 14 156 l 94 239 q 106 149 94 192 q 140 73 118 106 q 195 21 163 40 q 269 1 228 1 q 342 18 307 1 q 405 68 378 35 q 448 150 432 101 q 464 263 464 199 q 447 372 464 326 q 399 448 429 418 q 330 492 369 478 q 246 507 290 507 q 179 496 210 507 q 125 472 149 485 q 76 436 99 456 l 63 439 l 128 853 l 499 853 l 485 778 l 131 778 l 79 456 q 113 485 92 468 q 163 517 135 501 q 225 543 190 532 q 297 554 260 554 q 399 533 353 554 q 478 475 444 513 q 529 387 511 438 q 547 278 547 336 q 524 151 547 206 q 463 60 501 96 q 373 6 424 24 q 267 -12 322 -12 q 111 31 176 -12 q 14 156 46 74 z "},"6":{"ha":582,"x_min":14,"x_max":568,"o":"m 14 401 q 28 566 14 483 q 76 715 42 649 q 170 824 111 782 q 319 867 229 867 q 410 847 372 867 q 471 803 447 826 q 517 738 499 774 l 478 628 q 442 740 465 690 q 388 818 422 783 q 297 853 353 853 q 214 828 250 853 q 154 747 178 803 q 118 605 131 692 q 104 393 106 518 q 139 454 118 422 q 188 514 160 486 q 253 560 217 542 q 333 578 289 578 q 435 556 392 578 q 508 498 479 535 q 553 411 538 461 q 568 303 568 361 q 549 181 568 239 q 493 81 529 124 q 406 13 457 38 q 292 -12 354 -12 q 167 20 219 -12 q 80 109 114 53 q 30 240 46 165 q 14 401 14 315 m 111 258 q 176 67 128 132 q 292 1 225 1 q 369 27 336 1 q 425 94 403 53 q 459 190 447 136 q 471 301 471 244 q 459 391 471 349 q 426 465 447 433 q 375 514 404 496 q 311 532 346 532 q 235 514 268 532 q 176 469 201 496 q 121 372 138 426 q 111 258 104 317 z "},"7":{"ha":532,"x_min":14,"x_max":518,"o":"m 69 853 l 518 853 l 476 783 l 475 783 q 411 663 449 738 q 337 492 374 589 q 269 280 300 396 q 225 33 239 164 q 208 1 222 14 q 174 -12 193 -12 q 134 7 150 -12 q 125 50 118 26 q 194 276 151 165 q 283 483 236 386 q 376 658 331 581 q 451 783 421 735 l 236 783 q 141 769 178 783 q 82 731 104 754 q 47 676 60 707 q 25 614 35 646 l 14 618 l 69 853 z "},"8":{"ha":542,"x_min":14,"x_max":528,"o":"m 14 229 q 65 384 14 321 q 207 465 115 447 q 90 535 138 483 q 42 663 42 588 q 60 746 42 708 q 111 810 79 783 q 184 852 143 838 q 271 867 225 867 q 358 852 317 867 q 431 810 399 838 q 481 746 463 783 q 500 663 500 708 q 452 535 500 588 q 335 465 404 483 q 477 384 426 447 q 528 229 528 321 q 510 133 528 178 q 460 56 493 89 q 378 6 426 24 q 271 -12 331 -12 q 163 6 211 -12 q 82 56 115 24 q 31 133 49 89 q 14 229 14 178 m 271 1 q 358 24 325 1 q 411 81 392 47 q 438 155 431 115 q 444 229 444 194 q 438 304 444 264 q 411 378 431 344 q 358 435 392 413 q 271 458 325 458 q 183 435 217 458 q 131 378 150 413 q 104 304 111 344 q 97 229 97 264 q 104 155 97 194 q 131 81 111 115 q 183 24 150 47 q 271 1 217 1 m 125 663 q 134 598 125 632 q 160 536 143 564 q 206 490 178 508 q 271 472 233 472 q 336 490 308 472 q 381 536 364 508 q 408 598 399 564 q 417 663 417 632 q 408 728 417 694 q 381 789 399 761 q 336 835 364 817 q 271 853 308 853 q 206 835 233 853 q 160 789 178 817 q 134 728 143 761 q 125 663 125 694 z "},"9":{"ha":582,"x_min":14,"x_max":568,"o":"m 14 553 q 33 675 14 618 q 89 774 53 732 q 176 842 125 817 q 290 867 228 867 q 415 834 363 867 q 502 745 468 801 q 552 614 536 689 q 568 453 568 539 q 554 289 568 372 q 506 139 540 206 q 412 30 471 72 q 263 -12 353 -12 q 172 8 210 -12 q 111 53 135 28 q 65 117 83 81 l 104 226 q 140 114 117 164 q 195 37 160 72 q 285 1 231 1 q 369 27 333 1 q 428 108 404 53 q 464 250 451 163 q 476 463 476 338 q 442 401 463 433 q 394 342 422 369 q 329 296 365 314 q 249 278 293 278 q 147 299 190 278 q 74 358 103 321 q 29 444 44 394 q 14 553 14 494 m 111 554 q 123 465 111 507 q 156 391 135 422 q 207 341 178 360 q 271 322 236 322 q 347 340 314 322 q 404 386 381 358 q 461 483 444 429 q 469 596 478 538 q 406 788 454 722 q 290 853 357 853 q 213 828 247 853 q 157 761 179 803 q 123 665 135 719 q 111 554 111 611 z "},"¬":{"ha":417,"x_min":0,"x_max":0,"o":""},"­":{"ha":417,"x_min":0,"x_max":0,"o":""},"¶":{"ha":417,"x_min":0,"x_max":0,"o":""},"ð":{"ha":417,"x_min":0,"x_max":0,"o":""},"Ĭ":{"ha":417,"x_min":0,"x_max":0,"o":""},"ĭ":{"ha":417,"x_min":0,"x_max":0,"o":""},"ĸ":{"ha":417,"x_min":0,"x_max":0,"o":""},"―":{"ha":417,"x_min":0,"x_max":0,"o":""},"‖":{"ha":417,"x_min":0,"x_max":0,"o":""},"‗":{"ha":417,"x_min":0,"x_max":0,"o":""},"‛":{"ha":417,"x_min":0,"x_max":0,"o":""},"‟":{"ha":417,"x_min":0,"x_max":0,"o":""},"\u0000":{"ha":0,"x_min":0,"x_max":0,"o":""},"\r":{"ha":417,"x_min":0,"x_max":0,"o":""}," ":{"ha":417,"x_min":0,"x_max":0,"o":""},"E":{"ha":582,"x_min":14,"x_max":568,"o":"m 14 853 l 497 853 l 540 674 l 529 669 q 507 732 519 701 q 472 786 494 763 q 413 824 450 810 q 318 839 376 839 l 181 839 l 181 553 l 340 553 q 381 572 369 553 q 392 635 392 592 l 401 635 l 401 456 l 392 456 q 381 519 392 499 q 340 539 369 539 l 181 539 l 181 15 l 346 15 q 441 30 404 15 q 500 68 478 44 q 535 122 522 92 q 557 185 547 153 l 568 181 l 525 1 l 14 1 l 14 6 q 78 16 58 6 q 97 56 97 26 l 97 799 q 78 839 97 828 q 14 850 58 850 l 14 853 z "},"F":{"ha":553,"x_min":14,"x_max":539,"o":"m 14 853 l 496 853 l 539 674 l 528 669 q 506 732 518 701 q 471 786 493 763 q 412 824 449 810 q 317 839 375 839 l 179 839 l 179 553 l 339 553 q 379 572 368 553 q 390 635 390 592 l 401 635 l 401 456 l 390 456 q 379 519 390 499 q 339 539 368 539 l 179 539 l 179 56 q 199 16 179 26 q 263 6 218 6 l 263 1 l 14 1 l 14 6 q 76 16 57 6 q 96 56 96 26 l 96 799 q 76 839 96 828 q 14 850 57 850 l 14 853 z "},"G":{"ha":840,"x_min":14,"x_max":826,"o":"m 14 428 q 44 604 14 524 q 129 743 75 685 q 259 834 183 801 q 425 867 335 867 q 518 856 479 867 q 583 833 557 846 q 625 813 608 821 q 651 808 642 804 q 659 821 658 811 q 658 842 660 831 q 653 871 657 854 l 663 875 l 731 674 l 717 668 q 656 757 693 718 q 571 818 624 790 q 439 846 518 846 q 304 817 367 846 q 196 733 242 788 q 124 601 150 679 q 97 428 97 524 q 124 254 97 332 q 196 122 150 176 q 304 38 242 67 q 439 8 367 8 q 571 35 517 8 q 661 96 625 63 l 661 385 q 657 411 661 400 q 638 431 653 422 q 593 443 622 439 q 515 447 564 447 l 515 451 l 826 451 l 826 447 q 764 436 783 447 q 744 397 744 425 l 744 1 l 733 1 q 713 53 726 40 q 681 67 699 67 q 641 54 663 67 q 590 27 619 42 q 519 0 560 13 q 425 -12 479 -12 q 259 20 335 -12 q 129 112 183 53 q 44 251 75 171 q 14 428 14 332 z "},"H":{"ha":713,"x_min":14,"x_max":699,"o":"m 14 1 l 14 6 q 78 16 58 6 q 97 56 97 26 l 97 799 q 78 839 97 828 q 14 850 58 850 l 14 853 l 263 853 l 263 850 q 200 839 219 850 q 181 799 181 828 l 181 497 l 533 497 l 533 799 q 514 839 533 828 q 450 850 494 850 l 450 853 l 699 853 l 699 850 q 636 839 656 850 q 617 799 617 828 l 617 56 q 636 16 617 26 q 699 6 656 6 l 699 1 l 450 1 l 450 6 q 514 16 494 6 q 533 56 533 26 l 533 483 l 181 483 l 181 56 q 200 16 181 26 q 263 6 219 6 l 263 1 l 14 1 z "},"I":{"ha":276,"x_min":14,"x_max":263,"o":"m 14 6 q 76 16 57 6 q 96 56 96 26 l 96 799 q 76 839 96 828 q 14 850 57 850 l 14 853 l 263 853 l 263 850 q 199 839 218 850 q 179 799 179 828 l 179 56 q 199 16 179 26 q 263 6 218 6 l 263 1 l 14 1 l 14 6 z "},"J":{"ha":479,"x_min":14,"x_max":465,"o":"m 76 222 q 117 208 101 222 q 133 171 132 194 q 128 137 135 150 q 112 114 121 124 q 94 96 103 104 q 83 78 86 88 q 88 50 79 64 q 111 25 96 36 q 147 8 126 14 q 190 1 168 1 q 272 37 243 1 q 300 156 300 72 l 300 788 q 273 833 300 817 q 168 850 246 850 l 168 853 l 465 853 l 465 850 q 403 839 422 850 q 383 799 383 828 l 383 197 q 369 118 383 156 q 330 51 356 81 q 269 5 304 22 q 190 -12 233 -12 q 116 1 149 -12 q 60 36 83 14 q 26 88 38 58 q 14 150 14 117 q 33 204 14 186 q 76 222 51 222 z "},"K":{"ha":681,"x_min":14,"x_max":681,"o":"m 263 853 l 263 850 q 200 839 219 850 q 181 799 181 828 l 181 494 l 457 799 q 474 839 483 828 q 421 850 464 850 l 421 853 l 608 853 l 608 850 q 537 839 569 850 q 478 799 504 828 l 301 606 l 572 56 q 612 16 588 26 q 681 6 636 6 l 681 1 l 415 1 l 415 6 q 472 16 456 6 q 472 56 488 26 l 238 533 l 181 471 l 181 56 q 200 16 181 26 q 263 6 219 6 l 263 1 l 14 1 l 14 6 q 77 16 57 6 q 97 56 97 26 l 97 799 q 77 839 97 828 q 14 850 57 850 l 14 853 l 263 853 z "},"L":{"ha":582,"x_min":14,"x_max":568,"o":"m 264 853 l 264 850 q 200 839 219 850 q 181 799 181 828 l 181 15 l 346 15 q 441 30 404 15 q 500 68 478 44 q 535 122 522 92 q 557 185 547 153 l 568 181 l 525 1 l 14 1 l 14 6 q 78 16 58 6 q 97 56 97 26 l 97 799 q 78 839 97 828 q 14 850 58 850 l 14 853 l 264 853 z "},"M":{"ha":817,"x_min":14,"x_max":803,"o":"m 97 56 l 97 799 q 77 839 97 828 q 14 850 57 850 l 14 853 l 169 853 l 414 300 l 658 853 l 803 853 l 803 850 q 740 839 760 850 q 721 799 721 828 l 721 56 q 740 16 721 26 q 803 6 760 6 l 803 1 l 554 1 l 554 6 q 617 16 597 6 q 638 56 638 26 l 638 767 l 372 169 l 111 767 l 111 56 q 131 16 111 26 q 193 6 150 6 l 193 1 l 14 1 l 14 6 q 77 16 57 6 q 97 56 97 26 z "},"N":{"ha":601,"x_min":14,"x_max":588,"o":"m 14 6 q 76 16 57 6 q 96 56 96 26 l 96 799 q 76 839 96 828 q 14 850 57 850 l 14 853 l 186 853 l 492 231 l 492 799 q 472 839 492 828 q 408 850 451 850 l 408 853 l 588 853 l 588 850 q 525 839 544 850 q 506 799 506 828 l 506 -12 l 110 792 l 110 56 q 129 16 110 26 q 193 6 149 6 l 193 1 l 14 1 l 14 6 z "},"O":{"ha":879,"x_min":14,"x_max":865,"o":"m 439 867 q 608 835 531 867 q 743 747 686 804 q 833 609 800 690 q 865 428 865 528 q 833 246 865 328 q 743 107 800 164 q 608 19 686 50 q 439 -12 531 -12 q 271 19 349 -12 q 136 107 193 50 q 47 246 79 164 q 14 428 14 328 q 47 609 14 528 q 136 747 79 690 q 271 835 193 804 q 439 867 349 867 m 439 1 q 575 28 513 1 q 683 110 638 56 q 756 244 729 164 q 782 428 782 324 q 756 611 782 532 q 683 744 729 690 q 575 826 638 799 q 439 853 513 853 q 304 826 367 853 q 196 744 242 799 q 124 611 150 690 q 97 428 97 532 q 124 244 97 324 q 196 110 150 164 q 304 28 242 56 q 439 1 367 1 z "},"P":{"ha":596,"x_min":14,"x_max":582,"o":"m 14 6 q 77 16 57 6 q 97 56 97 26 l 97 799 q 77 839 97 828 q 14 850 57 850 l 14 853 l 243 853 q 367 839 306 853 q 476 795 428 825 q 553 717 524 765 q 582 597 582 668 q 553 478 582 526 q 476 399 524 429 q 367 356 428 369 q 243 342 306 342 l 181 342 l 181 56 q 200 16 181 26 q 263 6 219 6 l 263 1 l 14 1 l 14 6 m 181 839 l 181 356 l 260 356 q 340 365 297 356 q 417 401 382 375 q 476 475 453 428 q 499 597 499 522 q 476 719 499 672 q 417 793 453 767 q 340 829 382 819 q 260 839 297 839 l 181 839 z "},"Q":{"ha":879,"x_min":14,"x_max":967,"o":"m 439 867 q 608 835 531 867 q 743 747 686 804 q 833 609 800 690 q 865 428 865 528 q 808 192 865 292 q 653 39 750 92 q 697 -22 672 11 q 753 -84 722 -56 q 818 -132 783 -112 q 892 -151 853 -151 q 920 -149 907 -151 q 943 -143 933 -146 q 964 -135 954 -139 l 967 -143 q 929 -162 950 -154 q 887 -175 911 -169 q 833 -181 863 -181 q 751 -165 786 -181 q 688 -122 715 -149 q 638 -60 660 -96 q 594 13 615 -25 q 439 -12 522 -12 q 271 19 349 -12 q 136 107 193 50 q 47 246 79 164 q 14 428 14 328 q 47 609 14 528 q 136 747 79 690 q 271 835 193 804 q 439 867 349 867 m 439 1 q 583 32 521 1 q 531 119 556 81 q 474 168 506 157 q 446 172 460 172 q 407 165 425 172 q 390 158 399 163 l 385 167 q 407 178 394 172 q 433 184 418 181 q 465 188 447 188 q 521 178 493 188 q 580 135 553 167 q 635 64 607 104 q 742 206 703 115 q 782 428 782 297 q 756 611 782 532 q 683 744 729 690 q 575 826 638 799 q 439 853 513 853 q 304 826 367 853 q 196 744 242 799 q 124 611 150 690 q 97 428 97 532 q 124 244 97 324 q 196 110 150 164 q 304 28 242 56 q 439 1 367 1 z "},"R":{"ha":699,"x_min":14,"x_max":699,"o":"m 14 850 l 14 853 l 265 853 q 385 842 328 853 q 487 804 443 831 q 556 734 531 778 q 582 625 582 690 q 565 535 582 574 q 519 471 549 497 q 450 428 490 444 q 364 406 410 413 l 583 56 q 628 16 601 26 q 699 6 654 6 l 699 1 l 432 1 l 432 6 q 487 16 472 6 q 483 56 501 26 l 269 397 l 181 397 l 181 56 q 200 16 181 26 q 263 6 219 6 l 263 1 l 14 1 l 14 6 q 78 16 58 6 q 97 56 97 26 l 97 799 q 78 839 97 828 q 14 850 58 850 m 181 411 l 260 411 q 340 416 297 411 q 417 442 382 421 q 476 507 453 464 q 499 625 499 550 q 476 743 499 700 q 417 808 453 786 q 340 834 382 829 q 260 839 297 839 l 181 839 l 181 411 z "},"S":{"ha":608,"x_min":28,"x_max":581,"o":"m 28 365 l 40 367 q 76 230 51 296 q 139 113 101 164 q 226 32 176 63 q 335 1 275 1 q 451 47 404 1 q 497 182 497 93 q 465 296 497 249 q 386 380 433 343 q 283 449 339 417 q 181 515 228 481 q 101 592 133 550 q 69 694 69 635 q 83 759 69 728 q 122 814 96 790 q 188 852 149 838 q 282 867 228 867 q 353 858 324 867 q 404 840 383 850 q 438 823 425 831 q 458 818 451 815 q 465 828 464 821 q 465 847 467 836 q 461 872 464 858 l 472 875 l 511 674 l 497 668 q 450 761 478 719 q 387 824 425 796 q 296 853 349 853 q 192 815 232 853 q 153 722 153 778 q 185 637 153 674 q 264 567 217 600 q 367 502 311 535 q 469 428 422 469 q 549 335 517 388 q 581 210 581 282 q 565 124 581 164 q 519 53 550 83 q 440 6 488 24 q 328 -12 392 -12 q 224 11 269 -12 q 146 62 179 35 q 90 111 113 89 q 57 129 68 133 q 47 119 50 128 q 40 101 43 111 q 38 78 38 92 l 28 78 l 28 365 z "},"U":{"ha":794,"x_min":14,"x_max":781,"o":"m 263 853 l 263 850 q 199 839 219 850 q 179 799 179 828 l 179 307 q 249 87 179 158 q 433 15 319 15 q 533 35 488 15 q 613 94 579 56 q 665 186 646 132 q 683 307 683 240 l 683 799 q 664 839 683 828 q 601 850 644 850 l 601 853 l 781 853 l 781 850 q 717 839 736 850 q 697 799 697 828 l 697 307 q 678 177 697 236 q 620 76 658 118 q 526 11 582 35 q 397 -12 471 -12 q 269 11 325 -12 q 174 76 213 35 q 115 177 135 118 q 96 307 96 236 l 96 799 q 76 839 96 828 q 14 850 57 850 l 14 853 l 263 853 z "},"T":{"ha":636,"x_min":0,"x_max":636,"o":"m 0 674 l 43 853 l 593 853 l 636 674 l 625 669 q 603 732 615 701 q 568 786 590 763 q 509 824 546 810 q 414 839 472 839 l 360 839 l 360 56 q 379 16 360 26 q 443 6 399 6 l 443 1 l 193 1 l 193 6 q 257 16 238 6 q 276 56 276 26 l 276 839 l 222 839 q 127 824 164 839 q 68 786 90 810 q 33 732 46 763 q 11 669 21 701 l 0 674 z "},"V":{"ha":763,"x_min":0,"x_max":763,"o":"m 258 853 l 258 850 q 199 839 215 850 q 194 799 183 828 l 418 147 l 643 799 q 637 839 653 828 q 578 850 621 850 l 578 853 l 763 853 l 763 850 q 697 839 724 850 q 661 799 671 828 l 382 -12 l 103 799 q 64 839 92 828 q 0 850 36 850 l 0 853 l 258 853 z "},"W":{"ha":1081,"x_min":0,"x_max":1081,"o":"m 0 850 l 0 853 l 260 853 l 260 850 q 199 839 215 850 q 194 799 183 828 l 418 147 l 532 476 l 421 799 q 396 839 410 828 q 347 850 382 850 l 347 853 l 735 853 l 735 850 q 683 839 696 850 q 661 799 671 828 l 586 583 l 738 147 l 961 799 q 956 839 972 828 q 896 850 940 850 l 896 853 l 1081 853 l 1081 850 q 1017 839 1043 850 q 979 799 990 828 l 700 -12 l 540 450 l 382 -12 l 103 799 q 64 839 92 828 q 0 850 36 850 m 513 799 l 578 610 l 643 799 q 642 839 653 828 q 578 850 631 850 q 513 839 525 850 q 513 799 501 828 z "},"X":{"ha":725,"x_min":14,"x_max":711,"o":"m 14 1 l 14 6 q 84 16 58 6 q 128 56 110 26 l 329 403 l 139 799 q 99 839 124 828 q 31 850 75 850 l 31 853 l 301 853 l 301 850 q 244 839 258 850 q 244 799 229 828 l 388 501 l 561 799 q 565 839 578 828 q 508 850 551 850 l 508 853 l 693 853 l 693 850 q 623 839 649 850 q 581 799 597 828 l 396 483 l 603 56 q 642 16 618 26 q 711 6 667 6 l 711 1 l 440 1 l 440 6 q 498 17 483 6 q 497 56 513 28 l 339 385 l 147 56 q 142 17 129 28 q 200 6 156 6 l 200 1 l 14 1 z "},"Y":{"ha":714,"x_min":0,"x_max":714,"o":"m 271 853 l 271 850 q 215 839 228 850 q 218 799 201 828 l 400 486 l 582 799 q 586 839 599 828 q 529 850 574 850 l 529 853 l 714 853 l 714 850 q 644 839 671 850 q 601 799 618 828 l 407 465 l 407 56 q 426 16 407 26 q 490 6 446 6 l 490 1 l 242 1 l 242 6 q 304 16 285 6 q 324 56 324 26 l 324 436 l 113 799 q 69 839 96 828 q 0 850 43 850 l 0 853 l 271 853 z "},"Z":{"ha":513,"x_min":14,"x_max":499,"o":"m 14 1 l 404 839 l 278 839 q 183 824 219 839 q 124 786 146 810 q 89 732 101 763 q 67 669 76 701 l 56 674 l 99 853 l 499 853 l 499 839 l 115 15 l 263 15 q 358 30 321 15 q 417 68 394 44 q 452 122 439 92 q 475 185 465 153 l 485 181 l 443 1 l 14 1 z "},"D":{"ha":685,"x_min":14,"x_max":671,"o":"m 14 1 l 14 6 q 76 16 57 6 q 96 56 96 26 l 96 799 q 76 839 96 828 q 14 850 57 850 l 14 853 l 269 853 q 419 826 347 853 q 547 747 492 800 q 637 615 603 694 q 671 428 671 535 q 637 241 671 321 q 547 108 603 161 q 419 28 492 54 q 269 1 347 1 l 14 1 m 249 15 q 376 40 315 18 q 484 110 438 63 q 559 236 531 158 q 588 428 588 314 q 557 626 588 547 q 476 753 526 706 q 359 819 425 800 q 224 839 293 839 l 179 839 l 179 78 q 249 15 179 21 z "},"a":{"ha":611,"x_min":0,"x_max":611,"o":"m 0 4 q 56 14 32 4 q 88 49 79 24 l 306 681 l 522 49 q 556 14 532 24 q 611 4 581 4 l 611 1 l 388 1 l 388 4 q 438 14 424 4 q 443 49 453 24 l 379 236 l 167 236 l 103 49 q 108 14 94 24 q 160 4 122 4 l 160 1 l 0 1 l 0 4 m 171 249 l 375 249 l 274 543 l 171 249 z "},"b":{"ha":524,"x_min":14,"x_max":510,"o":"m 210 658 q 378 617 318 658 q 439 506 439 576 q 404 415 439 451 q 304 363 369 378 q 382 347 344 358 q 448 315 419 336 q 493 260 476 293 q 510 183 510 228 q 488 97 510 132 q 432 41 467 63 q 353 10 397 19 q 263 1 308 1 l 14 1 l 14 4 q 67 14 50 4 q 85 49 85 24 l 85 611 q 67 645 85 636 q 14 654 50 654 l 14 658 l 210 658 m 228 14 l 254 14 q 320 22 288 14 q 378 50 353 31 q 421 102 404 69 q 438 183 438 135 q 421 264 438 232 q 378 315 404 296 q 320 343 353 335 q 254 351 288 351 l 157 351 l 157 67 q 228 14 157 14 m 222 364 q 327 400 288 364 q 367 506 367 436 q 327 610 367 574 q 221 646 288 646 l 157 646 l 157 364 l 222 364 z "},"c":{"ha":604,"x_min":14,"x_max":590,"o":"m 315 672 q 396 663 363 672 q 452 641 429 653 q 488 621 475 629 q 508 615 501 613 q 515 625 514 618 q 515 640 517 632 q 511 661 514 650 l 519 665 l 578 492 l 567 486 q 508 571 543 533 q 435 628 479 603 q 331 654 392 654 q 153 570 219 654 q 86 331 86 486 q 108 187 86 247 q 165 87 129 126 q 246 28 200 47 q 340 8 292 8 q 455 32 410 8 q 528 85 500 56 q 579 160 561 117 l 590 157 q 533 74 569 110 q 453 15 503 42 q 329 -11 404 -11 q 206 13 264 -11 q 106 83 149 38 q 39 191 64 128 q 14 331 14 254 q 38 471 14 408 q 101 578 61 533 q 197 648 142 624 q 315 672 251 672 z "},"d":{"ha":554,"x_min":14,"x_max":540,"o":"m 14 1 l 14 4 q 67 14 50 4 q 85 49 85 24 l 85 611 q 67 645 85 636 q 14 654 50 654 l 14 658 l 235 658 q 358 636 301 658 q 454 572 414 614 q 517 469 494 531 q 540 329 540 408 q 517 189 540 250 q 454 86 494 128 q 358 23 414 44 q 235 1 301 1 l 14 1 m 217 14 q 319 33 272 17 q 399 85 365 49 q 450 181 432 121 q 468 329 468 240 q 448 485 468 424 q 392 581 428 546 q 306 631 356 617 q 194 646 256 646 l 157 646 l 157 67 q 217 14 157 18 z "},"e":{"ha":464,"x_min":14,"x_max":450,"o":"m 14 658 l 389 658 l 426 503 l 417 499 q 398 553 408 526 q 368 600 388 579 q 317 633 349 621 q 235 646 285 646 l 157 646 l 157 397 l 253 397 q 288 415 279 397 q 297 469 297 432 l 307 469 l 307 314 l 297 314 q 288 369 297 351 q 253 386 279 386 l 157 386 l 157 14 l 258 14 q 340 26 308 14 q 392 59 372 39 q 422 106 411 79 q 440 160 432 132 l 450 157 l 413 1 l 14 1 l 14 4 q 67 14 50 4 q 85 49 85 24 l 85 611 q 67 645 85 636 q 14 654 50 654 l 14 658 z "},"f":{"ha":442,"x_min":14,"x_max":428,"o":"m 14 658 l 390 658 l 428 503 l 418 499 q 399 553 410 526 q 368 600 388 579 q 317 633 349 621 q 235 646 285 646 l 158 646 l 158 397 l 254 397 q 289 415 279 397 q 299 469 299 432 l 307 469 l 307 314 l 299 314 q 289 369 299 351 q 254 386 279 386 l 158 386 l 158 49 q 175 14 158 24 q 229 4 192 4 l 229 1 l 14 1 l 14 4 q 69 14 51 4 q 86 49 86 24 l 86 611 q 69 645 86 636 q 14 654 51 654 l 14 658 z "},"g":{"ha":675,"x_min":14,"x_max":661,"o":"m 314 672 q 394 663 361 672 q 451 641 428 653 q 488 621 474 629 q 508 615 501 613 q 515 625 514 618 q 514 640 515 632 q 510 661 513 650 l 519 665 l 578 492 l 565 486 q 508 571 542 533 q 435 628 479 603 q 329 654 390 654 q 152 570 219 654 q 85 331 85 486 q 106 187 85 247 q 163 87 128 126 q 245 28 199 47 q 340 8 292 8 q 444 31 401 8 q 517 81 488 53 l 517 318 q 513 341 517 331 q 497 358 510 351 q 458 369 483 365 q 392 372 433 372 l 392 376 l 661 376 l 661 372 q 606 363 624 372 q 589 328 589 354 l 589 1 l 581 1 q 563 47 575 35 q 535 58 550 58 q 503 47 519 58 q 463 24 486 36 q 408 0 440 11 q 328 -11 375 -11 q 205 13 263 -11 q 105 83 147 38 q 38 191 63 128 q 14 331 14 254 q 37 471 14 408 q 100 578 60 533 q 195 648 140 624 q 314 672 250 672 z "},"h":{"ha":578,"x_min":14,"x_max":564,"o":"m 14 1 l 14 4 q 68 14 51 4 q 85 49 85 24 l 85 611 q 68 645 85 636 q 14 654 51 654 l 14 658 l 229 658 l 229 654 q 174 645 192 654 q 157 611 157 636 l 157 376 l 421 376 l 421 611 q 403 645 421 636 q 349 654 386 654 l 349 658 l 564 658 l 564 654 q 510 645 528 654 q 493 611 493 636 l 493 49 q 510 14 493 24 q 564 4 528 4 l 564 1 l 349 1 l 349 4 q 403 14 386 4 q 421 49 421 24 l 421 364 l 157 364 l 157 49 q 174 14 157 24 q 229 4 192 4 l 229 1 l 14 1 z "},"i":{"ha":243,"x_min":14,"x_max":229,"o":"m 14 4 q 68 14 51 4 q 85 49 85 24 l 85 611 q 68 645 85 636 q 14 654 51 654 l 14 658 l 229 658 l 229 654 q 174 645 192 654 q 157 611 157 636 l 157 49 q 174 14 157 24 q 229 4 192 4 l 229 1 l 14 1 l 14 4 z "},"j":{"ha":419,"x_min":14,"x_max":406,"o":"m 68 193 q 104 181 92 193 q 118 149 117 168 q 113 119 119 131 q 99 99 107 107 q 85 83 92 90 q 75 68 78 76 q 79 43 72 56 q 99 22 86 31 q 131 7 113 13 q 167 1 149 1 q 238 33 213 1 q 263 135 263 64 l 263 601 q 239 640 263 626 q 149 654 215 654 l 149 658 l 406 658 l 406 654 q 352 645 369 654 q 335 611 335 636 l 335 171 q 322 103 335 136 q 288 44 310 69 q 235 4 265 19 q 167 -11 204 -11 q 103 0 132 -11 q 55 31 75 11 q 24 76 35 50 q 14 131 14 101 q 31 177 14 161 q 68 193 47 193 z "},"k":{"ha":549,"x_min":14,"x_max":549,"o":"m 229 658 l 229 654 q 175 645 192 654 q 158 611 158 636 l 158 343 l 365 611 q 375 645 385 636 q 328 654 365 654 l 326 654 l 326 658 l 488 658 l 488 654 q 427 645 454 654 q 381 611 400 636 l 257 451 l 456 49 q 490 14 468 24 q 549 4 511 4 l 549 1 l 319 1 l 319 4 q 368 14 354 4 q 369 49 382 24 l 204 383 l 158 324 l 158 49 q 175 14 158 24 q 229 4 192 4 l 229 1 l 14 1 l 14 4 q 69 14 51 4 q 86 49 86 24 l 86 611 q 69 645 86 636 q 14 654 51 654 l 14 658 l 229 658 z "},"l":{"ha":465,"x_min":14,"x_max":451,"o":"m 14 658 l 229 658 l 229 654 q 175 645 192 654 q 158 611 158 636 l 158 14 l 258 14 q 340 26 308 14 q 392 59 372 39 q 422 106 411 79 q 442 160 433 132 l 451 157 l 414 1 l 14 1 l 14 4 q 69 14 51 4 q 86 49 86 24 l 86 611 q 69 645 86 636 q 14 654 51 654 l 14 658 z "},"m":{"ha":668,"x_min":14,"x_max":654,"o":"m 85 49 l 85 611 q 68 645 85 636 q 14 654 51 654 l 14 658 l 147 658 l 339 228 l 529 658 l 654 658 l 654 654 q 600 645 617 654 q 583 611 583 636 l 583 49 q 600 14 583 24 q 654 4 617 4 l 654 1 l 439 1 l 439 4 q 494 14 476 4 q 511 49 511 24 l 511 583 l 303 114 l 97 583 l 97 49 q 115 14 97 24 q 168 4 132 4 l 168 1 l 14 1 l 14 4 q 68 14 51 4 q 85 49 85 24 z "},"n":{"ha":524,"x_min":14,"x_max":510,"o":"m 14 4 q 67 14 50 4 q 85 49 85 24 l 85 611 q 67 645 85 636 q 14 654 50 654 l 14 658 l 157 658 l 426 175 l 426 611 q 409 645 426 636 q 356 654 392 654 l 356 658 l 510 658 l 510 654 q 456 645 474 654 q 439 611 439 636 l 439 -11 l 97 601 l 97 49 q 115 14 97 24 q 168 4 132 4 l 168 1 l 14 1 l 14 4 z "},"o":{"ha":708,"x_min":14,"x_max":694,"o":"m 354 672 q 496 644 433 672 q 603 569 558 617 q 671 460 647 522 q 694 331 694 399 q 671 201 694 263 q 603 92 647 139 q 496 17 558 44 q 354 -11 433 -11 q 213 17 275 -11 q 106 92 150 44 q 38 201 61 139 q 14 331 14 263 q 38 460 14 399 q 106 569 61 522 q 213 644 150 617 q 354 672 275 672 m 85 331 l 86 331 q 104 194 86 256 q 157 91 122 133 q 242 25 192 49 q 354 1 292 1 q 467 25 417 1 q 551 91 517 49 q 603 194 585 133 q 622 331 622 256 q 603 467 622 406 q 551 570 585 528 q 467 636 517 613 q 354 660 417 660 q 242 636 292 660 q 157 570 192 613 q 103 467 122 528 q 85 331 85 406 z "},"p":{"ha":519,"x_min":14,"x_max":506,"o":"m 14 4 q 69 14 51 4 q 86 49 86 24 l 86 611 q 69 645 86 636 q 14 654 51 654 l 14 658 l 213 658 q 319 650 267 658 q 413 619 372 642 q 480 559 454 597 q 506 461 506 521 q 480 364 506 401 q 413 304 454 326 q 319 274 372 282 q 213 265 267 265 l 158 265 l 158 49 q 175 14 158 24 q 229 4 192 4 l 229 1 l 14 1 l 14 4 m 158 646 l 158 276 l 226 276 q 301 284 264 276 q 368 312 339 292 q 415 368 397 332 q 433 461 433 404 q 415 554 433 518 q 368 610 397 590 q 301 638 339 631 q 226 646 264 646 l 158 646 z "},"q":{"ha":708,"x_min":14,"x_max":811,"o":"m 354 672 q 496 644 433 672 q 603 569 558 617 q 671 460 647 522 q 694 331 694 399 q 652 159 694 239 q 531 35 610 79 q 566 -20 546 10 q 611 -75 586 -50 q 665 -117 636 -100 q 728 -133 694 -133 q 758 -131 743 -133 q 783 -125 772 -128 q 808 -117 797 -121 l 811 -124 q 779 -140 796 -132 q 743 -151 764 -146 q 697 -156 722 -156 q 624 -142 656 -156 q 568 -104 593 -128 q 524 -51 543 -81 q 485 13 504 -21 q 354 -11 425 -11 q 213 17 275 -11 q 106 92 150 44 q 38 201 61 139 q 14 331 14 263 q 38 460 14 399 q 106 569 61 522 q 213 644 150 617 q 354 672 275 672 m 86 331 q 105 194 86 256 q 158 91 124 133 q 242 25 192 49 q 354 1 292 1 q 475 29 422 1 q 430 104 451 71 q 385 146 408 138 q 358 149 371 150 q 335 146 346 149 q 311 136 322 142 l 307 144 q 326 154 315 150 q 349 160 336 157 q 378 163 363 163 q 461 131 432 163 q 517 56 490 100 q 595 169 568 99 q 622 331 622 239 q 604 467 622 406 q 551 570 586 528 q 467 636 517 613 q 354 660 417 660 q 242 636 292 660 q 158 570 192 613 q 105 467 124 528 q 86 331 86 406 z "},"r":{"ha":564,"x_min":14,"x_max":564,"o":"m 14 4 q 69 14 51 4 q 86 49 86 24 l 86 611 q 69 645 86 636 q 14 654 51 654 l 14 658 l 213 658 q 319 650 267 658 q 413 619 372 642 q 480 559 454 597 q 506 461 506 521 q 492 385 506 418 q 453 331 478 353 q 394 294 428 308 q 324 274 361 281 l 465 49 q 504 14 481 24 q 564 4 528 4 l 564 1 l 335 1 l 335 4 q 382 14 369 4 q 379 49 394 24 l 243 265 l 158 265 l 158 49 q 176 14 158 24 q 229 4 193 4 l 229 1 l 14 1 l 14 4 m 158 276 l 226 276 q 302 284 265 276 q 368 312 339 292 q 415 368 397 332 q 433 461 433 404 q 415 554 433 518 q 368 610 397 590 q 302 638 339 631 q 226 646 265 646 l 158 646 l 158 276 z "},"s":{"ha":493,"x_min":28,"x_max":465,"o":"m 28 286 l 40 288 q 67 174 50 226 q 111 83 85 121 q 174 23 138 44 q 256 1 210 1 q 354 38 315 1 q 393 144 393 74 q 369 232 393 196 q 308 297 344 268 q 229 350 272 325 q 150 403 186 375 q 90 466 114 431 q 65 550 65 501 q 110 640 65 608 q 221 671 154 671 q 276 664 253 671 q 315 649 299 657 q 343 634 332 640 q 360 629 354 628 q 365 638 364 631 q 365 653 367 644 q 363 675 365 663 l 371 678 l 406 504 l 393 499 q 353 579 376 543 q 303 635 333 610 q 233 660 274 660 q 160 637 182 660 q 138 574 138 614 q 162 497 138 529 q 222 438 186 465 q 301 386 258 411 q 381 330 344 361 q 441 258 417 299 q 465 160 465 218 q 408 35 465 81 q 263 -11 351 -11 q 177 5 213 -11 q 118 39 142 21 q 79 72 94 57 q 54 83 64 86 q 44 74 47 81 q 40 60 42 67 q 38 39 38 50 l 28 39 l 28 286 z "},"t":{"ha":467,"x_min":0,"x_max":467,"o":"m 0 503 l 38 658 l 431 658 l 467 503 l 458 499 q 439 553 450 526 q 410 600 428 579 q 364 633 392 621 q 292 646 336 646 l 269 646 l 269 49 q 287 14 269 24 q 342 4 304 4 l 342 1 l 126 1 l 126 4 q 181 14 164 4 q 197 49 197 24 l 197 646 l 176 646 q 103 633 132 646 q 58 600 75 621 q 29 553 40 579 q 10 499 18 526 l 0 503 z "},"u":{"ha":650,"x_min":14,"x_max":636,"o":"m 14 658 l 229 658 l 229 654 q 176 645 193 654 q 158 611 158 636 l 158 239 q 174 132 158 175 q 215 63 189 89 q 277 25 242 36 q 351 14 313 14 q 496 70 439 14 q 553 239 553 126 l 553 611 q 535 645 553 636 q 481 654 518 654 l 481 658 l 636 658 l 636 654 q 581 645 599 654 q 564 611 564 636 l 564 239 q 538 109 564 158 q 476 33 513 60 q 401 -2 440 7 q 332 -11 361 -11 q 240 5 285 -11 q 161 52 196 21 q 106 130 126 83 q 86 239 86 176 l 86 611 q 69 645 86 636 q 14 654 51 654 l 14 658 z "},"v":{"ha":611,"x_min":0,"x_max":611,"o":"m 224 658 l 224 654 q 173 645 188 654 q 168 611 158 636 l 338 117 l 508 611 q 503 645 517 636 q 451 654 489 654 l 451 658 l 611 658 l 611 654 q 556 645 579 654 q 524 611 532 636 l 306 -22 l 89 611 q 55 645 79 636 q 0 654 31 654 l 0 658 l 224 658 z "},"w":{"ha":865,"x_min":0,"x_max":865,"o":"m 224 658 l 224 654 q 172 645 186 654 q 167 611 158 636 l 338 117 l 425 369 l 342 611 q 309 645 333 636 q 254 654 285 654 l 254 658 l 611 658 l 611 654 q 555 645 578 654 q 524 611 532 636 l 472 461 l 592 117 l 761 611 q 756 645 769 636 q 706 654 742 654 l 706 658 l 865 658 l 865 654 q 809 645 832 654 q 776 611 786 636 l 560 -22 l 432 346 l 306 -22 l 88 611 q 55 645 79 636 q 0 654 31 654 l 0 658 l 224 658 m 421 611 l 464 485 l 508 611 q 505 644 515 635 q 464 654 494 653 q 423 644 433 653 q 421 611 413 635 z "},"x":{"ha":601,"x_min":14,"x_max":588,"o":"m 113 49 l 275 314 l 132 611 q 97 645 119 636 q 39 654 75 654 l 39 658 l 272 658 l 272 654 q 224 645 236 654 q 222 611 211 636 l 325 397 l 456 611 q 460 645 471 636 q 411 654 449 654 l 411 658 l 571 658 l 571 654 q 510 645 533 654 q 472 611 488 636 l 333 382 l 494 49 q 528 14 507 24 q 588 4 550 4 l 588 1 l 353 1 l 353 4 q 403 14 390 4 q 403 49 415 24 l 282 299 l 129 49 q 125 14 114 24 q 174 4 136 4 l 174 1 l 14 1 l 14 4 q 74 14 51 4 q 113 49 97 24 z "},"y":{"ha":574,"x_min":0,"x_max":574,"o":"m 235 658 l 235 654 q 185 645 197 654 q 189 611 174 636 l 324 379 l 458 611 q 462 645 474 636 q 413 654 450 654 l 413 658 l 574 658 l 574 654 q 513 645 536 654 q 475 611 490 636 l 329 361 l 329 49 q 347 14 329 24 q 401 4 364 4 l 401 1 l 186 1 l 186 4 q 240 14 224 4 q 257 49 257 24 l 257 336 l 97 611 q 60 645 82 636 q 0 654 38 654 l 0 658 l 235 658 z "},"z":{"ha":447,"x_min":14,"x_max":433,"o":"m 14 1 l 351 646 l 242 646 q 160 633 192 646 q 108 600 128 621 q 78 553 89 579 q 58 499 67 526 l 50 503 l 86 658 l 433 658 l 433 646 l 101 14 l 229 14 q 311 26 279 14 q 363 59 343 39 q 393 106 382 79 q 413 160 404 132 l 421 157 l 385 1 l 14 1 z "},"`":{"ha":207,"x_min":18,"x_max":190,"o":"m 29 875 q 57 888 40 888 q 83 875 74 888 l 182 763 q 182 747 190 756 q 168 746 176 742 l 39 821 q 21 845 24 829 q 29 875 18 861 z "},"~":{"ha":567,"x_min":42,"x_max":525,"o":"m 135 546 l 142 546 q 213 533 175 546 q 292 504 251 519 q 360 481 318 494 q 436 467 401 467 q 474 479 460 467 q 496 507 488 492 q 511 546 506 524 l 525 546 q 513 472 524 504 q 483 421 503 444 q 424 397 463 397 l 422 397 q 349 410 389 397 q 267 440 310 424 q 238 451 254 444 q 205 463 222 457 q 170 472 188 468 q 139 476 153 476 q 98 465 114 476 q 72 438 82 453 q 56 397 61 419 l 42 397 q 53 472 43 439 q 81 523 63 500 q 135 546 100 546 z "},"!":{"ha":200,"x_min":42,"x_max":158,"o":"m 100 853 q 140 835 124 853 q 154 794 157 818 l 113 217 q 100 206 110 206 q 88 217 88 206 l 46 794 q 60 835 43 818 q 100 853 76 853 m 42 46 q 58 87 42 69 q 100 104 75 104 q 141 87 124 104 q 158 46 158 69 q 141 5 158 22 q 100 -12 124 -12 q 58 5 75 -12 q 42 46 42 22 z "},"@":{"ha":794,"x_min":15,"x_max":779,"o":"m 26 393 q 75 565 39 479 q 169 718 111 650 q 306 828 228 786 q 476 869 383 869 q 626 837 563 869 q 726 742 690 804 q 768 624 757 690 q 768 482 779 557 q 750 398 764 446 q 712 307 736 350 q 653 234 688 264 q 574 204 618 204 q 533 215 549 204 q 507 244 517 226 q 493 283 497 261 q 488 324 489 304 q 419 243 460 274 q 333 213 378 213 q 274 230 300 213 q 230 277 247 247 q 206 348 213 307 q 204 435 199 389 q 228 521 211 481 q 272 592 246 561 q 330 640 299 622 q 394 657 361 657 q 465 631 435 657 q 511 564 496 606 l 522 647 l 582 647 l 553 428 q 542 319 543 360 q 546 256 542 278 q 558 226 550 233 q 576 219 567 219 q 613 237 593 219 q 651 288 632 254 q 685 371 669 322 q 708 482 700 419 q 708 642 721 574 q 663 758 696 711 q 582 829 631 806 q 474 853 533 853 q 328 809 394 853 q 211 698 261 765 q 129 549 161 631 q 86 393 97 468 q 86 250 76 319 q 126 127 96 181 q 208 42 157 74 q 331 10 258 10 q 439 28 392 10 q 521 71 486 47 q 590 132 560 97 l 599 121 q 469 22 538 60 q 311 -15 400 -15 q 71 114 147 -15 q 27 240 39 168 q 26 393 15 311 m 357 232 q 431 269 396 232 q 488 365 467 307 q 489 396 488 381 q 493 428 490 411 l 504 515 q 473 602 497 568 q 411 636 449 636 q 363 620 386 636 q 319 577 339 604 q 284 513 299 550 q 264 435 269 476 q 263 356 258 393 q 279 291 267 318 q 312 248 292 264 q 357 232 332 232 z "},"#":{"ha":592,"x_min":21,"x_max":571,"o":"m 21 285 l 31 338 l 158 338 l 190 518 l 63 518 l 71 569 l 200 569 l 250 853 l 274 853 l 224 569 l 418 569 l 468 853 l 493 853 l 443 569 l 571 569 l 563 518 l 433 518 l 401 338 l 531 338 l 521 285 l 393 285 l 343 1 l 318 1 l 368 285 l 174 285 l 124 1 l 100 1 l 150 285 l 21 285 m 378 338 l 408 518 l 215 518 l 183 338 l 378 338 z "},"$":{"ha":442,"x_min":21,"x_max":421,"o":"m 21 381 l 32 382 q 88 182 46 256 q 208 97 129 108 l 208 438 q 151 478 179 458 q 99 523 122 499 q 63 576 76 547 q 49 643 49 606 q 61 694 49 671 q 96 732 74 717 q 147 756 118 747 q 208 765 175 765 l 208 853 l 233 853 l 233 764 q 283 756 260 761 q 324 746 306 751 q 363 732 344 739 l 389 597 l 376 593 q 340 667 361 633 q 296 720 322 694 q 233 751 269 746 l 233 508 q 299 463 265 486 q 359 409 332 439 q 403 342 386 379 q 421 253 421 304 q 405 183 421 214 q 363 129 389 151 q 304 95 336 107 q 239 83 272 83 l 233 83 l 233 -64 l 208 -64 l 208 85 q 132 105 167 90 q 74 135 97 119 q 21 175 44 153 l 21 381 m 233 96 l 238 96 q 317 131 285 96 q 349 238 349 167 q 314 344 349 303 q 233 419 279 386 l 233 96 m 121 667 q 146 588 121 621 q 208 526 171 556 l 208 753 q 144 728 168 750 q 121 667 121 706 z "},"¦":{"ha":67,"x_min":21,"x_max":46,"o":"m 21 -83 l 21 325 l 46 325 l 46 -83 l 21 -83 m 46 889 l 46 500 l 21 500 l 21 889 l 46 889 z "},"|":{"ha":108,"x_min":42,"x_max":67,"o":"m 67 889 l 67 -83 l 42 -83 l 42 889 l 67 889 z "},"%":{"ha":790,"x_min":21,"x_max":769,"o":"m 396 192 q 410 272 396 235 q 449 338 424 310 q 508 381 474 365 q 582 397 542 397 q 658 381 624 397 q 717 338 692 365 q 756 272 742 310 q 769 192 769 235 q 756 113 769 150 q 717 47 742 75 q 658 3 692 19 q 582 -12 624 -12 q 508 3 542 -12 q 449 47 474 19 q 410 113 424 75 q 396 192 396 150 m 21 663 q 35 742 21 706 q 74 807 49 779 q 133 851 99 835 q 208 867 168 867 q 283 851 249 867 q 343 807 318 835 q 382 742 368 779 q 396 663 396 706 q 382 583 396 621 q 343 518 368 546 q 283 474 318 490 q 208 458 249 458 q 133 474 168 458 q 74 518 99 490 q 35 583 49 546 q 21 663 21 621 m 104 663 q 109 598 104 632 q 126 536 114 564 q 158 490 138 508 q 208 472 178 472 q 259 490 239 472 q 291 536 279 508 q 308 598 303 564 q 313 663 313 632 q 308 728 313 694 q 291 789 303 761 q 259 835 279 817 q 208 853 239 853 q 158 835 178 853 q 126 789 138 817 q 109 728 114 761 q 104 663 104 694 m 479 192 q 484 127 479 161 q 500 65 489 93 q 531 19 511 38 q 582 1 551 1 q 633 19 613 1 q 665 65 653 38 q 681 127 676 93 q 686 192 686 161 q 681 258 686 224 q 665 319 676 292 q 633 365 653 347 q 582 383 613 383 q 531 365 551 383 q 500 319 511 347 q 484 258 489 292 q 479 192 479 224 m 569 853 l 596 853 l 222 1 l 194 1 l 569 853 z "},"^":{"ha":333,"x_min":21,"x_max":313,"o":"m 21 511 l 147 853 l 186 853 l 313 511 l 264 511 l 167 796 l 69 511 l 21 511 z "},"&":{"ha":717,"x_min":21,"x_max":699,"o":"m 282 563 q 194 615 229 579 q 160 708 160 651 q 209 822 160 776 q 335 867 258 867 q 434 846 397 867 q 490 800 471 825 q 524 733 514 771 l 463 657 q 431 802 463 751 q 346 853 399 853 q 274 815 306 853 q 243 708 243 778 q 277 604 243 638 q 371 571 311 571 l 371 550 q 270 535 318 550 q 185 487 222 519 q 126 403 149 454 q 104 279 104 351 q 122 165 104 217 q 169 77 139 114 q 238 21 199 40 q 324 1 278 1 q 398 14 361 1 q 465 54 435 26 q 513 127 494 82 q 532 238 532 172 q 500 371 532 332 q 422 410 468 410 q 333 351 369 410 q 297 174 297 293 l 231 288 l 231 289 q 283 381 247 343 q 363 449 318 419 q 456 506 407 479 q 547 563 504 533 q 622 631 590 593 q 665 721 654 668 q 692 670 685 696 q 692 620 699 644 q 663 575 685 596 q 601 538 640 554 q 477 489 544 514 q 353 414 410 464 q 410 422 378 422 q 559 371 506 422 q 613 238 613 319 q 588 125 613 172 q 522 47 563 78 q 429 2 481 17 q 325 -12 378 -12 q 199 10 256 -12 q 103 72 143 32 q 42 164 64 111 q 21 279 21 217 q 42 390 21 342 q 101 474 64 439 q 185 531 138 508 q 282 563 232 553 z "},"*":{"ha":269,"x_min":18,"x_max":250,"o":"m 36 718 l 118 749 l 36 781 q 22 793 26 783 q 25 813 18 803 q 40 824 31 822 q 58 819 50 826 l 126 764 l 113 850 q 117 869 110 861 q 135 876 124 876 q 153 869 146 876 q 157 850 160 861 l 143 764 l 210 819 q 228 824 218 826 q 244 813 239 822 q 247 793 250 803 q 233 781 243 783 l 151 749 l 233 718 q 247 705 243 715 q 244 686 250 694 q 228 674 239 676 q 210 679 218 672 l 143 735 l 157 649 q 153 630 160 638 q 135 622 146 622 q 117 630 124 622 q 113 649 110 638 l 126 735 l 58 679 q 40 674 50 672 q 25 686 31 676 q 22 705 18 694 q 36 718 26 715 z "},"(":{"ha":215,"x_min":21,"x_max":194,"o":"m 186 853 l 194 844 q 139 760 163 817 q 99 626 117 711 q 82 407 82 542 q 99 187 82 272 q 139 53 117 101 q 194 -32 163 -4 l 186 -40 q 104 56 140 -6 q 47 194 72 108 q 21 407 21 279 q 47 619 21 535 q 104 757 72 704 q 186 853 140 818 z "},")":{"ha":215,"x_min":21,"x_max":194,"o":"m 21 -32 q 78 53 53 -4 q 116 187 99 101 q 133 407 133 272 q 116 626 133 542 q 78 760 99 711 q 21 844 53 817 l 29 853 q 113 757 75 818 q 169 619 143 704 q 194 407 194 535 q 169 194 194 279 q 113 56 143 108 q 29 -40 75 -6 l 21 -32 z "},"-":{"ha":283,"x_min":42,"x_max":242,"o":"m 242 393 l 42 393 l 42 453 l 242 453 l 242 393 z "},"_":{"ha":421,"x_min":21,"x_max":400,"o":"m 21 15 l 400 15 l 400 -14 l 21 -14 l 21 15 z "},"±":{"ha":489,"x_min":21,"x_max":468,"o":"m 214 453 l 214 647 l 275 647 l 275 453 l 468 453 l 468 393 l 275 393 l 275 199 l 214 199 l 214 393 l 21 393 l 21 453 l 214 453 m 21 63 l 468 63 l 468 1 l 21 1 l 21 63 z "},"=":{"ha":464,"x_min":21,"x_max":443,"o":"m 443 343 l 443 282 l 21 282 l 21 343 l 443 343 m 21 488 l 443 488 l 443 428 l 21 428 l 21 488 z "},"¢":{"ha":618,"x_min":21,"x_max":597,"o":"m 21 394 q 43 531 21 469 q 104 638 65 593 q 196 708 143 682 q 310 736 249 733 l 310 853 l 335 853 l 335 736 q 417 725 379 735 q 483 704 456 715 q 544 676 517 692 l 585 554 l 574 550 q 522 635 556 597 q 450 692 494 667 q 338 718 406 718 l 335 718 l 335 72 q 347 71 339 71 q 463 95 417 71 q 536 147 508 119 q 588 224 568 181 l 597 221 q 542 138 576 174 q 461 79 511 106 q 336 53 411 53 l 335 53 l 335 -64 l 310 -64 l 310 54 q 196 85 249 58 q 104 156 143 111 q 43 261 65 200 q 21 394 21 322 m 93 394 q 110 263 93 319 q 158 166 128 206 q 227 104 188 126 q 310 75 267 82 l 310 717 q 152 622 211 706 q 93 394 93 539 z "},"£":{"ha":606,"x_min":21,"x_max":585,"o":"m 21 393 l 21 439 l 144 439 q 126 559 135 500 q 117 671 117 618 q 135 760 117 724 q 185 821 154 797 q 256 856 215 844 q 339 867 296 867 q 439 847 397 867 q 508 803 481 826 q 564 738 542 774 l 526 628 q 490 740 514 690 q 436 818 471 783 q 346 853 401 853 q 248 814 289 853 q 207 693 207 775 q 214 565 207 628 q 228 439 221 501 l 432 439 l 432 393 l 233 393 q 243 273 240 331 q 237 166 246 215 q 203 78 228 117 q 132 15 179 40 l 310 15 q 419 30 374 15 q 497 68 465 44 q 547 122 528 92 q 575 185 565 153 l 585 181 l 543 1 l 24 1 q 114 65 83 25 q 156 156 144 104 q 165 269 168 208 q 151 393 161 329 l 21 393 z "},"₤":{"ha":606,"x_min":21,"x_max":585,"o":"m 21 371 l 154 371 q 147 423 151 397 q 139 475 143 449 l 21 475 l 21 521 l 131 521 q 121 598 125 561 q 117 671 117 635 q 135 760 117 724 q 185 821 154 797 q 256 856 215 844 q 339 867 296 867 q 439 847 397 867 q 508 803 481 826 q 564 738 542 774 l 525 628 q 489 740 513 690 q 435 818 469 783 q 344 853 400 853 q 247 814 288 853 q 207 693 207 775 q 210 606 207 649 q 218 521 214 564 l 432 521 l 432 475 l 224 475 q 236 371 231 421 l 432 371 l 432 324 l 240 324 q 243 226 244 272 q 231 140 242 179 q 196 68 219 100 q 132 15 172 36 l 308 15 q 419 30 374 15 q 495 68 464 44 q 545 122 526 92 q 574 185 564 153 l 585 181 l 542 1 l 24 1 q 105 54 75 21 q 149 129 135 88 q 164 221 163 171 q 160 324 165 271 l 21 324 l 21 371 z "},"€":{"ha":654,"x_min":21,"x_max":633,"o":"m 115 521 q 140 662 122 599 q 192 771 158 725 q 276 842 225 817 q 397 867 326 867 q 474 856 438 867 q 539 832 511 846 q 599 797 571 817 l 633 632 l 621 626 q 565 740 597 690 q 497 817 538 782 q 401 853 456 853 q 257 770 306 853 q 199 521 208 688 l 506 521 l 506 475 l 196 475 l 196 371 l 506 371 l 506 324 l 199 324 q 258 82 210 163 q 401 1 306 1 q 497 37 456 1 q 565 115 538 72 q 621 228 597 164 l 633 222 l 599 58 q 539 24 571 39 q 474 -1 511 10 q 397 -12 438 -12 q 276 12 326 -12 q 193 81 226 36 q 142 187 160 125 q 117 324 124 249 l 21 324 l 21 371 l 114 371 q 113 399 113 385 q 113 428 113 413 l 113 475 l 21 475 l 21 521 l 115 521 z "},"¥":{"ha":757,"x_min":21,"x_max":736,"o":"m 21 850 l 21 853 l 292 853 l 292 850 q 235 839 249 850 q 239 799 222 828 l 421 486 l 603 799 q 608 839 621 828 q 550 850 594 850 l 550 853 l 736 853 l 736 850 q 666 839 692 850 q 622 799 640 828 l 428 465 l 428 446 l 621 446 l 621 400 l 428 400 l 428 296 l 621 296 l 621 249 l 428 249 l 428 57 q 447 17 428 28 q 511 6 467 6 l 511 1 l 263 1 l 263 6 q 325 17 306 6 q 344 57 344 28 l 344 249 l 136 249 l 136 296 l 344 296 l 344 400 l 136 400 l 136 446 l 339 446 l 133 799 q 90 839 117 828 q 21 850 64 850 z "},"₣":{"ha":618,"x_min":21,"x_max":597,"o":"m 154 258 l 154 799 q 135 839 154 828 q 71 850 115 850 l 71 853 l 554 853 l 597 674 l 586 669 q 564 732 576 701 q 529 786 551 763 q 470 824 507 810 q 375 839 433 839 l 238 839 l 238 553 l 397 553 q 438 572 426 553 q 449 635 449 592 l 458 635 l 458 456 l 449 456 q 438 519 449 500 q 397 539 426 539 l 238 539 l 238 258 l 388 258 l 388 211 l 238 211 l 238 56 q 257 17 238 28 q 319 6 276 6 l 319 1 l 71 1 l 71 6 q 135 17 115 6 q 154 57 154 28 l 154 211 l 21 211 l 21 258 l 154 258 z "},"₧":{"ha":713,"x_min":21,"x_max":692,"o":"m 122 649 l 122 799 q 103 839 122 828 q 39 850 83 850 l 39 853 l 290 853 q 405 843 350 853 q 503 809 460 833 q 574 746 546 785 q 606 649 601 707 l 692 649 l 692 603 l 606 603 q 574 505 601 544 q 503 442 546 465 q 405 408 460 418 q 290 397 350 397 l 206 397 l 206 56 q 225 17 206 28 q 288 6 244 6 l 288 1 l 39 1 l 39 6 q 103 17 83 6 q 122 57 122 28 l 122 603 l 21 603 l 21 649 l 122 649 m 206 603 l 206 411 l 285 411 q 361 416 321 411 q 436 440 401 421 q 495 497 471 458 q 524 603 519 536 l 206 603 m 206 839 l 206 649 l 524 649 q 495 753 519 715 q 436 810 471 792 q 361 834 401 829 q 285 839 321 839 l 206 839 z "},"ƒ":{"ha":651,"x_min":21,"x_max":631,"o":"m 25 -135 q 121 -131 78 -143 q 158 -115 140 -125 q 192 -87 176 -104 q 219 -44 208 -69 q 233 18 229 -18 l 286 475 l 189 475 l 194 521 l 290 521 l 307 671 q 374 821 319 775 q 501 867 428 867 q 562 862 538 867 q 601 851 586 857 q 631 835 619 843 l 592 753 q 581 803 590 781 q 556 838 572 822 q 510 853 540 853 q 438 814 465 853 q 400 693 410 775 l 381 521 l 519 521 l 515 475 l 376 475 l 331 81 q 294 -40 322 6 q 228 -111 265 -86 q 152 -144 192 -136 q 81 -151 113 -151 q 57 -151 68 -151 q 38 -149 46 -150 q 21 -146 28 -147 l 25 -135 z "},"¤":{"ha":544,"x_min":21,"x_max":524,"o":"m 58 679 l 142 576 q 199 617 165 603 q 272 632 232 632 q 345 617 313 632 q 403 576 378 603 l 486 679 l 524 642 l 419 557 q 449 497 439 529 q 460 428 460 464 q 449 358 460 390 q 419 299 439 325 l 524 214 l 486 176 l 403 279 q 345 238 378 253 q 272 222 313 222 q 199 238 232 222 q 142 279 165 253 l 58 176 l 21 214 l 125 299 q 95 358 106 325 q 85 428 85 390 q 95 497 85 464 q 125 557 106 529 l 21 642 l 58 679 m 168 428 q 173 362 168 396 q 190 300 178 328 q 222 254 201 272 q 272 236 242 236 q 323 254 303 236 q 355 300 343 272 q 372 362 367 328 q 376 428 376 396 q 372 493 376 460 q 355 554 367 526 q 323 600 343 582 q 272 618 303 618 q 222 600 242 618 q 190 554 201 582 q 173 493 178 526 q 168 428 168 460 z "},"¼":{"ha":699,"x_min":21,"x_max":678,"o":"m 575 476 l 603 476 l 603 181 l 607 181 q 650 188 639 181 q 671 219 661 196 l 678 217 l 657 129 l 603 129 l 603 42 q 617 12 603 19 q 663 4 631 4 l 663 1 l 481 1 l 481 4 q 527 12 513 4 q 542 42 542 19 l 542 129 l 353 129 l 575 476 m 21 724 l 143 853 l 161 853 l 161 418 q 176 388 161 396 q 222 381 190 381 l 222 378 l 40 378 l 40 381 q 87 388 72 381 q 101 418 101 396 l 101 725 q 96 752 101 744 q 83 760 90 760 q 65 753 75 760 q 46 740 54 747 q 25 721 35 732 l 21 724 m 526 853 l 554 853 l 179 1 l 151 1 l 526 853 m 542 181 l 542 406 l 397 181 l 542 181 z "},"½":{"ha":758,"x_min":21,"x_max":738,"o":"m 406 1 q 450 90 424 53 q 506 158 476 128 q 565 213 536 188 q 619 263 594 238 q 658 315 643 288 q 672 378 672 343 q 651 447 672 418 q 589 476 629 476 q 525 451 549 476 q 488 394 501 426 q 467 313 472 358 l 439 392 q 475 440 453 418 q 524 473 494 458 q 594 488 554 488 q 698 451 658 488 q 738 367 738 414 q 722 301 738 328 q 683 255 707 275 q 627 217 658 235 q 564 178 596 200 q 501 126 532 156 q 449 53 471 97 l 571 53 q 640 63 614 53 q 683 91 667 74 q 709 131 700 108 q 725 176 718 153 l 733 174 l 692 1 l 406 1 m 143 853 l 161 853 l 161 418 q 176 388 161 396 q 222 381 190 381 l 222 378 l 40 378 l 40 381 q 87 388 72 381 q 101 418 101 396 l 101 725 q 96 752 101 744 q 83 760 90 760 q 65 753 75 760 q 47 740 56 747 q 26 721 36 732 l 21 724 l 143 853 m 151 1 l 526 853 l 554 853 l 179 1 l 151 1 z "},"¾":{"ha":776,"x_min":21,"x_max":756,"o":"m 431 129 l 653 476 l 681 476 l 681 181 l 685 181 q 728 188 718 181 q 749 219 739 196 l 756 217 l 736 129 l 681 129 l 681 42 q 694 12 681 19 q 740 4 708 4 l 740 1 l 558 1 l 558 4 q 605 12 590 4 q 619 42 619 19 l 619 129 l 431 129 m 79 506 q 106 400 79 438 q 182 363 133 363 q 249 401 222 363 q 276 517 276 440 q 121 629 276 629 l 121 644 q 222 677 189 650 q 256 761 256 704 q 238 828 256 804 q 189 853 221 853 q 135 826 158 853 q 113 731 113 800 l 69 786 q 119 842 92 821 q 199 864 147 864 q 288 838 260 864 q 317 771 317 811 q 278 688 317 722 q 186 639 239 654 q 241 625 214 635 q 290 599 268 615 q 324 560 311 583 q 338 506 338 538 q 291 392 338 432 q 174 353 244 353 q 79 374 114 353 q 21 444 44 394 l 79 506 m 229 1 l 604 853 l 632 853 l 257 1 l 229 1 m 619 181 l 619 406 l 475 181 l 619 181 z "},"⁴":{"ha":367,"x_min":21,"x_max":346,"o":"m 243 853 l 271 853 l 271 557 l 275 557 q 318 565 307 557 q 339 596 329 572 l 346 593 l 325 506 l 271 506 l 271 418 q 285 388 271 396 q 331 381 299 381 l 331 378 l 149 378 l 149 381 q 195 388 181 381 q 210 418 210 396 l 210 506 l 21 506 l 243 853 m 210 557 l 210 782 l 65 557 l 210 557 z "},"¹":{"ha":243,"x_min":21,"x_max":222,"o":"m 21 724 l 143 853 l 163 853 l 163 418 q 176 388 163 396 q 222 381 190 381 l 222 378 l 40 378 l 40 381 q 87 388 72 381 q 101 418 101 396 l 101 725 q 96 752 101 744 q 83 760 90 760 q 65 753 75 760 q 47 740 56 747 q 26 721 36 732 l 21 724 z "},"³":{"ha":358,"x_min":21,"x_max":338,"o":"m 81 506 q 108 400 81 438 q 183 363 135 363 q 250 401 224 363 q 276 517 276 440 q 122 629 276 629 l 122 644 q 224 677 190 650 q 257 761 257 704 q 239 828 257 804 q 189 853 221 853 q 136 826 158 853 q 114 731 114 800 l 69 786 q 121 842 93 821 q 200 864 149 864 q 290 838 261 864 q 318 771 318 811 q 278 688 318 722 q 186 639 239 654 q 241 625 214 635 q 290 599 268 615 q 324 560 311 583 q 338 506 338 538 q 292 392 338 432 q 175 353 246 353 q 79 374 114 353 q 21 444 44 394 l 81 506 z "},"²":{"ha":374,"x_min":21,"x_max":353,"o":"m 288 754 q 266 824 288 794 q 203 853 244 853 q 139 828 163 853 q 103 771 115 803 q 82 689 88 735 l 54 768 q 90 817 68 794 q 139 849 110 835 q 210 864 168 864 q 313 827 274 864 q 353 743 353 790 q 338 678 353 704 q 298 631 322 651 q 242 594 274 611 q 178 554 211 576 q 115 503 146 532 q 63 429 85 474 l 186 429 q 255 440 228 429 q 299 467 282 450 q 324 507 315 485 q 340 553 333 529 l 347 550 l 307 378 l 21 378 q 65 467 39 429 q 121 534 92 504 q 180 589 150 564 q 234 639 210 614 q 273 692 258 664 q 288 754 288 719 z "},"´":{"ha":244,"x_min":18,"x_max":226,"o":"m 25 765 l 146 906 q 178 921 158 921 q 213 904 200 921 q 223 869 226 889 q 201 839 219 850 l 42 746 q 25 749 32 742 q 25 765 18 758 z "},"˙":{"ha":189,"x_min":21,"x_max":168,"o":"m 21 818 q 42 870 21 849 q 94 892 63 892 q 147 870 125 892 q 168 818 168 849 q 147 765 168 786 q 94 744 125 744 q 42 765 63 744 q 21 818 21 786 z "},"˚":{"ha":253,"x_min":21,"x_max":232,"o":"m 21 849 q 51 924 21 893 q 126 954 82 954 q 201 924 171 954 q 232 849 232 893 q 201 775 232 806 q 126 744 171 744 q 51 775 82 744 q 21 849 21 806 m 126 761 q 163 787 147 761 q 178 849 178 813 q 163 912 178 886 q 126 938 147 938 q 91 912 106 938 q 76 849 76 886 q 91 787 76 813 q 126 761 106 761 z "},"˘":{"ha":346,"x_min":21,"x_max":325,"o":"m 21 883 l 96 883 q 115 790 96 817 q 174 764 135 764 q 231 790 211 764 q 250 883 250 817 l 325 883 q 281 777 325 810 q 174 744 236 744 q 65 777 110 744 q 21 883 21 810 z "},"ˆ":{"ha":372,"x_min":21,"x_max":351,"o":"m 156 883 l 217 883 l 351 744 l 272 744 l 186 851 l 100 744 l 21 744 l 156 883 z "},"ˇ":{"ha":372,"x_min":21,"x_max":351,"o":"m 100 883 l 186 775 l 272 883 l 351 883 l 217 744 l 156 744 l 21 883 l 100 883 z "},"¨":{"ha":365,"x_min":21,"x_max":344,"o":"m 210 811 q 229 859 210 839 q 276 879 249 879 q 324 859 304 879 q 344 811 344 839 q 324 764 344 783 q 276 744 304 744 q 229 764 249 744 q 210 811 210 783 m 21 811 q 41 859 21 839 q 89 879 61 879 q 136 859 117 879 q 156 811 156 839 q 136 764 156 783 q 89 744 117 744 q 41 764 61 744 q 21 811 21 783 z "},"¯":{"ha":404,"x_min":21,"x_max":383,"o":"m 21 797 l 383 797 l 383 744 l 21 744 l 21 797 z "},"–":{"ha":489,"x_min":21,"x_max":468,"o":"m 21 453 l 468 453 l 468 393 l 21 393 l 21 453 z "},"—":{"ha":607,"x_min":21,"x_max":586,"o":"m 21 453 l 586 453 l 586 393 l 21 393 l 21 453 z "},"÷":{"ha":490,"x_min":21,"x_max":469,"o":"m 21 393 l 21 453 l 469 453 l 469 393 l 21 393 m 186 590 q 203 631 186 614 q 244 649 221 649 q 287 631 269 649 q 304 590 304 614 q 287 548 304 565 q 244 531 269 531 q 203 548 221 531 q 186 590 186 565 m 244 315 q 287 298 269 315 q 304 256 304 281 q 287 215 304 232 q 244 197 269 197 q 203 215 221 197 q 186 256 186 232 q 203 298 186 281 q 244 315 221 315 z "},"−":{"ha":447,"x_min":21,"x_max":426,"o":"m 21 453 l 426 453 l 426 393 l 21 393 l 21 453 z "},"×":{"ha":401,"x_min":21,"x_max":381,"o":"m 21 286 l 158 424 l 21 560 l 64 603 l 200 465 l 338 603 l 381 560 l 243 424 l 381 286 l 338 243 l 200 381 l 64 243 l 21 286 z "},"¸":{"ha":279,"x_min":21,"x_max":267,"o":"m 21 -256 l 24 -236 q 128 -215 92 -236 q 170 -168 164 -193 q 151 -122 176 -143 q 72 -100 126 -100 l 89 8 l 117 8 l 99 -76 q 231 -108 194 -79 q 253 -169 267 -136 q 180 -228 240 -201 q 21 -256 119 -256 z "},"˛":{"ha":239,"x_min":21,"x_max":218,"o":"m 213 24 l 218 11 q 165 -31 188 -6 q 128 -82 144 -51 q 111 -153 111 -112 q 126 -199 111 -182 q 158 -225 140 -215 q 206 -240 179 -236 l 201 -258 q 69 -235 118 -258 q 21 -160 21 -211 q 51 -90 21 -124 q 117 -31 81 -57 q 213 24 158 -1 z "},"\"":{"ha":281,"x_min":19,"x_max":260,"o":"m 154 860 q 169 893 156 879 q 203 908 183 907 q 243 895 226 911 q 260 856 260 879 q 247 767 260 806 q 218 703 233 729 q 175 650 199 672 l 165 660 q 199 705 186 681 q 216 751 211 729 q 219 787 221 772 q 207 801 217 801 q 167 819 183 801 q 154 860 151 836 m 22 860 q 38 893 24 879 q 71 908 51 907 q 111 895 94 911 q 128 856 128 879 q 115 767 128 806 q 86 703 101 729 q 43 650 67 672 l 33 660 q 67 705 54 681 q 84 751 79 729 q 87 787 89 772 q 75 801 85 801 q 35 819 51 801 q 22 860 19 836 z "},"'":{"ha":150,"x_min":21,"x_max":129,"o":"m 22 860 q 39 893 25 879 q 72 908 53 907 q 113 895 96 911 q 129 856 129 879 q 116 767 129 806 q 88 703 103 729 q 44 650 68 672 l 33 660 q 67 705 54 681 q 85 751 81 729 q 88 787 90 772 q 76 801 86 801 q 37 819 53 801 q 22 860 21 836 z "},"®":{"ha":588,"x_min":21,"x_max":567,"o":"m 294 857 q 401 835 351 857 q 487 777 450 814 q 545 691 524 740 q 567 585 567 642 q 545 478 567 528 q 487 391 524 428 q 401 333 450 354 q 294 311 351 311 q 188 333 238 311 q 101 391 138 354 q 42 478 64 428 q 21 585 21 528 q 42 691 21 642 q 101 777 64 740 q 188 835 138 814 q 294 857 238 857 m 42 585 q 62 487 42 533 q 116 406 82 440 q 197 352 150 372 q 294 332 243 332 q 392 352 347 332 q 472 406 438 372 q 526 487 507 440 q 546 585 546 533 q 526 683 546 638 q 472 763 507 728 q 392 817 438 797 q 294 836 347 836 q 197 817 243 836 q 116 763 150 797 q 62 683 82 728 q 42 585 42 638 m 143 397 l 143 400 q 175 405 165 400 q 185 425 185 410 l 185 744 q 143 769 185 769 l 143 771 l 257 771 q 317 766 288 771 q 370 749 347 761 q 408 715 393 736 q 422 660 422 693 q 392 585 422 608 q 319 553 363 561 l 400 425 q 422 405 408 410 q 456 400 435 400 l 456 397 l 325 397 l 325 400 q 352 405 344 400 q 350 425 360 410 l 274 547 l 225 547 l 225 425 q 235 405 225 410 q 265 400 244 400 l 265 397 l 143 397 m 225 764 l 225 554 l 264 554 q 307 558 286 554 q 344 574 328 563 q 372 606 361 586 q 382 660 382 626 q 372 713 382 692 q 344 744 361 733 q 307 760 328 756 q 264 764 286 764 l 225 764 z "},"©":{"ha":744,"x_min":21,"x_max":724,"o":"m 372 850 q 510 822 446 850 q 621 747 574 794 q 696 636 668 700 q 724 499 724 572 q 696 363 724 426 q 620 251 668 299 q 508 176 572 203 q 372 149 444 149 q 236 176 300 149 q 124 251 172 204 q 49 363 76 299 q 21 499 21 426 q 49 636 21 572 q 124 747 76 700 q 235 822 171 794 q 372 850 300 850 m 42 499 q 68 371 42 431 q 139 266 94 311 q 244 195 183 221 q 372 169 304 169 q 501 195 440 169 q 606 266 561 221 q 676 371 650 311 q 703 499 703 431 q 676 627 703 567 q 606 732 650 688 q 501 803 561 776 q 372 829 440 829 q 244 803 304 829 q 139 732 183 776 q 68 627 94 688 q 42 499 42 567 m 119 496 q 138 606 119 557 q 188 690 156 656 q 262 744 219 725 q 354 764 304 764 q 418 756 392 764 q 462 740 444 749 q 490 724 479 731 q 507 718 501 717 q 511 739 514 721 q 508 756 511 746 l 515 758 l 561 622 l 551 618 q 507 685 533 656 q 449 729 483 708 q 367 750 415 750 q 228 684 279 750 q 176 496 176 618 q 193 383 176 431 q 238 305 210 336 q 301 258 265 274 q 375 243 338 243 q 464 262 428 243 q 522 303 500 281 q 563 363 547 329 l 571 360 q 526 294 554 324 q 463 250 503 271 q 365 229 424 229 q 269 249 314 229 q 192 303 225 268 q 139 387 158 338 q 119 496 119 436 z "},"™":{"ha":814,"x_min":21,"x_max":793,"o":"m 399 431 l 399 821 q 349 851 399 851 l 349 853 l 442 853 l 574 554 l 707 853 l 793 853 l 793 851 q 743 821 743 851 l 743 431 q 755 406 743 413 q 793 400 767 400 l 793 397 l 644 397 l 644 400 q 681 406 669 400 q 693 431 693 413 l 693 801 l 549 475 l 407 801 l 407 431 q 418 406 407 413 q 456 400 429 400 l 456 397 l 349 397 l 349 400 q 387 406 375 400 q 399 431 399 413 m 46 853 l 318 853 l 344 746 l 338 743 q 325 781 332 763 q 306 813 318 799 q 273 836 293 828 q 222 844 253 844 l 207 844 l 207 431 q 219 406 207 413 q 257 400 231 400 l 257 397 l 107 397 l 107 400 q 145 406 133 400 q 157 431 157 413 l 157 844 l 143 844 q 92 836 113 844 q 60 813 72 828 q 40 781 47 799 q 26 743 33 763 l 21 746 l 46 853 z "},"‘":{"ha":149,"x_min":21,"x_max":129,"o":"m 106 908 l 115 900 q 82 854 94 879 q 65 808 69 829 q 62 772 60 786 q 74 757 64 757 q 113 740 97 757 q 126 700 129 724 q 111 667 125 681 q 78 650 97 653 q 38 665 54 649 q 21 704 21 681 q 34 792 21 754 q 64 857 47 831 q 106 908 82 886 z "},"’":{"ha":150,"x_min":21,"x_max":129,"o":"m 22 860 q 38 893 24 879 q 72 908 53 907 q 113 895 96 911 q 129 856 129 879 q 116 767 129 806 q 88 703 103 729 q 44 650 68 672 l 33 660 q 67 705 54 681 q 84 751 79 729 q 87 787 89 772 q 75 801 85 801 q 36 819 51 801 q 22 860 21 836 z "},"‚":{"ha":150,"x_min":21,"x_max":129,"o":"m 22 61 q 38 94 24 81 q 72 111 53 108 q 113 97 96 113 q 129 57 129 81 q 116 -31 129 7 q 88 -96 103 -69 q 44 -147 68 -125 l 33 -137 q 67 -92 54 -117 q 84 -47 79 -68 q 87 -10 89 -25 q 75 4 85 4 q 36 21 51 4 q 22 61 21 38 z "},"“":{"ha":281,"x_min":21,"x_max":261,"o":"m 153 704 q 166 792 153 754 q 196 857 179 831 q 238 908 214 886 l 247 900 q 214 854 226 879 q 197 808 201 829 q 194 772 192 786 q 206 757 196 757 q 245 740 229 757 q 258 700 261 724 q 243 667 257 681 q 210 650 229 653 q 169 665 186 649 q 153 704 153 681 m 21 704 q 34 792 21 754 q 64 857 47 831 q 106 908 82 886 l 115 900 q 82 854 94 879 q 65 808 69 829 q 62 772 60 786 q 74 757 64 757 q 113 740 97 757 q 126 700 129 724 q 111 667 125 681 q 78 650 97 653 q 38 665 54 649 q 21 704 21 681 z "},"”":{"ha":282,"x_min":21,"x_max":261,"o":"m 22 860 q 39 893 25 879 q 72 908 53 907 q 113 895 96 911 q 129 856 129 879 q 116 767 129 806 q 88 703 103 729 q 44 650 68 672 l 33 660 q 67 705 54 681 q 85 751 81 729 q 88 787 90 772 q 76 801 86 801 q 37 819 53 801 q 22 860 21 836 m 154 860 q 171 893 157 879 q 204 908 185 907 q 244 895 228 911 q 261 856 261 879 q 248 767 261 806 q 219 703 235 729 q 176 650 200 672 l 165 660 q 199 705 186 681 q 217 751 213 729 q 220 787 222 772 q 208 801 218 801 q 169 819 185 801 q 154 860 153 836 z "},"„":{"ha":282,"x_min":21,"x_max":261,"o":"m 22 61 q 39 94 25 81 q 72 111 53 108 q 113 97 96 113 q 129 57 129 81 q 116 -31 129 7 q 88 -96 103 -69 q 44 -147 68 -125 l 33 -137 q 67 -92 54 -117 q 85 -47 81 -68 q 88 -10 90 -25 q 76 4 86 4 q 37 21 53 4 q 22 61 21 38 m 154 61 q 171 94 157 81 q 204 111 185 108 q 244 97 228 113 q 261 57 261 81 q 248 -31 261 7 q 219 -96 235 -69 q 176 -147 200 -125 l 165 -137 q 199 -92 186 -117 q 217 -47 213 -68 q 220 -10 222 -25 q 208 4 218 4 q 169 21 185 4 q 154 61 153 38 z "},".":{"ha":189,"x_min":42,"x_max":147,"o":"m 42 57 q 57 96 42 81 q 94 111 72 111 q 132 96 117 111 q 147 57 147 81 q 132 19 147 35 q 94 4 117 4 q 57 19 72 4 q 42 57 42 35 z "},",":{"ha":192,"x_min":42,"x_max":150,"o":"m 43 61 q 60 94 46 81 q 93 111 74 108 q 133 97 117 113 q 150 57 150 81 q 137 -31 150 7 q 108 -96 124 -69 q 65 -147 89 -125 l 56 -137 q 89 -92 76 -117 q 106 -47 101 -68 q 109 -10 111 -25 q 97 4 107 4 q 58 21 74 4 q 43 61 42 38 z "},":":{"ha":190,"x_min":42,"x_max":149,"o":"m 96 111 q 133 96 118 111 q 149 57 149 81 q 133 19 149 35 q 96 4 118 4 q 57 19 72 4 q 42 57 42 35 q 57 96 42 81 q 96 111 72 111 m 42 481 q 57 518 42 503 q 96 533 72 533 q 133 518 118 533 q 149 481 149 503 q 133 443 149 458 q 96 428 118 428 q 57 443 72 428 q 42 481 42 458 z "},";":{"ha":192,"x_min":42,"x_max":150,"o":"m 43 61 q 60 94 46 81 q 93 111 74 108 q 133 97 117 113 q 150 57 150 81 q 137 -31 150 7 q 108 -96 124 -69 q 65 -147 89 -125 l 56 -137 q 89 -92 76 -117 q 106 -47 101 -68 q 109 -10 111 -25 q 97 4 107 4 q 58 21 74 4 q 43 61 42 38 m 97 533 q 135 518 119 533 q 150 481 150 503 q 135 443 150 458 q 97 428 119 428 q 59 443 75 428 q 43 481 43 458 q 59 518 43 503 q 97 533 75 533 z "},"º":{"ha":522,"x_min":21,"x_max":501,"o":"m 21 628 q 38 720 21 676 q 85 797 54 764 q 161 850 117 831 q 261 869 206 869 q 361 850 317 869 q 437 797 406 831 q 485 720 468 764 q 501 628 501 676 q 485 537 501 581 q 437 460 468 493 q 361 406 406 426 q 261 386 317 386 q 161 406 206 386 q 85 460 117 426 q 38 537 54 493 q 21 628 21 581 m 71 628 q 122 458 71 521 q 261 394 172 394 q 401 458 350 394 q 451 628 451 521 q 401 798 451 735 q 261 861 350 861 q 122 798 172 861 q 71 628 71 735 z "},"ª":{"ha":465,"x_min":21,"x_max":444,"o":"m 21 400 q 60 406 44 400 q 82 431 75 413 l 232 869 l 383 431 q 407 406 390 413 q 444 400 424 400 l 444 397 l 289 397 l 289 400 q 325 406 315 400 q 329 431 335 413 l 283 561 l 138 561 l 92 431 q 96 406 86 413 q 132 400 106 400 l 132 397 l 21 397 l 21 400 m 140 569 l 281 569 l 210 774 l 140 569 z "},"°":{"ha":278,"x_min":21,"x_max":257,"o":"m 21 808 q 56 892 21 857 q 139 926 90 926 q 222 892 188 926 q 257 808 257 857 q 222 725 257 760 q 139 690 188 690 q 56 725 90 690 q 21 808 21 760 m 139 725 q 198 749 174 725 q 222 808 222 774 q 198 867 222 843 q 139 892 174 892 q 80 867 104 892 q 56 808 56 843 q 80 749 56 774 q 139 725 104 725 z "},"§":{"ha":475,"x_min":21,"x_max":454,"o":"m 21 -46 l 21 160 l 32 161 q 94 -51 46 24 q 238 -125 143 -125 q 316 -90 283 -125 q 349 17 349 -54 q 326 105 349 68 q 271 170 304 142 q 199 224 238 199 q 126 276 160 249 q 71 339 93 304 q 49 422 49 374 q 62 473 49 450 q 97 512 75 496 q 147 536 118 528 q 210 544 176 544 q 224 544 217 544 q 238 543 231 544 q 181 583 208 563 q 131 626 153 603 q 96 679 110 650 q 82 746 82 708 q 95 797 82 774 q 131 835 108 819 q 182 858 153 850 q 244 867 211 867 q 302 862 275 867 q 350 850 329 857 q 396 833 375 843 l 422 700 l 411 696 q 371 776 394 740 q 321 831 351 806 q 250 856 290 856 q 180 833 206 856 q 154 769 154 810 q 176 695 154 726 q 232 637 199 664 q 304 584 265 610 q 376 527 343 558 q 432 454 410 496 q 454 356 454 413 q 422 259 454 299 q 346 200 390 219 q 399 128 378 168 q 421 32 421 89 q 405 -38 421 -7 q 363 -92 389 -69 q 304 -126 336 -114 q 239 -137 272 -137 q 151 -124 190 -137 q 82 -92 111 -110 q 21 -46 49 -71 m 119 446 q 140 374 119 404 q 192 319 161 344 q 260 269 224 293 q 331 215 297 244 q 368 263 354 232 q 382 340 382 294 q 351 442 382 401 q 276 515 321 483 q 247 527 263 522 q 215 532 232 532 q 145 509 171 532 q 119 446 119 486 z "},"µ":{"ha":1017,"x_min":21,"x_max":996,"o":"m 21 -301 l 21 -297 q 63 -276 44 -292 q 91 -238 78 -262 q 104 -174 104 -214 l 104 689 q 85 729 104 718 q 22 740 65 740 l 22 744 l 271 744 l 271 740 q 207 729 226 740 q 188 689 188 718 l 188 308 q 258 88 188 160 q 442 15 328 15 q 542 36 496 15 q 621 94 588 57 q 673 186 654 132 q 692 307 692 240 l 692 689 q 672 729 692 718 q 608 740 653 740 l 608 744 l 858 744 l 858 740 q 794 729 814 740 q 775 689 775 718 l 775 308 q 835 93 775 169 q 996 7 896 17 l 992 -12 q 797 50 875 -12 q 699 228 718 113 q 601 50 679 113 q 406 -12 522 -12 q 188 71 269 -12 l 188 -160 q 174 -227 188 -200 q 138 -271 161 -254 q 85 -294 115 -287 q 21 -301 56 -301 z "},"\\":{"ha":274,"x_min":21,"x_max":253,"o":"m 49 853 l 253 1 l 225 1 l 21 853 l 49 853 z "},"/":{"ha":443,"x_min":21,"x_max":422,"o":"m 394 853 l 422 853 l 47 1 l 21 1 l 394 853 z "},"[":{"ha":182,"x_min":21,"x_max":161,"o":"m 161 853 l 161 839 l 81 839 l 81 -26 l 161 -26 l 161 -40 l 21 -40 l 21 853 l 161 853 z "},"]":{"ha":182,"x_min":21,"x_max":161,"o":"m 21 839 l 21 853 l 161 853 l 161 -40 l 21 -40 l 21 -26 l 101 -26 l 101 839 l 21 839 z "},"{":{"ha":263,"x_min":21,"x_max":242,"o":"m 101 501 l 101 738 q 135 819 101 786 q 217 853 168 853 l 242 853 l 242 839 l 221 839 q 178 822 196 839 q 161 781 161 804 l 161 540 q 134 457 161 493 q 64 407 107 421 q 134 356 107 392 q 161 272 161 319 l 161 33 q 178 -9 161 8 q 221 -26 196 -26 l 242 -26 l 242 -40 l 217 -40 q 135 -7 168 -40 q 101 75 101 26 l 101 313 q 78 369 101 346 q 21 393 54 393 l 21 421 q 78 444 54 421 q 101 501 101 468 z "},"}":{"ha":264,"x_min":21,"x_max":243,"o":"m 21 -40 l 21 -26 l 42 -26 q 84 -9 67 -26 q 101 33 101 8 l 101 272 q 128 356 101 319 q 199 407 156 392 q 128 457 156 421 q 101 540 101 493 l 101 781 q 84 822 101 804 q 42 839 67 839 l 21 839 l 21 853 l 46 853 q 128 819 94 853 q 163 738 163 786 l 163 501 q 186 444 163 468 q 243 421 210 421 l 243 393 q 186 369 210 393 q 163 313 163 346 l 163 75 q 128 -7 163 26 q 46 -40 94 -40 l 21 -40 z "},"+":{"ha":489,"x_min":21,"x_max":468,"o":"m 214 481 l 214 675 l 275 675 l 275 481 l 468 481 l 468 421 l 275 421 l 275 226 l 214 226 l 214 421 l 21 421 l 21 481 l 214 481 z "},"<":{"ha":382,"x_min":21,"x_max":361,"o":"m 21 403 l 21 465 l 361 682 l 361 619 l 69 435 l 361 249 l 361 186 l 21 403 z "},">":{"ha":382,"x_min":21,"x_max":361,"o":"m 313 435 l 21 619 l 21 682 l 361 465 l 361 403 l 21 186 l 21 249 l 313 435 z "},"»":{"ha":572,"x_min":21,"x_max":551,"o":"m 453 403 l 211 603 l 310 603 l 551 403 l 310 204 l 211 204 l 453 403 m 21 204 l 263 403 l 21 603 l 119 603 l 361 403 l 119 204 l 21 204 z "},"«":{"ha":572,"x_min":21,"x_max":551,"o":"m 264 603 l 361 603 l 119 403 l 361 204 l 264 204 l 21 403 l 264 603 m 213 403 l 454 603 l 551 603 l 310 403 l 551 204 l 454 204 l 213 403 z "},"‹":{"ha":382,"x_min":21,"x_max":361,"o":"m 361 603 l 119 403 l 361 204 l 263 204 l 21 403 l 263 603 l 361 603 z "},"›":{"ha":381,"x_min":21,"x_max":360,"o":"m 118 603 l 360 403 l 118 204 l 21 204 l 263 403 l 21 603 l 118 603 z "},"?":{"ha":475,"x_min":21,"x_max":454,"o":"m 21 738 q 78 803 44 774 q 147 847 106 826 q 246 867 189 867 q 328 857 290 867 q 394 826 365 847 q 438 769 422 804 q 454 685 454 735 q 434 593 454 633 q 384 519 414 553 q 318 456 354 486 q 251 392 282 425 q 197 318 219 358 q 169 225 174 278 q 163 211 169 217 q 149 206 157 206 q 133 212 139 206 q 128 228 126 218 q 149 337 131 292 q 194 417 168 382 q 250 483 221 453 q 305 545 279 513 q 347 616 331 578 q 364 707 364 654 q 331 817 364 782 q 240 853 297 853 q 151 818 186 853 q 96 740 115 783 q 60 628 72 690 l 21 738 m 150 104 q 191 87 174 104 q 208 46 208 69 q 191 5 208 22 q 150 -12 174 -12 q 109 5 126 -12 q 92 46 92 22 q 109 87 92 69 q 150 104 126 104 z "},"·":{"ha":189,"x_min":21,"x_max":168,"o":"m 21 540 q 42 592 21 571 q 94 614 63 614 q 147 592 125 614 q 168 540 168 571 q 147 488 168 508 q 94 467 125 467 q 42 488 63 467 q 21 540 21 508 z "},"•":{"ha":342,"x_min":21,"x_max":321,"o":"m 21 540 q 33 598 21 571 q 65 646 44 625 q 112 678 85 667 q 171 690 139 690 q 228 678 201 690 q 276 646 256 667 q 309 598 297 625 q 321 540 321 571 q 309 481 321 508 q 276 434 297 454 q 228 402 256 414 q 171 390 201 390 q 64 433 107 390 q 21 540 21 476 z "},"ß":{"ha":650,"x_min":14,"x_max":636,"o":"m 14 6 q 77 17 57 6 q 97 56 97 28 l 97 608 q 113 707 97 663 q 153 784 128 751 q 215 835 179 817 q 290 853 250 853 q 504 711 504 853 q 478 635 504 668 q 423 574 453 601 q 367 524 393 547 q 342 479 342 501 q 363 446 342 463 q 418 412 385 429 q 489 374 451 394 q 560 326 526 353 q 615 265 593 299 q 636 186 636 231 q 607 98 636 133 q 530 41 578 63 q 422 10 482 19 q 299 1 361 1 l 263 1 l 263 15 l 314 15 q 394 24 351 15 q 472 51 436 32 q 530 100 507 69 q 553 175 553 131 q 534 264 553 228 q 485 327 515 300 q 417 376 456 354 q 339 419 379 397 q 301 471 300 442 q 338 535 301 500 q 369 568 354 551 q 396 604 385 585 q 414 648 407 624 q 421 704 421 672 q 388 805 421 771 q 303 839 354 839 q 216 797 251 839 q 181 690 181 756 l 181 1 l 14 1 l 14 6 z "},"æ":{"ha":839,"x_min":0,"x_max":825,"o":"m 0 4 q 59 14 33 4 q 100 49 85 24 l 475 658 l 765 658 l 801 503 l 793 499 q 774 553 785 526 q 743 600 763 579 q 692 633 724 621 q 610 646 660 646 l 532 646 l 532 397 l 629 397 q 664 415 654 397 q 674 469 674 432 l 682 469 l 682 314 l 674 314 q 664 369 674 351 q 629 386 654 386 l 532 386 l 532 14 l 633 14 q 715 26 683 14 q 767 59 747 39 q 797 106 786 79 q 817 160 808 132 l 825 157 l 789 1 l 389 1 l 389 4 q 443 14 426 4 q 460 49 460 24 l 460 236 l 235 236 l 119 49 q 115 14 104 24 q 164 4 126 4 l 164 1 l 0 1 l 0 4 m 243 247 l 460 247 l 460 601 l 243 247 z "},"Æ":{"ha":997,"x_min":0,"x_max":983,"o":"m 0 6 q 67 17 39 6 q 111 56 96 28 l 531 853 l 913 853 l 956 674 l 944 669 q 922 732 935 701 q 888 786 910 763 q 828 824 865 810 q 733 839 792 839 l 596 839 l 596 553 l 756 553 q 796 572 785 553 q 807 635 807 592 l 818 635 l 818 456 l 807 456 q 796 519 807 499 q 756 539 785 539 l 596 539 l 596 15 l 761 15 q 856 30 819 15 q 915 68 893 44 q 950 122 938 92 q 972 185 963 153 l 983 181 l 940 1 l 431 1 l 431 6 q 493 17 474 6 q 513 56 513 28 l 513 322 l 269 322 l 129 56 q 128 17 114 28 q 185 6 142 6 l 185 1 l 0 1 l 0 6 m 276 336 l 513 336 l 513 786 l 276 336 z "},"Ø":{"ha":879,"x_min":14,"x_max":865,"o":"m 439 867 q 572 849 510 867 q 685 796 633 831 l 725 853 l 753 853 l 703 783 q 822 635 778 725 q 865 428 865 546 q 833 246 865 328 q 743 107 800 164 q 608 19 686 50 q 439 -12 531 -12 q 308 6 369 -12 q 194 58 246 24 l 154 1 l 126 1 l 176 72 q 58 219 101 129 q 14 428 14 310 q 47 609 14 528 q 136 747 79 690 q 271 835 193 804 q 439 867 349 867 m 439 1 q 575 28 513 1 q 683 110 638 56 q 756 244 729 164 q 782 428 782 324 q 755 615 782 535 q 679 749 728 696 l 215 89 q 317 23 260 44 q 439 1 374 1 m 200 106 l 664 765 q 563 831 619 810 q 439 853 506 853 q 304 826 367 853 q 196 744 242 799 q 124 611 150 690 q 97 428 97 532 q 124 240 97 319 q 200 106 151 160 z "},"Þ":{"ha":554,"x_min":14,"x_max":540,"o":"m 14 6 q 76 17 57 6 q 96 56 96 28 l 96 799 q 76 839 96 828 q 14 850 57 850 l 14 853 l 263 853 l 263 850 q 199 839 219 850 q 179 799 179 828 l 179 696 l 201 696 q 325 682 264 696 q 434 638 386 668 q 511 560 482 608 q 540 440 540 511 q 511 320 540 369 q 434 241 482 271 q 325 197 386 211 q 201 183 264 183 l 179 183 l 179 56 q 199 17 179 28 q 263 6 219 6 l 263 1 l 14 1 l 14 6 m 179 682 l 179 197 l 217 197 q 297 207 254 197 q 374 243 339 217 q 433 317 410 269 q 457 440 457 365 q 433 563 457 515 q 374 636 410 610 q 297 672 339 663 q 217 682 254 682 l 179 682 z "},"ø":{"ha":710,"x_min":14,"x_max":696,"o":"m 356 672 q 480 651 424 672 q 579 593 536 629 l 640 660 l 668 660 l 594 579 q 669 467 643 531 q 696 331 696 403 q 672 201 696 263 q 604 92 649 139 q 497 17 560 44 q 356 -11 435 -11 q 230 10 286 -11 q 131 68 174 32 l 69 1 l 42 1 l 115 82 q 40 194 67 131 q 14 331 14 258 q 38 460 14 399 q 106 569 61 522 q 213 644 150 617 q 356 672 276 672 m 356 1 q 468 25 418 1 q 552 91 518 49 q 605 194 586 133 q 624 331 624 256 q 567 550 624 465 l 154 94 q 240 26 190 50 q 356 1 290 1 m 86 331 q 101 209 86 264 q 143 113 115 154 l 556 567 q 470 635 521 611 q 356 660 419 660 q 243 636 293 660 q 158 570 193 613 q 105 467 124 528 q 86 331 86 406 z "},"Œ":{"ha":1029,"x_min":14,"x_max":1015,"o":"m 439 867 q 554 853 503 867 l 946 853 l 988 674 l 978 669 q 956 732 968 701 q 920 786 943 763 q 861 824 897 810 q 767 839 825 839 l 628 839 l 628 553 l 788 553 q 828 572 817 553 q 839 635 839 592 l 850 635 l 850 456 l 839 456 q 828 519 839 499 q 788 539 817 539 l 628 539 l 628 15 l 793 15 q 888 30 851 15 q 947 68 925 44 q 982 122 969 92 q 1004 185 994 153 l 1015 181 l 972 1 l 554 1 q 439 -12 503 -12 q 269 19 347 -12 q 135 107 192 50 q 46 246 78 164 q 14 428 14 328 q 46 609 14 528 q 135 747 78 690 q 269 835 192 804 q 439 867 347 867 m 97 428 q 124 244 97 324 q 196 110 150 164 q 304 28 242 56 q 439 1 367 1 q 544 18 497 1 l 544 838 q 439 853 494 853 q 304 826 367 853 q 196 744 242 799 q 124 611 150 690 q 97 428 97 532 z "},"œ":{"ha":826,"x_min":14,"x_max":813,"o":"m 354 672 q 408 669 382 672 q 458 658 435 665 l 751 658 l 789 503 l 779 499 q 760 553 771 526 q 729 600 749 579 q 678 633 710 621 q 596 646 646 646 l 519 646 l 519 397 l 615 397 q 650 415 640 397 q 660 469 660 432 l 669 469 l 669 314 l 660 314 q 650 369 660 351 q 615 386 640 386 l 519 386 l 519 14 l 619 14 q 701 26 669 14 q 753 59 733 39 q 783 106 772 79 q 803 160 794 132 l 813 157 l 775 1 l 450 1 q 354 -11 407 -11 q 213 17 275 -11 q 106 92 150 44 q 38 201 61 139 q 14 331 14 263 q 38 460 14 399 q 106 569 61 522 q 213 644 150 617 q 354 672 275 672 m 86 331 q 105 194 86 256 q 158 91 124 133 q 242 25 192 49 q 354 1 292 1 q 447 17 404 1 l 447 646 q 354 660 407 660 q 242 636 292 660 q 158 570 192 613 q 105 467 124 528 q 86 331 86 406 z "},"þ":{"ha":476,"x_min":14,"x_max":463,"o":"m 14 4 q 67 14 50 4 q 85 49 85 24 l 85 611 q 67 645 85 636 q 14 654 50 654 l 14 658 l 229 658 l 229 654 q 174 645 192 654 q 157 611 157 636 l 157 553 l 169 553 q 276 544 224 553 q 370 515 329 536 q 437 455 411 493 q 463 357 463 417 q 437 259 463 297 q 370 199 411 221 q 276 168 329 176 q 169 160 224 160 l 157 160 l 157 49 q 174 14 157 24 q 229 4 192 4 l 229 1 l 14 1 l 14 4 m 157 542 l 157 172 l 183 172 q 259 180 222 172 q 325 208 296 188 q 372 264 354 228 q 390 357 390 300 q 372 450 390 414 q 325 506 354 486 q 259 534 296 526 q 183 542 222 542 l 157 542 z "},"Ŋ":{"ha":601,"x_min":14,"x_max":588,"o":"m 14 850 l 14 853 l 186 853 l 492 231 l 492 799 q 472 839 492 828 q 408 850 453 850 l 408 853 l 588 853 l 588 850 q 525 839 544 850 q 506 799 506 828 l 506 -75 q 496 -143 506 -111 q 467 -199 486 -175 q 423 -235 449 -222 q 365 -249 397 -249 q 294 -235 324 -249 q 244 -200 264 -222 q 214 -149 224 -178 q 204 -86 204 -119 q 224 -31 204 -50 q 267 -12 243 -12 q 308 -26 293 -12 q 325 -64 324 -40 q 319 -98 326 -85 q 303 -122 313 -111 q 286 -140 294 -132 q 275 -157 278 -147 q 294 -211 268 -187 q 365 -235 321 -235 q 455 -192 418 -235 q 492 -54 492 -150 l 492 15 l 111 792 l 111 56 q 131 17 111 28 q 193 6 150 6 l 193 1 l 14 1 l 14 6 q 77 17 57 6 q 97 56 97 28 l 97 799 q 77 839 97 828 q 14 850 57 850 z "},"ŋ":{"ha":524,"x_min":14,"x_max":510,"o":"m 14 654 l 14 658 l 157 658 l 426 175 l 426 611 q 409 645 426 636 q 356 654 392 654 l 356 658 l 510 658 l 510 654 q 456 645 472 654 q 439 611 439 636 l 439 -36 q 426 -116 439 -85 q 396 -165 414 -147 q 357 -190 378 -183 q 319 -196 336 -196 q 257 -185 283 -196 q 213 -154 231 -174 q 188 -109 196 -135 q 179 -56 179 -83 q 195 -8 179 -24 q 232 8 211 8 q 268 -4 256 8 q 282 -36 281 -17 q 278 -66 283 -54 q 265 -86 272 -78 q 249 -101 257 -94 q 239 -117 242 -108 q 254 -163 232 -143 q 315 -183 276 -183 q 396 -149 365 -183 q 426 -31 426 -114 l 426 11 l 97 601 l 97 49 q 114 14 97 24 q 168 4 131 4 l 168 1 l 14 1 l 14 4 q 67 14 50 4 q 85 49 85 24 l 85 611 q 67 645 85 636 q 14 654 50 654 z "},"Ģ":{"ha":840,"x_min":14,"x_max":826,"o":"m 14 428 q 44 604 14 524 q 129 743 75 685 q 259 834 183 801 q 425 867 335 867 q 517 856 479 867 q 582 833 556 846 q 625 813 608 821 q 651 808 642 804 q 659 821 658 811 q 658 842 660 831 q 651 871 656 856 l 663 875 l 729 674 l 717 668 q 656 757 693 718 q 571 818 624 790 q 439 846 518 846 q 304 817 367 846 q 196 733 242 788 q 124 601 150 679 q 97 428 97 524 q 124 254 97 332 q 196 122 150 176 q 304 38 242 67 q 439 8 367 8 q 571 35 517 8 q 660 96 625 63 l 660 386 q 656 411 660 400 q 637 431 651 422 q 593 443 622 439 q 515 447 564 447 l 515 451 l 826 451 l 826 447 q 763 437 783 447 q 743 397 743 426 l 743 1 l 733 1 q 713 54 726 42 q 681 67 699 67 q 641 54 663 67 q 590 27 619 42 q 519 0 560 13 q 425 -12 479 -12 q 259 20 335 -12 q 129 112 183 53 q 44 251 75 171 q 14 428 14 332 m 386 -129 q 402 -95 388 -110 q 436 -79 417 -81 q 476 -92 460 -76 q 493 -132 493 -108 q 480 -220 493 -182 q 451 -285 467 -258 q 408 -337 432 -315 l 397 -328 q 431 -283 418 -307 q 449 -237 443 -258 q 451 -201 454 -215 q 439 -186 449 -186 q 400 -169 415 -186 q 386 -129 385 -153 z "},"Ķ":{"ha":681,"x_min":14,"x_max":681,"o":"m 14 1 l 14 6 q 76 17 57 6 q 96 57 96 28 l 96 799 q 76 839 96 828 q 14 850 57 850 l 14 853 l 263 853 l 263 850 q 199 839 219 850 q 179 799 179 828 l 179 494 l 457 799 q 474 839 483 828 q 421 850 464 850 l 421 853 l 608 853 l 608 850 q 537 839 569 850 q 478 799 504 828 l 301 606 l 572 57 q 612 17 588 28 q 681 6 636 6 l 681 1 l 414 1 l 414 6 q 471 17 454 6 q 472 57 488 28 l 238 535 l 179 471 l 179 57 q 199 17 179 28 q 263 6 219 6 l 263 1 l 14 1 m 263 -129 q 278 -95 264 -110 q 313 -79 293 -81 q 353 -92 336 -76 q 369 -132 369 -108 q 356 -220 369 -182 q 328 -285 343 -258 q 285 -337 308 -315 l 274 -328 q 307 -283 294 -307 q 324 -237 319 -258 q 327 -201 329 -215 q 315 -186 325 -186 q 276 -169 292 -186 q 263 -129 261 -153 z "},"Ļ":{"ha":581,"x_min":14,"x_max":567,"o":"m 14 1 l 14 6 q 76 17 57 6 q 96 57 96 28 l 96 799 q 76 839 96 828 q 14 850 57 850 l 14 853 l 263 853 l 263 850 q 199 839 218 850 q 179 799 179 828 l 179 15 l 344 15 q 440 30 403 15 q 499 68 476 44 q 533 122 521 92 q 556 185 546 153 l 567 181 l 524 1 l 14 1 m 238 -129 q 253 -95 239 -110 q 286 -79 267 -81 q 326 -92 310 -76 q 343 -132 343 -108 q 330 -220 343 -182 q 301 -285 317 -258 q 258 -337 282 -315 l 249 -328 q 282 -283 269 -307 q 299 -237 294 -258 q 302 -201 304 -215 q 290 -186 300 -186 q 251 -169 267 -186 q 238 -129 235 -153 z "},"Ņ":{"ha":601,"x_min":14,"x_max":588,"o":"m 186 853 l 490 231 l 490 799 q 471 839 490 828 q 408 850 451 850 l 408 853 l 588 853 l 588 850 q 524 839 544 850 q 504 799 504 828 l 504 -12 l 110 792 l 110 57 q 129 17 110 28 q 193 6 149 6 l 193 1 l 14 1 l 14 6 q 76 17 57 6 q 96 57 96 28 l 96 799 q 76 839 96 828 q 14 850 57 850 l 14 853 l 186 853 m 247 -129 q 263 -95 249 -110 q 297 -79 278 -81 q 338 -92 321 -76 q 354 -132 354 -108 q 341 -220 354 -182 q 313 -285 328 -258 q 269 -337 293 -315 l 258 -328 q 292 -283 279 -307 q 310 -237 304 -258 q 313 -201 315 -215 q 300 -186 310 -186 q 261 -169 276 -186 q 247 -129 246 -153 z "},"Ț":{"ha":635,"x_min":0,"x_max":635,"o":"m 42 853 l 593 853 l 635 674 l 625 669 q 603 732 615 701 q 568 786 590 763 q 509 824 546 810 q 414 839 472 839 l 358 839 l 358 57 q 378 17 358 28 q 442 6 399 6 l 442 1 l 329 1 l 313 -76 q 444 -108 408 -79 q 467 -169 481 -136 q 394 -228 454 -201 q 235 -256 333 -256 l 238 -236 q 341 -215 304 -236 q 384 -168 378 -193 q 365 -122 390 -143 q 286 -100 340 -100 l 301 1 l 193 1 l 193 6 q 256 17 236 6 q 275 57 275 28 l 275 839 l 221 839 q 126 824 163 839 q 67 786 89 810 q 32 732 44 763 q 10 669 19 701 l 0 674 l 42 853 z "},"Ţ":{"ha":635,"x_min":0,"x_max":635,"o":"m 42 853 l 593 853 l 635 674 l 625 669 q 603 732 615 701 q 568 786 590 763 q 509 824 546 810 q 414 839 472 839 l 360 839 l 360 57 q 379 17 360 28 q 442 6 399 6 l 442 1 l 193 1 l 193 6 q 256 17 236 6 q 276 57 276 28 l 276 839 l 221 839 q 126 824 163 839 q 67 786 90 810 q 33 732 44 763 q 10 669 21 701 l 0 674 l 42 853 m 264 -129 q 281 -95 267 -110 q 314 -79 294 -81 q 354 -92 338 -76 q 371 -132 371 -108 q 358 -220 371 -182 q 329 -285 344 -258 q 286 -337 310 -315 l 275 -328 q 309 -283 296 -307 q 327 -237 322 -258 q 330 -201 332 -215 q 318 -186 328 -186 q 278 -169 294 -186 q 264 -129 263 -153 z "},"Ŗ":{"ha":697,"x_min":14,"x_max":697,"o":"m 264 853 q 384 842 326 853 q 485 804 442 831 q 556 734 529 778 q 582 625 582 690 q 565 535 582 574 q 519 471 549 497 q 449 428 489 444 q 364 406 410 413 l 582 57 q 628 17 601 28 q 697 6 654 6 l 697 1 l 432 1 l 432 6 q 487 17 472 6 q 482 57 501 28 l 268 397 l 179 397 l 179 56 q 199 17 179 28 q 263 6 218 6 l 263 1 l 14 1 l 14 6 q 76 17 57 6 q 96 57 96 28 l 96 799 q 76 839 96 828 q 14 850 57 850 l 14 853 l 264 853 m 179 411 l 258 411 q 338 417 296 411 q 416 443 381 422 q 475 507 451 464 q 499 625 499 550 q 475 743 499 700 q 416 808 451 786 q 338 834 381 829 q 258 839 296 839 l 179 839 l 179 411 m 264 -129 q 279 -95 265 -110 q 313 -79 293 -81 q 353 -92 336 -76 q 369 -132 369 -108 q 356 -220 369 -182 q 328 -285 343 -258 q 285 -337 308 -315 l 275 -328 q 308 -283 296 -307 q 326 -237 321 -258 q 328 -201 331 -215 q 317 -186 326 -186 q 277 -169 293 -186 q 264 -129 261 -153 z "},"ģ":{"ha":675,"x_min":14,"x_max":661,"o":"m 14 331 q 38 471 14 408 q 101 578 61 533 q 197 648 142 624 q 315 672 251 672 q 396 663 363 672 q 452 641 429 653 q 489 621 475 629 q 510 615 503 613 q 516 625 515 618 q 515 640 517 632 q 511 661 514 650 l 519 665 l 578 492 l 567 486 q 508 571 543 533 q 435 628 479 603 q 331 654 392 654 q 153 570 219 654 q 86 331 86 486 q 108 187 86 247 q 165 87 129 126 q 246 28 200 47 q 340 8 292 8 q 445 31 401 8 q 518 81 489 53 l 518 318 q 515 341 518 331 q 498 358 511 351 q 460 369 485 365 q 393 372 435 372 l 393 376 l 661 376 l 661 372 q 608 363 625 372 q 590 328 590 354 l 590 1 l 581 1 q 563 47 575 35 q 536 58 551 58 q 504 47 521 58 q 464 24 488 36 q 408 0 440 11 q 329 -11 376 -11 q 206 13 264 -11 q 106 83 149 38 q 39 191 64 128 q 14 331 14 254 m 288 -129 q 303 -95 289 -110 q 338 -79 318 -81 q 378 -92 361 -76 q 394 -132 394 -108 q 381 -220 394 -182 q 353 -285 368 -258 q 310 -337 333 -315 l 299 -328 q 333 -283 319 -307 q 351 -237 346 -258 q 353 -201 356 -215 q 340 -186 350 -186 q 301 -169 317 -186 q 288 -129 286 -153 z "},"ķ":{"ha":549,"x_min":14,"x_max":549,"o":"m 14 4 q 68 14 51 4 q 85 49 85 24 l 85 611 q 68 645 85 636 q 14 654 51 654 l 14 658 l 229 658 l 229 654 q 174 645 192 654 q 157 611 157 636 l 157 343 l 364 611 q 374 645 383 636 q 328 654 364 654 l 326 654 l 326 658 l 486 658 l 486 654 q 426 645 454 654 q 379 611 399 636 l 257 451 l 456 49 q 490 14 468 24 q 549 4 511 4 l 549 1 l 319 1 l 319 4 q 367 14 354 4 q 368 49 381 24 l 204 383 l 157 324 l 157 49 q 174 14 157 24 q 229 4 192 4 l 229 1 l 14 1 l 14 4 m 211 -129 q 227 -95 213 -110 q 261 -79 242 -81 q 301 -92 285 -76 q 318 -132 318 -108 q 305 -220 318 -182 q 276 -285 292 -258 q 233 -337 257 -315 l 222 -328 q 256 -283 243 -307 q 274 -237 269 -258 q 276 -201 279 -215 q 264 -186 274 -186 q 225 -169 240 -186 q 211 -129 210 -153 z "},"ļ":{"ha":465,"x_min":14,"x_max":451,"o":"m 14 1 l 14 4 q 69 14 51 4 q 86 49 86 24 l 86 611 q 69 645 86 636 q 14 654 51 654 l 14 658 l 229 658 l 229 654 q 175 645 192 654 q 158 611 158 636 l 158 14 l 258 14 q 340 26 308 14 q 392 59 372 39 q 422 106 411 79 q 442 160 433 132 l 451 157 l 414 1 l 14 1 m 206 -129 q 222 -95 207 -110 q 256 -79 236 -81 q 296 -92 279 -76 q 313 -132 313 -108 q 299 -220 313 -182 q 271 -285 286 -258 q 228 -337 251 -315 l 217 -328 q 251 -283 238 -307 q 269 -237 264 -258 q 271 -201 274 -215 q 258 -186 268 -186 q 219 -169 235 -186 q 206 -129 204 -153 z "},"ņ":{"ha":525,"x_min":14,"x_max":511,"o":"m 157 658 l 428 175 l 428 611 q 410 645 428 636 q 356 654 393 654 l 356 658 l 511 658 l 511 654 q 456 645 474 654 q 439 611 439 636 l 439 -11 l 97 601 l 97 49 q 115 14 97 24 q 169 4 132 4 l 169 1 l 14 1 l 14 4 q 69 14 51 4 q 86 49 86 24 l 86 611 q 69 645 86 636 q 14 654 51 654 l 14 658 l 157 658 m 211 -129 q 227 -95 213 -110 q 261 -79 242 -81 q 301 -92 285 -76 q 318 -132 318 -108 q 305 -220 318 -182 q 276 -285 292 -258 q 233 -337 257 -315 l 222 -328 q 256 -283 243 -307 q 274 -237 269 -258 q 276 -201 279 -215 q 264 -186 274 -186 q 225 -169 240 -186 q 211 -129 210 -153 z "},"ŗ":{"ha":564,"x_min":14,"x_max":564,"o":"m 14 1 l 14 4 q 68 14 51 4 q 85 49 85 24 l 85 611 q 68 645 85 636 q 14 654 51 654 l 14 658 l 213 658 q 319 650 267 658 q 413 619 371 642 q 479 559 454 597 q 504 461 504 521 q 490 385 504 418 q 451 331 476 353 q 393 294 426 308 q 322 274 360 281 l 464 49 q 503 14 479 24 q 564 4 526 4 l 564 1 l 333 1 l 333 4 q 381 14 369 4 q 378 49 393 24 l 242 265 l 157 265 l 157 49 q 174 14 157 24 q 229 4 192 4 l 229 1 l 14 1 m 157 276 l 226 276 q 301 284 264 276 q 368 312 339 292 q 415 368 397 332 q 433 461 433 404 q 415 554 433 518 q 368 610 397 590 q 301 638 339 631 q 226 646 264 646 l 157 646 l 157 276 m 236 -129 q 253 -95 239 -110 q 286 -79 267 -81 q 326 -92 310 -76 q 343 -132 343 -108 q 330 -220 343 -182 q 301 -285 317 -258 q 258 -337 282 -315 l 247 -328 q 281 -283 268 -307 q 299 -237 294 -258 q 302 -201 304 -215 q 290 -186 300 -186 q 251 -169 267 -186 q 236 -129 235 -153 z "},"ţ":{"ha":467,"x_min":0,"x_max":467,"o":"m 38 658 l 431 658 l 467 503 l 458 499 q 439 553 450 526 q 410 600 428 579 q 364 633 392 621 q 292 646 336 646 l 269 646 l 269 49 q 287 14 269 24 q 342 4 304 4 l 342 1 l 126 1 l 126 4 q 181 14 164 4 q 197 49 197 24 l 197 646 l 176 646 q 103 633 132 646 q 58 600 75 621 q 29 553 40 579 q 10 499 18 526 l 0 503 l 38 658 m 181 -129 q 197 -95 182 -110 q 231 -79 211 -81 q 271 -92 254 -76 q 288 -132 288 -108 q 274 -220 288 -182 q 246 -285 261 -258 q 203 -337 226 -315 l 192 -328 q 226 -283 213 -307 q 244 -237 239 -258 q 246 -201 249 -215 q 233 -186 243 -186 q 194 -169 210 -186 q 181 -129 179 -153 z "},"ț":{"ha":467,"x_min":0,"x_max":467,"o":"m 36 658 l 429 658 l 467 503 l 457 499 q 438 553 449 526 q 409 600 426 579 q 363 633 392 621 q 290 646 335 646 l 269 646 l 269 49 q 286 14 269 24 q 340 4 303 4 l 340 1 l 244 1 l 229 -76 q 360 -108 324 -79 q 383 -169 397 -136 q 309 -228 369 -201 q 150 -256 249 -256 l 154 -236 q 258 -215 221 -236 q 301 -168 294 -193 q 282 -122 307 -143 q 203 -100 257 -100 l 218 1 l 125 1 l 125 4 q 180 14 163 4 q 197 49 197 24 l 197 646 l 175 646 q 103 633 132 646 q 57 600 75 621 q 28 553 39 579 q 8 499 17 526 l 0 503 l 36 658 z "},"":{"ha":713,"x_min":14,"x_max":699,"o":"m 14 1 l 14 6 q 76 16 57 6 q 96 56 96 26 l 96 424 q 122 617 96 536 q 195 751 149 699 q 307 828 242 803 q 450 853 372 853 l 699 853 l 699 850 q 636 839 656 850 q 617 799 617 828 l 617 56 q 636 16 617 26 q 699 6 656 6 l 699 1 l 450 1 l 450 6 q 513 16 493 6 q 533 56 533 26 l 533 433 l 179 433 l 179 56 q 199 16 179 26 q 263 6 219 6 l 263 1 l 14 1 m 179 447 l 533 447 l 533 799 q 513 833 533 828 q 450 839 493 839 q 359 826 407 839 q 272 776 311 814 q 206 667 232 738 q 179 483 179 597 l 179 447 z "},"":{"ha":319,"x_min":-146,"x_max":306,"o":"m 6 -189 q 110 -135 81 -186 q 139 8 139 -83 l 139 788 q 133 814 139 803 q 112 833 126 825 q 72 846 97 842 q 8 850 47 850 l 8 853 l 306 853 l 306 850 q 242 839 263 850 q 222 799 222 828 l 222 24 q 198 -83 222 -36 q 130 -162 174 -131 q 24 -212 86 -194 q -111 -229 -37 -229 l -146 -136 q -108 -164 -131 -151 q -61 -183 -89 -175 q 6 -189 -33 -192 z "},"":{"ha":681,"x_min":14,"x_max":681,"o":"m 263 853 l 263 850 q 199 839 219 850 q 179 799 179 828 l 179 494 l 457 799 q 474 839 483 828 q 421 850 464 850 l 421 853 l 608 853 l 608 850 q 537 839 569 850 q 478 799 504 828 l 263 561 q 307 559 285 568 q 340 526 329 550 l 528 146 q 593 47 556 88 q 681 6 631 6 l 681 1 l 588 1 q 507 24 543 1 q 451 88 471 47 l 236 533 l 179 471 l 179 56 q 199 16 179 26 q 263 6 219 6 l 263 1 l 14 1 l 14 6 q 76 16 57 6 q 96 56 96 26 l 96 799 q 76 839 96 828 q 14 850 57 850 l 14 853 l 263 853 z "},"":{"ha":699,"x_min":14,"x_max":699,"o":"m 14 850 l 14 853 l 265 853 q 385 842 328 853 q 487 804 443 831 q 556 734 531 778 q 582 625 582 690 q 563 530 582 569 q 511 464 544 490 q 433 422 478 438 q 338 401 389 407 q 404 347 381 386 l 522 154 q 559 97 542 124 q 597 49 576 69 q 641 17 617 29 q 699 6 665 6 l 699 1 l 596 1 q 521 21 556 1 q 465 74 486 40 l 269 397 l 181 397 l 181 56 q 200 16 181 26 q 263 6 219 6 l 263 1 l 14 1 l 14 6 q 78 16 58 6 q 97 56 97 26 l 97 799 q 78 839 97 828 q 14 850 58 850 m 181 411 l 260 411 q 340 416 297 411 q 417 442 382 421 q 476 507 453 464 q 499 625 499 550 q 476 743 499 700 q 417 808 453 786 q 340 834 382 829 q 260 839 297 839 l 181 839 l 181 411 z "},"":{"ha":1065,"x_min":14,"x_max":1051,"o":"m 96 56 l 96 799 q 76 839 96 828 q 14 850 57 850 l 14 853 l 272 853 q 433 801 368 853 q 532 660 497 750 q 632 801 568 750 q 793 853 696 853 l 1051 853 l 1051 850 q 988 839 1008 850 q 968 799 968 828 l 968 56 q 988 16 968 26 q 1051 6 1008 6 l 1051 1 l 803 1 l 803 6 q 865 16 846 6 q 885 56 885 26 l 885 799 q 869 833 885 828 q 819 839 854 839 q 631 747 689 839 q 574 460 574 654 l 574 56 q 593 16 574 26 q 657 6 613 6 l 657 1 l 408 1 l 408 6 q 471 16 451 6 q 490 56 490 26 l 490 460 q 433 747 490 654 q 246 839 376 839 q 194 833 210 839 q 179 799 179 828 l 179 56 q 199 16 179 26 q 263 6 218 6 l 263 1 l 14 1 l 14 6 q 76 16 57 6 q 96 56 96 26 z "},"":{"ha":713,"x_min":14,"x_max":699,"o":"m 97 56 l 97 799 q 78 839 97 828 q 14 850 58 850 l 14 853 l 314 853 q 449 838 392 853 q 543 783 506 824 q 599 670 581 742 q 617 486 617 599 l 617 56 q 636 16 617 26 q 699 6 656 6 l 699 1 l 450 1 l 450 6 q 514 16 494 6 q 533 56 533 26 l 533 546 q 511 698 533 640 q 453 787 489 756 q 374 828 418 818 q 288 839 331 839 q 213 833 244 839 q 181 799 181 828 l 181 56 q 200 16 181 26 q 263 6 219 6 l 263 1 l 14 1 l 14 6 q 78 16 58 6 q 97 56 97 26 z "},"":{"ha":608,"x_min":-111,"x_max":581,"o":"m 153 221 q 257 197 214 221 q 323 136 300 172 q 348 58 346 100 q 329 -19 350 17 q 265 -80 308 -56 q 151 -104 221 -104 l 151 -94 q 213 -72 188 -94 q 253 -16 239 -50 q 267 58 267 18 q 254 131 268 97 q 211 188 240 165 q 138 210 182 210 q 45 173 83 210 q -12 81 7 136 q -28 -40 -31 25 q 3 -160 -25 -104 q 85 -252 31 -215 q 225 -289 140 -289 q 339 -265 289 -289 q 424 -201 389 -242 q 478 -104 460 -160 q 497 15 497 -49 q 465 151 497 89 q 386 268 433 213 q 283 375 339 324 q 181 477 228 426 q 101 581 133 528 q 69 694 69 635 q 83 759 69 728 q 122 814 96 790 q 188 852 149 838 q 282 867 228 867 q 353 858 324 867 q 404 840 383 850 q 438 823 425 831 q 458 818 451 815 q 465 828 464 821 q 465 847 467 836 q 461 872 464 858 l 472 875 l 511 674 l 497 668 q 450 761 478 719 q 387 824 425 796 q 296 853 349 853 q 192 815 232 853 q 153 722 153 778 q 185 628 153 674 q 264 535 217 582 q 367 437 311 488 q 469 328 422 386 q 549 202 517 269 q 581 56 581 135 q 556 -82 581 -17 q 485 -197 531 -147 q 375 -276 439 -247 q 233 -306 311 -306 q 50 -267 124 -306 q -63 -169 -24 -228 q -107 -42 -103 -111 q -84 85 -111 26 q 3 182 -57 143 q 153 221 63 221 z "},"":{"ha":699,"x_min":14,"x_max":685,"o":"m 350 867 q 483 842 421 867 q 589 773 544 818 q 659 664 633 728 q 685 521 685 600 q 659 378 685 442 q 589 269 633 314 q 483 199 544 224 q 350 175 421 175 q 217 199 278 175 q 110 269 156 224 q 40 378 65 314 q 14 521 14 442 q 40 664 14 600 q 110 773 65 728 q 217 842 156 818 q 350 867 278 867 m 101 521 q 120 376 101 439 q 172 272 139 314 q 251 209 206 231 q 350 188 297 188 q 448 209 403 188 q 526 272 493 231 q 579 376 560 314 q 599 521 599 439 q 579 665 599 603 q 526 769 560 728 q 448 833 493 811 q 350 854 403 854 q 251 833 297 854 q 172 769 206 811 q 120 665 139 728 q 101 521 101 603 m 350 115 l 408 57 l 350 -3 l 290 57 l 350 115 z "},"":{"ha":582,"x_min":14,"x_max":568,"o":"m 14 853 l 264 853 l 264 850 q 200 839 219 850 q 181 799 181 828 l 181 15 q 274 10 218 15 q 385 6 329 6 q 495 17 446 6 q 563 64 544 28 l 568 63 q 546 7 561 31 q 509 -33 532 -15 q 449 -50 486 -50 q 384 -42 414 -50 q 321 -24 354 -33 q 249 -7 288 -15 q 157 1 210 1 l 14 1 l 14 6 q 78 16 58 6 q 97 56 97 26 l 97 799 q 78 839 97 828 q 14 850 58 850 l 14 853 z "},"":{"ha":582,"x_min":14,"x_max":567,"o":"m 14 1 l 14 6 q 76 16 57 6 q 96 56 96 26 l 96 799 q 76 839 96 828 q 14 850 57 850 l 14 853 l 496 853 l 539 674 l 528 669 q 506 732 518 701 q 471 786 493 763 q 412 824 449 810 q 317 839 375 839 l 179 839 l 179 524 l 339 524 q 379 543 368 524 q 390 607 390 563 l 401 607 l 401 428 l 390 428 q 379 490 390 471 q 339 510 368 510 l 179 510 l 179 15 q 272 10 217 15 q 383 6 328 6 q 494 17 444 6 q 561 64 543 28 l 567 63 q 544 7 560 31 q 508 -33 531 -15 q 447 -50 485 -50 q 383 -42 413 -50 q 319 -24 353 -33 q 247 -7 286 -15 q 156 1 208 1 l 14 1 z "},"":{"ha":1153,"x_min":0,"x_max":1153,"o":"m 258 853 l 258 850 q 199 839 215 850 q 193 799 183 828 l 418 147 l 567 581 l 492 799 q 468 839 482 828 q 418 850 454 850 l 418 853 l 649 853 l 649 850 q 585 839 596 850 q 583 799 574 828 l 808 147 l 1033 799 q 1027 839 1043 828 q 968 850 1011 850 l 968 853 l 1153 853 l 1153 850 q 1088 839 1114 850 q 1051 799 1061 828 l 771 -12 l 576 554 l 382 -12 l 101 799 q 64 839 92 828 q 0 850 36 850 l 0 853 l 258 853 z "},"":{"ha":579,"x_min":14,"x_max":565,"o":"m 14 1 l 14 4 q 69 14 51 4 q 86 49 86 24 l 86 329 q 103 467 86 407 q 158 571 121 528 q 256 636 196 614 q 403 658 317 658 l 565 658 l 565 654 q 510 645 528 654 q 493 610 493 636 l 493 49 q 510 14 493 24 q 565 4 528 4 l 565 1 l 350 1 l 350 4 q 404 14 388 4 q 421 49 421 24 l 421 307 l 158 307 l 158 49 q 175 14 158 24 q 229 4 192 4 l 229 1 l 14 1 m 158 319 l 421 319 l 421 649 l 413 649 q 224 583 290 649 q 158 386 158 517 l 158 319 z "},"":{"ha":464,"x_min":14,"x_max":450,"o":"m 14 1 l 14 4 q 68 14 51 4 q 85 49 85 24 l 85 610 q 68 645 85 636 q 14 654 51 654 l 14 658 l 390 658 l 426 503 l 418 499 q 399 553 410 526 q 368 600 388 579 q 317 633 349 621 q 235 646 285 646 l 157 646 l 157 381 l 254 381 q 288 397 279 381 q 297 451 297 414 l 307 451 l 307 268 l 297 268 q 288 337 297 306 q 254 368 279 368 l 157 368 l 157 10 q 265 11 215 10 q 351 21 314 13 q 413 48 389 29 q 446 101 438 67 l 450 100 q 435 42 446 68 q 407 0 425 19 q 357 -22 389 -19 q 304 -22 328 -25 q 254 -12 281 -18 q 197 -3 228 -7 q 121 1 165 1 l 14 1 z "},"":{"ha":860,"x_min":14,"x_max":846,"o":"m 14 654 l 14 658 l 178 658 q 334 622 271 658 q 431 515 397 585 q 526 622 463 585 q 683 658 589 658 l 846 658 l 846 654 q 791 645 808 654 q 774 610 774 636 l 774 49 q 791 14 774 24 q 846 4 808 4 l 846 1 l 631 1 l 631 4 q 685 14 668 4 q 701 49 701 24 l 701 649 l 693 649 q 603 632 644 649 q 531 583 561 615 q 484 501 501 550 q 467 386 467 451 l 467 49 q 483 14 467 24 q 538 4 500 4 l 538 1 l 322 1 l 322 4 q 377 14 360 4 q 394 49 394 24 l 394 386 q 377 501 394 451 q 329 583 360 550 q 257 632 299 615 q 167 649 215 649 l 158 649 l 158 49 q 176 14 158 24 q 229 4 193 4 l 229 1 l 14 1 l 14 4 q 69 14 51 4 q 86 49 86 24 l 86 610 q 69 645 86 636 q 14 654 51 654 z "},"":{"ha":578,"x_min":14,"x_max":564,"o":"m 14 1 l 14 4 q 67 14 50 4 q 85 49 85 24 l 85 610 q 67 645 85 636 q 14 654 50 654 l 14 658 l 176 658 q 323 648 263 658 q 421 609 383 638 q 476 532 458 581 q 493 406 493 483 l 493 49 q 510 14 493 24 q 564 4 526 4 l 564 1 l 349 1 l 349 4 q 403 14 386 4 q 421 49 421 24 l 421 463 q 403 565 421 528 q 353 620 386 601 q 274 644 321 639 q 165 649 226 649 l 157 649 l 157 49 q 174 14 157 24 q 228 4 192 4 l 228 1 l 14 1 z "},"":{"ha":551,"x_min":14,"x_max":538,"o":"m 275 672 q 384 651 336 672 q 467 593 432 629 q 519 510 501 557 q 538 410 538 463 q 519 310 538 358 q 467 227 501 263 q 384 170 432 192 q 275 149 336 149 q 167 170 215 149 q 84 227 118 192 q 32 310 50 263 q 14 410 14 358 q 32 510 14 463 q 84 593 50 557 q 167 651 118 629 q 275 672 215 672 m 275 157 q 416 226 365 157 q 467 410 467 294 q 416 594 467 526 q 275 663 365 663 q 135 594 186 663 q 85 410 85 526 q 135 226 85 294 q 275 157 186 157 m 275 90 l 322 44 l 275 -3 l 229 44 l 275 90 z "},"":{"ha":267,"x_min":-157,"x_max":547,"o":"m -157 725 q -122 774 -143 751 q -74 808 -103 792 q -4 829 -46 825 q 76 826 31 832 q 171 811 121 819 q 274 795 221 803 q 378 788 326 788 q 425 790 400 788 q 473 799 450 792 q 514 822 496 807 q 540 860 532 836 l 547 858 q 519 810 540 832 q 469 774 503 790 q 378 753 436 757 q 268 755 319 749 q 169 771 217 761 l 169 49 q 187 14 169 24 q 242 4 204 4 l 242 1 l 26 1 l 26 4 q 81 14 64 4 q 97 49 97 24 l 97 786 q 34 797 65 793 q -29 797 3 800 q -89 782 -65 794 q -126 756 -112 769 q -151 722 -143 740 l -157 725 z "},"":{"ha":493,"x_min":-19,"x_max":467,"o":"m 158 231 q 223 215 194 231 q 267 175 251 199 q 287 123 283 151 q 277 71 290 94 q 232 31 264 47 q 147 15 200 15 l 147 22 q 210 53 189 22 q 231 122 231 85 q 212 191 231 160 q 157 222 193 222 q 101 198 125 222 q 65 137 78 174 q 53 58 53 100 q 72 -22 54 15 q 128 -83 90 -58 q 225 -107 165 -107 q 281 -97 251 -107 q 336 -66 311 -87 q 378 -10 361 -44 q 394 72 394 24 q 370 172 394 128 q 310 252 346 215 q 231 322 274 289 q 151 389 188 354 q 91 463 115 424 q 67 550 67 501 q 111 640 67 608 q 222 671 156 671 q 276 664 253 671 q 317 649 300 657 q 344 633 333 640 q 360 628 354 626 q 365 638 364 631 q 365 653 367 644 q 363 675 365 663 l 372 678 l 406 504 l 394 499 q 354 579 378 543 q 304 635 335 610 q 233 660 274 660 q 161 637 183 660 q 139 574 139 614 q 163 495 139 531 q 224 427 188 460 q 303 361 260 394 q 382 290 346 328 q 442 207 418 253 q 467 104 467 161 q 447 6 467 49 q 392 -64 426 -36 q 313 -106 358 -92 q 219 -119 268 -119 q 90 -94 142 -119 q 13 -29 39 -68 q -17 56 -14 10 q 0 140 -19 101 q 60 205 19 179 q 158 231 100 231 z "},"":{"ha":593,"x_min":0,"x_max":525,"o":"m 0 658 l 224 658 l 224 654 q 172 645 186 654 q 168 610 158 636 l 338 117 l 443 421 q 459 499 454 460 q 461 574 464 539 q 448 636 458 608 q 419 679 438 664 q 401 708 404 690 q 406 742 397 725 l 406 743 q 453 772 421 772 q 490 756 474 772 q 522 670 519 724 q 510 572 525 617 l 306 -22 l 88 610 q 55 645 79 636 q 0 654 31 654 l 0 658 z "},"":{"ha":865,"x_min":0,"x_max":779,"o":"m 224 658 l 224 654 q 172 645 186 654 q 167 610 158 636 l 338 117 l 425 369 l 342 610 q 308 645 332 636 q 253 654 283 654 l 253 658 l 611 658 l 611 654 q 555 645 578 654 q 524 610 532 636 l 472 461 l 590 117 l 696 421 q 712 499 707 460 q 714 574 717 539 q 701 636 711 608 q 672 679 692 664 q 655 708 658 690 q 658 742 651 725 l 660 743 q 679 765 667 757 q 706 772 692 772 q 743 756 729 772 q 776 670 772 724 q 764 572 779 617 l 558 -22 l 432 346 l 306 -22 l 88 610 q 55 645 79 636 q 0 654 31 654 l 0 658 l 224 658 m 421 611 l 464 485 l 508 611 q 505 644 515 635 q 464 654 494 653 q 423 644 433 653 q 421 611 413 635 z "},"A":{"ha":763,"x_min":0,"x_max":763,"o":"m 0 6 q 65 16 39 6 q 101 56 92 26 l 382 867 l 661 56 q 699 16 671 26 q 763 6 726 6 l 763 1 l 504 1 l 504 6 q 563 16 547 6 q 569 56 579 26 l 478 322 l 211 322 l 119 56 q 126 16 110 26 q 185 6 142 6 l 185 1 l 0 1 l 0 6 m 217 336 l 472 336 l 344 708 l 217 336 z "},"B":{"ha":651,"x_min":14,"x_max":638,"o":"m 14 853 l 290 853 q 485 806 417 853 q 554 676 554 758 q 510 566 554 610 q 382 507 465 522 q 479 482 433 500 q 560 433 525 464 q 617 359 596 403 q 638 257 638 315 q 608 138 638 186 q 531 59 579 89 q 422 15 483 29 q 299 1 361 1 l 14 1 l 14 6 q 78 16 58 6 q 97 56 97 26 l 97 799 q 78 839 97 828 q 14 850 58 850 l 14 853 m 263 15 l 314 15 q 394 25 351 15 q 472 61 436 35 q 531 135 507 88 q 554 257 554 182 q 531 380 554 332 q 472 454 507 428 q 394 490 436 481 q 314 500 351 500 l 181 500 l 181 78 q 200 32 181 49 q 263 15 219 15 m 303 514 q 425 556 379 514 q 471 676 471 597 q 425 797 471 756 q 303 839 379 839 l 181 839 l 181 514 l 303 514 z "},"C":{"ha":757,"x_min":14,"x_max":743,"o":"m 425 867 q 517 856 479 867 q 582 833 556 846 q 624 813 608 821 q 650 808 640 804 q 658 821 657 811 q 657 842 660 831 q 651 871 656 854 l 663 875 l 729 674 l 717 668 q 656 757 693 718 q 571 818 624 790 q 439 846 518 846 q 304 817 367 846 q 196 733 242 788 q 124 601 150 679 q 97 428 97 524 q 124 254 97 332 q 196 122 150 176 q 304 38 242 67 q 439 8 367 8 q 573 37 518 8 q 664 99 628 65 q 732 189 706 139 l 743 181 q 669 85 715 126 q 572 18 632 49 q 425 -12 513 -12 q 258 20 333 -12 q 128 112 182 53 q 44 251 74 171 q 14 428 14 332 q 44 604 14 524 q 128 743 74 685 q 258 834 182 801 q 425 867 333 867 z "},"":{"ha":1506,"x_min":14,"x_max":1506,"o":"m 624 494 q 694 472 660 489 q 768 435 729 456 q 851 392 807 414 q 947 351 894 369 l 1125 868 l 1404 57 q 1442 17 1414 28 q 1506 6 1471 6 l 1506 1 l 1247 1 l 1247 6 q 1306 17 1290 6 q 1313 57 1322 28 l 1225 308 l 1222 308 q 1099 306 1175 301 q 1028 314 1063 308 q 958 331 993 319 l 864 57 q 869 17 853 28 q 928 6 885 6 l 928 1 l 743 1 l 743 6 q 808 17 782 6 q 846 57 835 28 l 942 335 q 880 356 911 344 q 815 378 849 367 q 701 417 758 399 q 592 444 644 436 q 560 449 575 447 q 531 450 544 450 q 411 414 458 450 l 403 425 q 444 453 419 439 q 499 479 469 468 q 560 495 528 490 q 624 494 593 500 m 425 867 q 517 856 479 867 q 582 833 556 846 q 625 813 608 821 q 651 808 642 804 q 659 821 658 811 q 658 842 660 831 q 651 871 656 856 l 663 875 l 729 674 l 717 668 q 656 757 693 718 q 571 818 624 790 q 439 846 518 846 q 304 817 367 846 q 196 733 242 788 q 124 601 150 679 q 97 428 97 524 q 124 254 97 332 q 196 122 150 176 q 304 38 242 67 q 439 8 367 8 q 545 26 499 8 q 626 67 592 43 q 682 117 660 90 q 717 163 704 144 l 729 156 q 692 107 717 136 q 631 51 668 78 q 542 6 593 25 q 425 -12 492 -12 q 259 20 335 -12 q 129 112 183 53 q 44 251 75 171 q 14 428 14 332 q 44 604 14 524 q 129 743 75 685 q 259 834 183 801 q 425 867 335 867 m 964 346 q 1030 329 996 336 q 1104 319 1064 322 q 1169 318 1140 317 q 1219 322 1199 319 l 1221 322 l 1088 708 l 964 346 z "},"":{"ha":1501,"x_min":14,"x_max":1488,"o":"m 381 463 q 556 407 436 406 q 669 420 610 410 q 786 443 728 431 q 837 453 813 449 q 885 464 861 458 l 885 799 q 865 839 885 828 q 801 850 846 850 l 801 853 l 1050 853 l 1050 850 q 988 839 1007 850 q 968 799 968 828 l 968 475 l 978 475 q 1076 475 1032 479 q 1235 444 1174 467 q 1321 411 1297 422 l 1321 799 q 1301 839 1321 828 q 1238 850 1282 850 l 1238 853 l 1488 853 l 1488 850 q 1424 839 1443 850 q 1404 799 1404 828 l 1404 57 q 1424 17 1404 28 q 1488 6 1443 6 l 1488 1 l 1238 1 l 1238 6 q 1301 17 1282 6 q 1321 57 1321 28 l 1321 394 q 1288 408 1311 399 q 1233 428 1265 418 q 1162 448 1201 439 q 1079 458 1122 457 q 1022 460 1049 461 q 968 456 994 458 l 968 57 q 988 17 968 28 q 1050 6 1007 6 l 1050 1 l 801 1 l 801 6 q 865 17 846 6 q 885 57 885 28 l 885 442 q 797 416 838 431 q 719 388 756 401 q 647 365 682 375 q 579 353 613 354 q 517 361 549 351 q 459 386 486 371 q 409 419 432 401 q 371 453 386 438 l 381 463 m 14 428 q 44 604 14 524 q 128 743 74 685 q 258 834 182 801 q 425 867 333 867 q 517 856 479 867 q 582 833 556 846 q 624 813 608 821 q 650 808 640 804 q 658 821 657 811 q 657 842 660 831 q 651 871 656 856 l 663 875 l 729 674 l 717 668 q 656 757 693 718 q 571 818 624 790 q 439 846 518 846 q 304 817 367 846 q 196 733 242 788 q 124 601 150 679 q 97 428 97 524 q 124 254 97 332 q 196 122 150 176 q 304 38 242 67 q 439 8 367 8 q 545 26 499 8 q 626 67 592 43 q 682 117 660 90 q 717 163 704 144 l 729 156 q 692 107 717 136 q 631 51 668 78 q 542 6 593 25 q 425 -12 492 -12 q 258 20 333 -12 q 128 112 182 53 q 44 251 74 171 q 14 428 14 332 z "},"":{"ha":757,"x_min":14,"x_max":743,"o":"m 311 436 q 326 516 311 478 q 367 583 340 554 q 433 628 394 611 q 521 646 472 646 q 608 628 569 646 q 673 583 646 611 q 715 516 700 554 q 729 436 729 478 q 715 356 729 394 q 673 290 700 318 q 608 244 646 261 q 521 226 569 226 q 433 244 472 226 q 367 290 394 261 q 326 356 340 318 q 311 436 311 394 m 521 239 q 613 292 579 239 q 646 436 646 344 q 613 580 646 526 q 521 633 579 633 q 428 580 461 633 q 394 436 394 526 q 428 292 394 344 q 521 239 461 239 m 14 428 q 44 604 14 524 q 129 743 75 685 q 259 834 183 801 q 425 867 335 867 q 517 856 479 867 q 582 833 556 846 q 624 813 608 821 q 650 808 640 804 q 658 821 657 811 q 657 842 660 831 q 651 871 656 856 l 663 875 l 729 674 l 717 668 q 656 757 693 718 q 571 818 624 790 q 439 846 518 846 q 304 817 367 846 q 196 733 242 788 q 124 601 150 679 q 97 428 97 524 q 124 254 97 332 q 196 122 150 176 q 304 38 242 67 q 439 8 367 8 q 573 37 518 8 q 664 99 628 65 q 732 189 706 139 l 743 181 q 669 85 715 126 q 572 18 632 49 q 425 -12 513 -12 q 259 20 335 -12 q 129 112 183 53 q 44 251 75 171 q 14 428 14 332 z "},"":{"ha":1182,"x_min":0,"x_max":1168,"o":"m 0 6 q 65 17 39 6 q 101 57 90 28 l 381 868 l 603 224 q 562 183 574 204 q 547 147 550 163 q 628 202 581 182 q 740 222 676 222 q 844 198 801 222 q 910 138 888 174 q 935 59 933 101 q 917 -19 938 17 q 852 -80 896 -56 q 740 -104 808 -104 l 740 -94 q 810 -72 782 -94 q 851 -16 838 -50 q 863 58 864 18 q 847 131 863 97 q 801 188 831 165 q 726 210 771 210 q 634 173 672 210 q 577 81 596 136 q 561 -40 558 25 q 592 -160 564 -104 q 674 -252 619 -215 q 813 -289 728 -289 q 926 -265 876 -289 q 1012 -201 976 -242 q 1066 -104 1047 -160 q 1085 15 1085 -49 q 1053 151 1085 89 q 974 268 1022 213 q 872 375 926 324 q 769 477 817 426 q 690 581 721 528 q 658 694 658 635 q 672 759 658 728 q 711 815 685 790 q 777 853 738 839 q 869 867 817 867 q 941 858 911 867 q 992 840 971 850 q 1026 823 1013 831 q 1046 818 1039 815 q 1053 828 1051 821 q 1053 847 1054 836 q 1049 872 1051 858 l 1060 875 l 1099 674 l 1086 668 q 1038 761 1067 719 q 975 824 1014 796 q 883 853 936 853 q 781 816 819 853 q 742 722 742 779 q 773 628 742 674 q 852 535 804 582 q 955 437 900 488 q 1058 328 1010 386 q 1137 203 1106 269 q 1168 57 1168 136 q 1143 -82 1168 -17 q 1072 -197 1118 -147 q 963 -276 1026 -247 q 821 -306 899 -306 q 676 -283 739 -306 q 572 -223 614 -260 q 507 -139 529 -186 q 481 -42 485 -92 q 492 55 478 7 q 540 139 507 103 l 476 322 l 211 322 l 119 57 q 125 17 108 28 q 185 6 142 6 l 185 1 l 0 1 l 0 6 m 472 336 l 344 708 l 215 336 l 472 336 z "},"":{"ha":1313,"x_min":14,"x_max":1299,"o":"m 14 6 q 78 17 58 6 q 97 57 97 28 l 97 799 q 78 839 97 828 q 14 850 58 850 l 14 853 l 364 853 q 491 835 428 853 q 610 782 554 818 q 874 867 718 867 q 1043 835 965 867 q 1178 747 1121 804 q 1267 609 1235 690 q 1299 428 1299 528 q 1267 246 1299 328 q 1178 107 1235 164 q 1043 19 1121 50 q 874 -12 965 -12 q 730 10 797 -12 q 610 72 663 32 q 491 19 554 36 q 364 1 428 1 l 14 1 l 14 6 m 874 1 q 1008 28 946 1 q 1117 110 1071 56 q 1189 244 1163 164 q 1215 428 1215 324 q 1189 611 1215 532 q 1117 744 1163 690 q 1008 826 1071 799 q 874 853 946 853 q 747 829 806 853 q 642 758 688 806 q 751 623 708 706 q 793 428 793 540 q 751 232 793 315 q 642 96 708 149 q 747 25 688 49 q 874 1 806 1 m 263 15 l 292 15 q 456 33 382 15 q 585 93 531 50 q 484 236 521 151 q 447 428 447 321 q 484 619 447 535 q 585 761 521 703 q 456 822 531 804 q 292 839 382 839 l 181 839 l 181 78 q 200 32 181 49 q 263 15 219 15 m 618 125 q 686 247 663 174 q 710 428 710 321 q 686 608 710 535 q 618 731 663 682 q 554 601 578 678 q 531 428 531 525 q 554 253 531 329 q 618 125 578 178 z "},"":{"ha":1274,"x_min":14,"x_max":1260,"o":"m 14 853 l 364 853 q 489 836 426 853 q 607 783 551 819 q 860 867 710 867 q 952 856 914 867 q 1017 833 990 846 q 1059 813 1043 821 q 1085 808 1075 804 q 1092 821 1092 811 q 1092 842 1093 831 q 1086 871 1090 856 l 1096 875 l 1164 674 l 1150 668 q 1089 757 1128 718 q 1004 818 1057 790 q 874 846 951 846 q 750 822 807 846 q 649 753 693 797 q 753 619 713 700 q 793 428 793 538 q 753 235 793 317 q 649 101 713 154 q 750 33 693 57 q 874 8 807 8 q 1004 35 950 8 q 1094 96 1058 63 l 1094 386 q 1090 411 1094 400 q 1071 431 1086 422 q 1027 443 1056 439 q 950 447 999 447 l 950 451 l 1260 451 l 1260 447 q 1197 437 1217 447 q 1178 397 1178 426 l 1178 1 l 1167 1 q 1147 54 1160 42 q 1115 67 1133 67 q 1075 54 1097 67 q 1023 27 1053 42 q 953 0 993 13 q 860 -12 914 -12 q 721 9 785 -12 q 607 71 657 31 q 489 19 551 36 q 364 1 426 1 l 14 1 l 14 6 q 77 17 57 6 q 97 57 97 28 l 97 799 q 77 839 97 828 q 14 850 57 850 l 14 853 m 181 839 l 181 78 q 200 32 181 49 q 263 15 219 15 l 290 15 q 454 33 381 15 q 582 92 528 50 q 483 238 518 151 q 447 428 447 324 q 483 618 447 532 q 582 763 518 704 q 454 822 528 804 q 290 839 381 839 l 181 839 m 531 428 q 555 259 531 335 q 622 131 579 183 q 687 251 664 179 q 710 428 710 324 q 687 604 710 532 q 622 725 664 676 q 555 596 579 671 q 531 428 531 521 z "},"":{"ha":1313,"x_min":14,"x_max":1400,"o":"m 14 850 l 14 853 l 364 853 q 490 835 426 853 q 608 782 553 818 q 872 867 718 867 q 1042 835 964 867 q 1176 747 1119 804 q 1266 609 1233 690 q 1299 428 1299 528 q 1241 192 1299 292 q 1086 39 1183 92 q 1131 -23 1106 10 q 1186 -84 1156 -56 q 1251 -131 1217 -112 q 1324 -150 1285 -150 q 1352 -148 1339 -150 q 1376 -143 1365 -146 q 1397 -135 1388 -139 l 1400 -143 q 1363 -161 1383 -153 q 1321 -174 1344 -168 q 1268 -179 1297 -179 q 1184 -163 1219 -179 q 1121 -121 1149 -147 q 1071 -60 1093 -94 q 1026 14 1049 -25 q 872 -12 957 -12 q 729 10 796 -12 q 608 72 663 32 q 490 19 553 36 q 364 1 426 1 l 14 1 l 14 6 q 76 17 57 6 q 96 57 96 28 l 96 799 q 76 839 96 828 q 14 850 57 850 m 872 1 q 948 9 913 1 q 1017 32 983 17 q 964 119 989 81 q 907 168 939 157 q 879 172 893 172 q 840 165 858 172 q 824 158 832 163 l 818 167 q 842 178 829 172 q 867 185 853 182 q 900 189 882 189 q 954 179 926 189 q 1013 136 986 168 q 1068 64 1040 104 q 1176 206 1136 115 q 1215 428 1215 297 q 1189 611 1215 532 q 1117 744 1163 690 q 1008 826 1071 799 q 872 853 946 853 q 745 829 804 853 q 642 758 686 806 q 751 623 708 706 q 793 428 793 540 q 751 232 793 315 q 642 96 708 149 q 745 25 686 49 q 872 1 804 1 m 179 839 l 179 78 q 199 32 179 49 q 263 15 218 15 l 290 15 q 455 33 381 15 q 583 93 529 50 q 483 236 519 151 q 447 428 447 321 q 483 619 447 535 q 583 761 519 703 q 455 822 529 804 q 290 839 381 839 l 179 839 m 617 125 q 685 247 661 174 q 710 428 710 321 q 685 608 710 535 q 617 731 661 682 q 553 601 576 678 q 531 428 531 525 q 553 253 531 329 q 617 125 576 178 z "},"":{"ha":1385,"x_min":14,"x_max":1371,"o":"m 440 867 q 693 790 585 867 q 946 867 799 867 q 1114 835 1036 867 q 1249 747 1192 804 q 1338 609 1306 690 q 1371 428 1371 528 q 1338 246 1371 328 q 1249 107 1306 164 q 1114 19 1192 50 q 946 -12 1036 -12 q 809 8 872 -12 q 693 64 746 28 q 576 8 640 28 q 440 -12 513 -12 q 271 19 349 -12 q 136 107 193 50 q 47 246 79 164 q 14 428 14 328 q 47 609 14 528 q 136 747 79 690 q 271 835 193 804 q 440 867 349 867 m 97 428 q 124 244 97 324 q 196 110 150 164 q 305 28 242 56 q 440 1 368 1 q 663 88 572 1 q 558 232 596 146 q 519 428 519 318 q 558 622 519 536 q 663 767 596 708 q 440 853 572 853 q 305 826 368 853 q 196 744 242 799 q 124 611 150 690 q 97 428 97 532 m 865 428 q 827 232 865 318 q 722 88 789 146 q 824 23 767 44 q 946 1 881 1 q 1081 28 1018 1 q 1189 110 1143 56 q 1261 244 1235 164 q 1288 428 1288 324 q 1261 611 1288 532 q 1189 744 1235 690 q 1081 826 1143 799 q 946 853 1018 853 q 824 831 881 853 q 722 767 767 810 q 827 622 789 708 q 865 428 865 536 m 603 428 q 626 251 603 328 q 693 121 650 175 q 758 251 735 175 q 782 428 782 328 q 758 604 782 528 q 693 733 735 681 q 626 604 650 681 q 603 428 603 528 z "},"":{"ha":1178,"x_min":14,"x_max":1164,"o":"m 497 853 l 539 674 l 529 669 q 507 732 519 701 q 472 786 494 763 q 413 824 450 810 q 318 839 376 839 l 181 839 l 181 553 l 340 553 q 379 572 368 553 q 390 635 390 592 l 401 635 l 401 456 l 390 456 q 379 519 390 500 q 340 539 368 539 l 181 539 l 181 15 l 340 15 q 438 39 393 15 q 511 107 483 63 q 597 190 542 157 q 735 222 653 222 q 839 198 796 222 q 905 138 882 174 q 930 59 928 101 q 912 -19 932 17 q 848 -80 892 -56 q 735 -104 804 -104 l 735 -94 q 804 -72 776 -94 q 845 -16 832 -50 q 858 58 858 18 q 842 131 857 97 q 796 188 826 165 q 721 210 765 210 q 628 173 667 210 q 572 81 590 136 q 556 -40 553 25 q 586 -160 558 -104 q 668 -252 614 -215 q 807 -289 722 -289 q 922 -265 871 -289 q 1008 -201 972 -242 q 1062 -104 1043 -160 q 1081 15 1081 -49 q 1049 151 1081 89 q 969 268 1017 213 q 867 375 922 324 q 764 477 811 426 q 685 581 717 528 q 653 694 653 635 q 666 759 653 728 q 706 815 679 790 q 772 853 732 839 q 865 867 811 867 q 936 858 907 867 q 986 840 965 850 q 1020 823 1007 831 q 1040 818 1033 815 q 1047 828 1046 821 q 1047 847 1049 836 q 1044 872 1047 858 l 1054 875 l 1094 674 l 1081 668 q 1033 761 1061 719 q 970 824 1008 796 q 879 853 932 853 q 775 816 814 853 q 736 722 736 779 q 768 628 736 674 q 847 535 800 582 q 950 437 894 488 q 1053 328 1006 386 q 1132 203 1100 269 q 1164 57 1164 136 q 1139 -82 1164 -17 q 1068 -197 1114 -147 q 958 -276 1022 -247 q 817 -306 894 -306 q 658 -278 725 -306 q 549 -206 592 -250 q 489 -108 507 -162 q 476 1 471 -53 l 14 1 l 14 6 q 77 17 57 6 q 97 57 97 28 l 97 799 q 77 839 97 828 q 14 850 57 850 l 14 853 l 497 853 z "},"":{"ha":989,"x_min":14,"x_max":975,"o":"m 497 853 l 539 674 l 529 669 q 506 732 519 701 q 471 786 493 763 q 412 824 449 810 q 317 839 375 839 l 179 839 l 179 553 l 339 553 q 379 572 368 553 q 390 635 390 592 l 401 635 l 401 456 l 390 456 q 379 519 390 500 q 339 539 368 539 l 179 539 l 179 15 l 258 15 q 355 46 311 15 q 418 125 399 76 q 477 200 436 169 q 583 231 518 231 l 585 215 q 521 190 547 215 q 481 128 494 165 q 470 47 468 90 q 491 -33 472 4 q 547 -96 510 -71 q 642 -121 585 -121 q 707 -106 676 -121 q 760 -64 738 -92 q 797 5 783 -36 q 810 100 810 46 l 810 788 q 783 833 810 817 q 678 850 756 850 l 678 853 l 975 853 l 975 850 q 913 839 932 850 q 893 799 893 828 l 893 172 q 873 42 893 100 q 818 -54 853 -15 q 736 -114 783 -93 q 633 -135 689 -135 q 486 -94 540 -135 q 414 1 432 -54 l 14 1 l 14 6 q 76 17 57 6 q 96 57 96 28 l 96 799 q 76 839 96 828 q 14 850 57 850 l 14 853 l 497 853 z "},"":{"ha":976,"x_min":14,"x_max":976,"o":"m 97 57 l 97 799 q 78 839 97 828 q 14 850 58 850 l 14 853 l 933 853 l 976 674 l 965 669 q 943 732 956 701 q 908 786 931 763 q 849 824 886 810 q 754 839 813 839 l 700 839 l 700 57 q 719 17 700 28 q 782 6 739 6 l 782 1 l 533 1 l 533 6 q 597 17 578 6 q 617 57 617 28 l 617 839 l 181 839 l 181 553 l 340 553 q 381 572 369 553 q 392 635 392 592 l 401 635 l 401 456 l 392 456 q 381 519 392 500 q 340 539 369 539 l 181 539 l 181 56 q 200 17 181 28 q 263 6 219 6 l 263 1 l 14 1 l 14 6 q 78 17 58 6 q 97 57 97 28 z "},"":{"ha":888,"x_min":14,"x_max":874,"o":"m 96 57 l 96 799 q 76 839 96 828 q 14 850 57 850 l 14 853 l 874 853 l 874 839 l 489 15 l 638 15 q 733 30 696 15 q 792 68 769 44 q 826 122 814 92 q 849 185 839 153 l 860 181 l 817 1 l 389 1 l 779 839 l 653 839 q 559 830 594 839 q 503 804 524 821 q 471 763 482 788 q 450 706 460 738 l 439 710 l 469 839 l 179 839 l 179 553 l 339 553 q 379 572 368 553 q 390 635 390 592 l 401 635 l 401 456 l 390 456 q 379 519 390 500 q 339 539 368 539 l 179 539 l 179 56 q 199 17 179 28 q 263 6 218 6 l 263 1 l 14 1 l 14 6 q 76 17 57 6 q 96 57 96 28 z "},"":{"ha":1561,"x_min":14,"x_max":1561,"o":"m 425 867 q 518 856 479 867 q 583 833 557 846 q 626 813 610 821 q 651 808 642 804 q 659 821 658 811 q 658 842 660 831 q 653 871 657 856 l 663 875 l 731 674 l 717 668 q 656 757 693 718 q 571 818 624 790 q 439 846 518 846 q 304 817 367 846 q 196 733 242 788 q 124 601 150 679 q 97 428 97 524 q 124 254 97 332 q 196 122 150 176 q 304 38 242 67 q 439 8 367 8 q 533 20 492 8 q 603 46 574 32 q 661 83 636 63 l 661 429 q 596 444 629 439 q 531 450 563 450 q 411 414 458 450 l 403 425 q 444 453 419 439 q 499 479 469 468 q 560 495 528 490 q 624 494 593 500 q 703 468 664 488 q 787 425 743 449 q 882 377 831 401 q 997 338 933 353 l 1181 868 l 1460 57 q 1499 17 1471 28 q 1561 6 1526 6 l 1561 1 l 1303 1 l 1303 6 q 1363 17 1347 6 q 1368 57 1379 28 l 1278 319 q 1255 314 1268 317 q 1222 308 1242 311 q 1100 306 1175 301 q 1010 318 1057 310 l 919 57 q 924 17 908 28 q 985 6 940 6 l 985 1 l 800 1 l 800 6 q 864 17 838 6 q 901 57 890 28 l 993 322 q 908 346 953 331 q 817 378 864 361 q 780 390 797 385 q 744 403 763 396 l 744 113 q 658 50 707 78 q 558 7 617 26 q 425 -12 500 -12 q 259 20 335 -12 q 129 112 183 53 q 44 251 75 171 q 14 428 14 332 q 44 604 14 524 q 129 743 75 685 q 259 834 183 801 q 425 867 335 867 m 1014 333 q 1104 319 1054 324 q 1170 318 1142 317 q 1219 322 1199 319 q 1251 327 1238 325 q 1274 332 1264 329 l 1143 708 l 1014 333 z "},"":{"ha":1540,"x_min":14,"x_max":1526,"o":"m 14 428 q 44 604 14 524 q 129 743 75 685 q 259 834 183 801 q 425 867 335 867 q 518 856 479 867 q 583 833 557 846 q 626 813 610 821 q 651 808 642 804 q 659 821 658 811 q 658 842 660 831 q 653 871 657 856 l 663 875 l 731 674 l 717 668 q 656 757 694 718 q 571 818 624 790 q 440 846 518 846 q 305 817 368 846 q 196 733 242 788 q 124 601 150 679 q 97 428 97 524 q 124 254 97 332 q 196 122 150 176 q 305 38 242 67 q 440 8 368 8 q 533 20 493 8 q 603 46 574 32 q 661 83 636 63 l 661 358 q 640 355 650 356 q 619 353 631 354 q 557 361 588 351 q 499 386 526 371 q 449 419 471 401 q 411 453 426 438 l 421 463 q 594 407 476 406 q 708 420 649 410 q 826 443 767 431 q 876 453 851 449 q 924 464 900 458 l 924 799 q 904 839 924 828 q 842 850 885 850 l 842 853 l 1090 853 l 1090 850 q 1026 839 1046 850 q 1007 799 1007 828 l 1007 475 l 1017 475 q 1117 475 1074 479 q 1274 444 1213 467 q 1360 411 1336 422 l 1360 799 q 1340 839 1360 828 q 1278 850 1321 850 l 1278 853 l 1526 853 l 1526 850 q 1463 839 1483 850 q 1443 799 1443 828 l 1443 57 q 1463 17 1443 28 q 1526 6 1483 6 l 1526 1 l 1278 1 l 1278 6 q 1340 17 1321 6 q 1360 57 1360 28 l 1360 394 q 1328 408 1351 399 q 1274 428 1306 418 q 1202 448 1242 439 q 1119 458 1163 457 q 1007 456 1063 463 l 1007 57 q 1026 17 1007 28 q 1090 6 1046 6 l 1090 1 l 842 1 l 842 6 q 904 17 885 6 q 924 57 924 28 l 924 442 q 828 413 871 429 q 744 383 785 397 l 744 113 q 658 50 707 78 q 558 7 617 26 q 425 -12 500 -12 q 259 20 335 -12 q 129 112 183 53 q 44 251 75 171 q 14 428 14 332 z "},"":{"ha":1294,"x_min":0,"x_max":1281,"o":"m 611 853 l 708 853 l 897 314 l 1136 853 l 1281 853 l 1281 850 q 1217 839 1236 850 q 1197 799 1197 828 l 1197 57 q 1217 17 1197 28 q 1281 6 1236 6 l 1281 1 l 1032 1 l 1032 6 q 1094 17 1075 6 q 1114 57 1114 28 l 1114 767 l 849 167 l 611 853 m 0 6 q 64 17 38 6 q 101 57 90 28 l 381 868 l 660 57 q 698 17 669 28 q 761 6 726 6 l 761 1 l 503 1 l 503 6 q 562 17 546 6 q 568 57 578 28 l 476 322 l 211 322 l 119 57 q 124 17 108 28 q 185 6 140 6 l 185 1 l 0 1 l 0 6 m 215 336 l 471 336 l 343 708 l 215 336 z "},"":{"ha":1064,"x_min":14,"x_max":1050,"o":"m 546 253 l 546 256 q 599 265 582 256 q 617 300 617 275 l 617 486 q 627 638 617 569 q 665 753 638 706 q 744 827 693 801 q 876 853 796 853 l 979 853 l 979 300 q 996 265 979 275 q 1050 256 1013 256 l 1050 253 l 825 253 l 825 256 q 880 265 863 256 q 897 300 897 275 l 897 539 l 699 539 l 699 300 q 716 265 699 275 q 771 256 733 256 l 771 253 l 546 253 m 14 1 l 14 6 q 78 17 58 6 q 97 57 97 28 l 97 799 q 78 839 97 828 q 14 850 58 850 l 14 853 l 264 853 l 264 850 q 200 839 219 850 q 181 799 181 828 l 181 494 l 457 799 q 475 839 485 828 q 421 850 465 850 l 421 853 l 608 853 l 608 850 q 538 839 569 850 q 478 799 506 828 l 303 606 l 406 396 q 474 260 439 329 q 553 135 508 192 q 658 44 599 79 q 801 8 718 8 q 913 30 868 8 q 985 78 957 51 q 1038 147 1018 108 l 1050 143 q 985 56 1026 94 q 890 -4 949 24 q 743 -32 831 -32 q 615 -9 671 -32 q 516 53 560 14 q 438 145 472 92 q 374 258 403 199 l 238 535 l 181 471 l 181 57 q 200 17 181 28 q 264 6 219 6 l 264 1 l 14 1 m 897 551 l 897 839 l 874 839 q 789 819 822 839 q 737 763 756 800 q 710 673 718 726 q 700 551 701 619 l 897 551 z "},"":{"ha":1068,"x_min":14,"x_max":1054,"o":"m 14 1 l 14 6 q 77 17 57 6 q 97 57 97 28 l 97 799 q 77 839 97 828 q 14 850 57 850 l 14 853 l 263 853 l 263 850 q 200 839 219 850 q 181 799 181 828 l 181 494 l 457 799 q 474 839 483 828 q 421 850 464 850 l 421 853 l 608 853 l 608 850 q 537 839 569 850 q 478 799 504 828 l 301 606 l 406 396 q 472 260 438 329 q 553 135 507 192 q 658 44 599 79 q 801 8 718 8 q 913 30 868 8 q 985 78 957 51 q 1038 147 1018 108 l 1050 143 q 985 56 1026 94 q 890 -4 949 24 q 743 -32 831 -32 q 615 -9 671 -32 q 516 53 560 14 q 438 145 472 92 q 374 258 403 199 l 238 535 l 181 471 l 181 57 q 200 17 181 28 q 263 6 219 6 l 263 1 l 14 1 m 1000 853 l 1033 711 l 1025 708 q 1007 758 1017 733 q 979 801 997 782 q 932 831 961 819 q 857 843 903 843 l 772 843 l 772 631 l 875 631 q 907 646 899 631 q 915 696 915 661 l 924 696 l 924 554 l 915 554 q 907 604 915 589 q 875 619 899 619 l 772 619 l 772 264 l 879 264 q 954 276 925 264 q 1001 306 983 288 q 1028 349 1019 325 q 1046 397 1038 372 l 1054 394 l 1021 253 l 626 253 l 626 256 q 676 264 661 256 q 692 296 692 272 l 692 810 q 676 842 692 833 q 626 850 661 850 l 626 853 l 1000 853 z "},"":{"ha":1178,"x_min":14,"x_max":1164,"o":"m 96 57 l 96 799 q 76 839 96 828 q 14 850 57 850 l 14 853 l 263 853 l 263 850 q 199 839 219 850 q 179 799 179 828 l 179 494 l 457 799 q 474 839 483 828 q 421 850 464 850 l 421 853 l 608 853 l 608 850 q 537 839 569 850 q 478 799 504 828 l 301 606 l 404 396 q 472 260 438 329 q 553 135 507 192 q 658 44 599 79 q 801 8 718 8 q 913 30 868 8 q 985 78 957 51 q 1038 147 1018 108 l 1050 143 q 985 56 1026 94 q 890 -4 949 24 q 743 -32 831 -32 q 615 -9 671 -32 q 515 53 558 14 q 437 145 471 92 q 374 258 403 199 l 238 535 l 179 471 l 179 57 q 199 17 179 28 q 263 6 219 6 l 263 1 l 14 1 l 14 6 q 76 17 57 6 q 96 57 96 28 m 842 853 l 842 850 q 792 842 807 850 q 776 810 776 833 l 776 596 l 1018 596 l 1018 810 q 1002 842 1018 833 q 951 850 986 850 l 951 853 l 1164 853 l 1164 850 q 1114 842 1129 850 q 1099 810 1099 833 l 1099 296 q 1114 264 1099 272 q 1164 256 1129 256 l 1164 253 l 951 253 l 951 256 q 1002 264 986 256 q 1018 296 1018 272 l 1018 585 l 776 585 l 776 296 q 792 264 776 272 q 842 256 807 256 l 842 253 l 631 253 l 631 256 q 681 264 665 256 q 696 296 696 272 l 696 810 q 681 842 696 833 q 631 850 665 850 l 631 853 l 842 853 z "},"":{"ha":1249,"x_min":14,"x_max":1235,"o":"m 589 551 q 612 675 589 617 q 676 778 635 733 q 778 849 718 822 q 913 875 838 875 q 1047 849 988 875 q 1149 778 1107 822 q 1213 675 1190 733 q 1235 551 1235 617 q 1213 428 1235 488 q 1149 325 1190 369 q 1047 254 1107 281 q 913 228 988 228 q 778 254 838 228 q 676 325 718 281 q 612 428 635 369 q 589 551 589 488 m 913 239 q 1089 324 1031 239 q 1147 551 1147 408 q 1089 779 1147 694 q 913 864 1031 864 q 735 779 794 864 q 676 551 676 694 q 735 324 676 408 q 913 239 794 239 m 14 853 l 264 853 l 264 850 q 200 839 219 850 q 181 799 181 828 l 181 494 l 457 799 q 475 839 485 828 q 421 850 465 850 l 421 853 l 608 853 l 608 850 q 538 839 569 850 q 478 799 506 828 l 303 606 l 371 468 q 443 324 403 401 q 540 178 483 246 q 674 67 597 111 q 857 22 751 22 q 988 39 932 22 q 1081 75 1043 56 q 1158 126 1126 97 l 1165 118 q 1072 50 1126 81 q 960 3 1026 25 q 808 -18 894 -18 q 659 4 726 -18 q 533 74 592 26 q 421 196 474 121 q 315 376 368 271 l 238 535 l 181 471 l 181 57 q 200 17 181 28 q 264 6 219 6 l 264 1 l 14 1 l 14 6 q 78 17 58 6 q 97 57 97 28 l 97 799 q 78 839 97 828 q 14 850 58 850 l 14 853 z "},"":{"ha":1214,"x_min":14,"x_max":1200,"o":"m 14 1 l 14 6 q 76 17 57 6 q 96 57 96 28 l 96 799 q 76 839 96 828 q 14 850 57 850 l 14 853 l 263 853 l 263 850 q 199 839 218 850 q 179 799 179 828 l 179 494 l 456 799 q 474 839 483 828 q 419 850 464 850 l 419 853 l 607 853 l 607 850 q 537 839 569 850 q 476 799 504 828 l 301 606 l 404 396 q 478 260 438 329 q 572 135 518 192 q 695 44 625 79 q 857 8 765 8 q 974 24 925 8 q 1054 57 1022 39 q 1117 106 1092 78 l 1125 97 q 1044 33 1092 61 q 940 -12 1003 8 q 789 -32 876 -32 q 651 -9 714 -32 q 535 53 588 14 q 442 145 483 92 q 372 258 401 199 l 236 535 l 179 471 l 179 57 q 199 17 179 28 q 263 6 218 6 l 263 1 l 14 1 m 835 853 l 835 850 q 783 841 799 850 q 767 808 767 832 l 767 461 q 779 361 767 401 q 813 296 792 321 q 865 260 835 271 q 933 250 896 250 q 1069 303 1017 250 q 1122 461 1122 356 l 1122 808 q 1106 841 1122 832 q 1054 850 1090 850 l 1054 853 l 1200 853 l 1200 850 q 1149 841 1164 850 q 1133 808 1133 832 l 1133 461 q 1110 340 1133 386 q 1051 269 1086 294 q 980 236 1017 244 q 915 228 943 228 q 829 242 871 228 q 756 286 788 257 q 704 359 724 315 q 685 461 685 403 l 685 808 q 669 841 685 832 q 618 850 654 850 l 618 853 l 835 853 z "},"":{"ha":1165,"x_min":14,"x_max":1151,"o":"m 14 850 l 14 853 l 263 853 l 263 850 q 199 839 219 850 q 179 799 179 828 l 179 494 l 457 799 q 474 839 483 828 q 421 850 464 850 l 421 853 l 608 853 l 608 850 q 537 839 569 850 q 478 799 504 828 l 301 606 l 404 396 q 467 276 433 338 q 544 161 501 214 q 621 206 576 189 q 724 222 665 222 q 828 198 785 222 q 894 138 871 174 q 919 59 917 101 q 900 -19 921 17 q 835 -80 879 -56 q 722 -104 792 -104 l 722 -94 q 791 -72 764 -94 q 831 -16 818 -50 q 841 58 843 18 q 824 131 839 97 q 779 188 808 165 q 708 210 750 210 q 616 173 654 210 q 559 81 578 136 q 543 -40 540 25 q 574 -160 546 -104 q 656 -252 601 -215 q 796 -289 711 -289 q 910 -265 860 -289 q 995 -201 960 -242 q 1049 -104 1031 -160 q 1068 15 1068 -49 q 1036 151 1068 89 q 957 268 1004 213 q 854 375 910 324 q 751 477 799 426 q 672 581 704 528 q 640 694 640 635 q 653 759 640 728 q 693 815 667 790 q 759 853 719 839 q 853 867 799 867 q 924 858 894 867 q 975 840 954 850 q 1008 823 996 831 q 1028 818 1021 815 q 1035 828 1035 821 q 1036 847 1036 836 q 1032 872 1035 858 l 1043 875 l 1082 674 l 1068 668 q 1021 761 1049 719 q 958 824 996 796 q 867 853 919 853 q 763 816 803 853 q 724 722 724 779 q 756 628 724 674 q 835 535 788 582 q 938 437 882 488 q 1040 328 993 386 q 1119 203 1088 269 q 1151 57 1151 136 q 1126 -82 1151 -17 q 1056 -197 1101 -147 q 946 -276 1010 -247 q 804 -306 882 -306 q 615 -264 690 -306 q 502 -161 540 -222 q 463 -29 464 -100 q 494 100 461 42 q 423 173 450 135 q 372 258 396 211 l 238 535 l 179 471 l 179 57 q 199 17 179 28 q 263 6 219 6 l 263 1 l 14 1 l 14 6 q 76 17 57 6 q 96 57 96 28 l 96 799 q 76 839 96 828 q 14 850 57 850 z "},"":{"ha":1097,"x_min":14,"x_max":1083,"o":"m 14 853 l 263 853 l 263 850 q 199 839 218 850 q 179 799 179 828 l 179 15 l 269 15 q 362 40 319 15 q 431 106 404 64 q 517 190 461 157 q 656 222 574 222 q 760 198 717 222 q 826 138 803 174 q 851 59 849 101 q 832 -19 853 17 q 768 -80 811 -56 q 656 -104 725 -104 l 656 -94 q 725 -72 697 -94 q 766 -16 753 -50 q 778 58 779 18 q 762 131 778 97 q 716 188 746 165 q 642 210 686 210 q 549 173 588 210 q 492 81 511 136 q 476 -40 474 25 q 507 -160 479 -104 q 589 -252 535 -215 q 728 -289 643 -289 q 842 -265 792 -289 q 927 -201 892 -242 q 981 -104 963 -160 q 1000 15 1000 -49 q 969 151 1000 89 q 890 268 938 213 q 787 375 842 324 q 684 477 732 426 q 605 581 636 528 q 574 694 574 635 q 587 759 574 728 q 626 815 600 790 q 692 853 653 839 q 785 867 732 867 q 856 858 826 867 q 907 840 886 850 q 941 823 928 831 q 961 818 954 815 q 968 828 967 821 q 968 847 969 836 q 964 872 967 858 l 975 875 l 1014 674 l 1001 668 q 953 761 982 719 q 890 824 929 796 q 799 853 851 853 q 696 816 735 853 q 657 722 657 779 q 688 628 657 674 q 767 535 719 582 q 870 437 815 488 q 973 328 925 386 q 1052 203 1021 269 q 1083 57 1083 136 q 1058 -82 1083 -17 q 988 -197 1033 -147 q 878 -276 942 -247 q 736 -306 814 -306 q 578 -278 644 -306 q 469 -206 511 -250 q 410 -108 428 -162 q 396 1 392 -53 l 14 1 l 14 6 q 76 17 57 6 q 96 57 96 28 l 96 799 q 76 839 96 828 q 14 850 57 850 l 14 853 z "},"":{"ha":1047,"x_min":14,"x_max":1033,"o":"m 343 529 q 367 661 343 599 q 436 771 392 724 q 545 847 481 818 q 689 875 610 875 q 832 847 768 875 q 941 771 896 818 q 1010 661 986 724 q 1033 529 1033 599 q 1010 398 1033 461 q 941 288 986 335 q 832 212 896 240 q 689 183 768 183 q 545 212 610 183 q 436 288 481 240 q 367 398 392 335 q 343 529 343 461 m 689 194 q 801 218 753 194 q 881 285 849 242 q 930 391 914 329 q 946 529 946 453 q 930 667 946 606 q 881 772 914 728 q 801 839 849 815 q 689 863 753 863 q 577 839 625 863 q 497 772 529 815 q 449 667 465 728 q 432 529 432 606 q 449 391 432 453 q 497 285 465 329 q 577 218 529 242 q 689 194 625 194 m 96 57 l 96 799 q 76 839 96 828 q 14 850 57 850 l 14 853 l 263 853 l 263 850 q 199 839 218 850 q 179 799 179 828 l 179 15 q 298 12 236 15 q 422 5 360 8 q 543 -2 483 1 q 657 -6 603 -6 q 748 -2 706 -6 q 823 11 790 1 q 877 37 856 21 q 907 78 899 53 l 915 75 q 874 3 901 35 q 809 -48 850 -25 q 701 -71 768 -71 q 585 -60 639 -71 q 469 -35 531 -49 q 333 -10 408 -21 q 156 1 258 1 l 14 1 l 14 6 q 76 17 57 6 q 96 57 96 28 z "},"":{"ha":907,"x_min":14,"x_max":893,"o":"m 540 853 q 631 847 581 853 q 727 821 682 840 q 803 765 772 801 q 835 669 835 729 q 819 598 835 628 q 777 547 803 568 q 719 515 751 526 q 651 496 686 503 l 793 269 q 832 235 808 244 q 893 225 856 225 l 893 222 l 653 222 l 653 225 q 700 235 688 225 q 697 269 713 244 l 560 488 q 547 487 557 488 q 525 486 536 486 q 494 486 511 486 l 494 269 q 512 235 494 244 q 567 225 529 225 l 567 222 l 340 222 l 340 225 q 395 235 378 225 q 413 269 413 244 l 413 806 q 395 840 413 831 q 340 850 378 850 l 340 853 l 540 853 m 14 6 q 78 17 58 6 q 97 57 97 28 l 97 799 q 78 839 97 828 q 14 850 58 850 l 14 853 l 263 853 l 263 850 q 200 839 219 850 q 181 799 181 828 l 181 15 q 302 11 240 15 q 425 1 364 7 q 544 -8 486 -4 q 654 -12 603 -12 q 802 6 740 -12 q 885 78 864 25 l 893 75 q 857 6 882 36 q 795 -42 835 -21 q 689 -64 756 -64 q 582 -53 633 -64 q 470 -31 531 -43 q 335 -9 410 -19 q 157 1 260 1 l 14 1 l 14 6 m 494 842 l 494 499 l 544 499 q 605 504 569 499 q 673 527 640 510 q 728 578 706 544 q 751 669 751 613 q 728 762 751 728 q 673 813 706 796 q 605 836 640 831 q 544 842 569 842 l 494 842 z "},"":{"ha":942,"x_min":14,"x_max":928,"o":"m 96 57 l 96 799 q 76 839 96 828 q 14 850 57 850 l 14 853 l 263 853 l 263 850 q 199 839 219 850 q 179 799 179 828 l 179 15 q 298 12 236 15 q 422 5 360 8 q 543 -2 483 1 q 657 -6 603 -6 q 748 -2 706 -6 q 823 11 790 1 q 877 37 856 21 q 907 78 899 53 l 915 75 q 874 3 901 35 q 809 -48 850 -25 q 701 -71 768 -71 q 585 -60 639 -71 q 469 -35 531 -49 q 334 -10 408 -21 q 157 1 260 1 l 14 1 l 14 6 q 76 17 57 6 q 96 57 96 28 m 344 529 q 368 671 344 607 q 432 780 392 735 q 528 850 472 825 q 649 875 585 875 q 730 865 696 875 q 788 844 764 856 q 825 824 811 832 q 846 817 839 815 q 852 826 851 819 q 851 842 853 833 q 847 864 850 851 l 857 868 l 915 692 l 904 686 q 844 772 881 733 q 771 831 815 804 q 664 857 726 857 q 491 771 551 857 q 431 529 431 685 q 450 383 431 444 q 503 281 469 321 q 581 221 536 240 q 675 201 625 201 q 791 226 744 201 q 865 279 838 250 q 917 356 897 313 l 928 353 q 871 268 907 306 q 789 210 839 236 q 663 183 739 183 q 538 208 596 183 q 438 278 481 233 q 369 388 394 324 q 344 529 344 451 z "},"":{"ha":1014,"x_min":14,"x_max":1000,"o":"m 649 875 q 731 865 697 875 q 788 844 765 856 q 825 824 811 832 q 846 817 839 815 q 852 826 851 819 q 851 842 853 833 q 847 864 850 851 l 857 868 l 915 692 l 904 686 q 846 772 881 733 q 771 831 815 804 q 664 857 726 857 q 492 771 553 857 q 432 529 432 685 q 451 383 432 444 q 504 281 471 321 q 582 221 538 240 q 675 201 626 201 q 742 213 711 201 q 794 239 772 224 q 842 275 821 254 l 842 517 q 838 539 842 529 q 824 556 835 549 q 790 567 813 564 q 728 571 767 571 l 728 575 l 1000 575 l 1000 571 q 945 562 963 571 q 928 526 928 553 l 928 194 l 918 194 q 901 241 913 229 q 874 253 889 253 q 841 242 858 253 q 800 218 824 231 q 744 194 776 206 q 663 183 711 183 q 538 208 596 183 q 438 278 481 233 q 369 388 394 324 q 344 529 344 451 q 368 671 344 607 q 433 780 392 735 q 529 850 474 825 q 649 875 585 875 m 14 853 l 263 853 l 263 850 q 200 839 219 850 q 181 799 181 828 l 181 15 q 299 12 238 15 q 423 5 361 8 q 544 -2 485 1 q 658 -6 604 -6 q 749 -2 707 -6 q 823 11 790 1 q 877 37 856 21 q 907 78 899 53 l 915 75 q 875 3 903 35 q 810 -48 851 -25 q 703 -71 769 -71 q 586 -60 640 -71 q 471 -35 532 -49 q 335 -10 410 -21 q 157 1 260 1 l 14 1 l 14 6 q 78 17 58 6 q 97 57 97 28 l 97 799 q 78 839 97 828 q 14 850 58 850 l 14 853 z "},"":{"ha":1007,"x_min":14,"x_max":1007,"o":"m 340 853 l 589 853 l 589 850 q 526 839 546 850 q 507 799 507 828 l 507 494 l 783 799 q 800 839 810 828 q 747 850 790 850 l 747 853 l 935 853 l 935 850 q 863 839 896 850 q 804 799 831 828 l 629 606 l 899 57 q 938 17 914 28 q 1007 6 963 6 l 1007 1 l 742 1 l 742 6 q 798 17 782 6 q 799 57 814 28 l 564 535 l 507 471 l 507 276 q 526 236 507 247 q 589 225 546 225 l 589 222 l 340 222 l 340 225 q 404 236 385 225 q 424 276 424 247 l 424 799 q 404 839 424 828 q 340 850 385 850 l 340 853 m 14 853 l 263 853 l 263 850 q 200 839 219 850 q 181 799 181 828 l 181 15 q 301 4 233 15 q 431 -7 368 -7 q 516 5 479 -7 q 571 51 553 17 l 578 49 q 550 -8 568 17 q 510 -47 535 -29 q 447 -64 485 -64 q 383 -53 413 -64 q 320 -31 353 -43 q 249 -9 288 -19 q 157 1 210 1 l 14 1 l 14 6 q 78 17 58 6 q 97 57 97 28 l 97 799 q 78 839 97 828 q 14 850 58 850 l 14 853 z "},"":{"ha":1143,"x_min":14,"x_max":1129,"o":"m 494 853 l 740 301 l 985 853 l 1129 853 l 1129 850 q 1066 839 1086 850 q 1046 799 1046 828 l 1046 57 q 1066 17 1046 28 q 1129 6 1086 6 l 1129 1 l 881 1 l 881 6 q 943 17 924 6 q 963 57 963 28 l 963 767 l 699 169 l 436 767 l 436 276 q 456 236 436 247 q 519 225 476 225 l 519 222 l 340 222 l 340 225 q 403 236 383 225 q 422 276 422 247 l 422 799 q 403 839 422 828 q 340 850 383 850 l 340 853 l 494 853 m 14 853 l 263 853 l 263 850 q 199 839 219 850 q 179 799 179 828 l 179 15 q 300 4 232 15 q 431 -7 368 -7 q 515 5 478 -7 q 569 51 553 17 l 578 49 q 550 -8 567 17 q 510 -47 535 -29 q 447 -64 485 -64 q 383 -53 413 -64 q 320 -31 353 -43 q 249 -9 288 -19 q 157 1 210 1 l 14 1 l 14 6 q 76 17 57 6 q 96 57 96 28 l 96 799 q 76 839 96 828 q 14 850 57 850 l 14 853 z "},"":{"ha":928,"x_min":14,"x_max":914,"o":"m 511 853 l 817 231 l 817 799 q 797 839 817 828 q 735 850 778 850 l 735 853 l 914 853 l 914 850 q 851 839 871 850 q 831 799 831 828 l 831 -12 l 436 792 l 436 276 q 456 236 436 247 q 519 225 475 225 l 519 222 l 340 222 l 340 225 q 403 236 383 225 q 422 276 422 247 l 422 799 q 403 839 422 828 q 340 850 383 850 l 340 853 l 511 853 m 14 6 q 76 17 57 6 q 96 57 96 28 l 96 799 q 76 839 96 828 q 14 850 57 850 l 14 853 l 263 853 l 263 850 q 199 839 218 850 q 179 799 179 828 l 179 15 q 236 12 206 15 q 299 4 267 8 q 366 -3 332 0 q 431 -7 400 -7 q 515 5 478 -7 q 569 51 551 17 l 578 49 q 550 -8 567 17 q 510 -47 535 -29 q 447 -64 485 -64 q 383 -53 413 -64 q 319 -31 353 -43 q 247 -9 286 -19 q 156 1 208 1 l 14 1 l 14 6 z "},"":{"ha":833,"x_min":14,"x_max":819,"o":"m 14 6 q 78 17 58 6 q 97 57 97 28 l 97 799 q 78 839 97 828 q 14 850 58 850 l 14 853 l 264 853 l 264 850 q 200 839 219 850 q 181 799 181 828 l 181 15 q 404 5 296 15 q 600 -6 513 -6 q 735 11 679 -6 q 811 78 790 28 l 819 75 q 781 3 807 35 q 723 -48 760 -25 q 628 -71 686 -71 q 533 -60 576 -71 q 439 -35 490 -49 q 322 -10 388 -21 q 157 1 256 1 l 14 1 l 14 6 m 565 853 l 565 850 q 512 840 529 850 q 494 806 494 831 l 494 233 l 585 233 q 667 246 635 233 q 718 279 699 258 q 749 326 738 300 q 768 381 760 353 l 778 376 l 740 222 l 340 222 l 340 225 q 395 235 378 225 q 413 269 413 244 l 413 806 q 395 840 413 831 q 340 850 378 850 l 340 853 l 565 853 z "},"":{"ha":758,"x_min":14,"x_max":744,"o":"m 14 6 q 76 17 57 6 q 96 57 96 28 l 96 799 q 76 839 96 828 q 14 850 57 850 l 14 853 l 263 853 l 263 850 q 199 839 218 850 q 179 799 179 828 l 179 15 q 390 5 294 15 q 558 -6 485 -6 q 670 11 625 -6 q 736 78 715 28 l 744 75 q 714 3 733 35 q 667 -48 696 -25 q 593 -71 638 -71 q 501 -60 543 -71 q 412 -35 460 -49 q 303 -10 364 -21 q 156 1 243 1 l 14 1 l 14 6 m 649 842 l 553 842 q 471 829 503 842 q 419 796 439 817 q 389 749 400 775 q 369 694 378 722 l 360 699 l 397 853 l 744 853 l 744 842 l 439 233 l 553 233 q 635 246 603 233 q 686 279 667 258 q 717 326 706 300 q 736 381 728 353 l 744 376 l 708 222 l 338 222 l 649 842 z "},"":{"ha":788,"x_min":14,"x_max":774,"o":"m 14 853 l 263 853 l 263 850 q 199 839 218 850 q 179 799 179 828 l 179 15 q 390 5 294 15 q 558 -6 485 -6 q 670 11 625 -6 q 736 78 715 28 l 743 75 q 713 3 733 35 q 667 -48 696 -25 q 593 -71 638 -71 q 501 -60 543 -71 q 412 -35 460 -49 q 303 -10 364 -21 q 156 1 243 1 l 14 1 l 14 6 q 76 17 57 6 q 96 57 96 28 l 96 799 q 76 839 96 828 q 14 850 57 850 l 14 853 m 338 253 l 338 256 q 391 265 374 256 q 408 300 408 275 l 408 806 q 391 840 408 831 q 338 850 374 850 l 338 853 l 713 853 l 750 699 l 740 694 q 722 749 732 722 q 692 796 711 775 q 640 829 672 817 q 558 842 608 842 l 490 842 l 490 593 l 576 593 q 612 610 603 593 q 621 664 621 628 l 631 664 l 631 510 l 621 510 q 612 564 621 547 q 576 581 603 581 l 490 581 l 490 264 l 582 264 q 664 276 632 264 q 715 310 696 289 q 745 357 735 331 q 764 411 756 383 l 774 408 l 736 253 l 338 253 z "},"":{"ha":789,"x_min":14,"x_max":775,"o":"m 338 253 l 338 256 q 392 265 375 256 q 410 300 410 275 l 410 806 q 392 840 410 831 q 338 850 375 850 l 338 853 l 506 853 q 593 847 546 853 q 681 821 640 840 q 748 766 721 801 q 775 671 775 731 q 748 576 775 611 q 681 521 721 540 q 593 495 640 501 q 506 489 546 489 l 492 489 l 492 300 q 509 265 492 275 q 563 256 526 256 l 563 253 l 338 253 m 97 57 l 97 799 q 78 839 97 828 q 14 850 58 850 l 14 853 l 263 853 l 263 850 q 200 839 219 850 q 181 799 181 828 l 181 15 q 301 4 233 15 q 431 -7 368 -7 q 516 5 479 -7 q 571 51 553 17 l 578 49 q 550 -8 568 17 q 510 -47 535 -29 q 447 -64 485 -64 q 383 -53 414 -64 q 320 -31 353 -43 q 249 -9 288 -19 q 157 1 210 1 l 14 1 l 14 6 q 78 17 58 6 q 97 57 97 28 m 492 842 l 492 500 l 519 500 q 574 506 544 500 q 631 528 604 511 q 675 580 657 546 q 693 671 693 614 q 675 762 693 728 q 631 814 657 796 q 574 837 604 832 q 519 842 544 842 l 492 842 z "},"":{"ha":879,"x_min":14,"x_max":865,"o":"m 338 853 l 560 853 q 667 835 613 853 q 765 781 721 818 q 838 688 810 744 q 865 553 865 632 q 838 417 865 474 q 765 324 810 361 q 667 270 721 288 q 560 253 613 253 l 338 253 l 338 256 q 392 265 375 256 q 408 300 408 275 l 408 806 q 392 840 408 831 q 338 850 375 850 l 338 853 m 540 265 q 628 279 585 267 q 706 323 672 292 q 762 410 740 354 q 783 553 783 465 q 760 703 783 647 q 698 791 736 760 q 613 832 660 822 q 519 842 565 842 l 490 842 l 490 318 q 501 281 490 294 q 540 265 511 268 m 97 57 l 97 799 q 77 839 97 828 q 14 850 57 850 l 14 853 l 263 853 l 263 850 q 200 839 219 850 q 181 799 181 828 l 181 15 q 390 5 294 15 q 558 -6 485 -6 q 670 11 625 -6 q 736 78 715 28 l 744 75 q 714 3 735 35 q 668 -48 697 -25 q 593 -71 639 -71 q 501 -60 543 -71 q 413 -35 460 -49 q 305 -10 365 -21 q 157 1 244 1 l 14 1 l 14 6 q 77 17 57 6 q 97 57 97 28 z "},"":{"ha":849,"x_min":14,"x_max":835,"o":"m 338 853 l 535 853 q 703 822 643 853 q 764 719 764 790 q 732 640 764 668 q 639 599 700 611 q 713 584 678 594 q 776 553 749 574 q 819 501 803 532 q 835 426 835 471 q 813 342 835 375 q 757 289 792 308 q 677 261 722 269 q 586 253 632 253 l 338 253 l 338 256 q 392 265 375 256 q 410 300 410 275 l 410 806 q 392 840 410 831 q 338 850 375 850 l 338 853 m 14 850 l 14 853 l 263 853 l 263 850 q 200 839 219 850 q 181 799 181 828 l 181 15 q 390 5 294 15 q 558 -6 485 -6 q 670 11 625 -6 q 736 78 715 28 l 744 75 q 714 3 735 35 q 668 -48 697 -25 q 594 -71 639 -71 q 501 -60 543 -71 q 413 -35 460 -49 q 305 -10 365 -21 q 157 1 244 1 l 14 1 l 14 6 q 78 17 58 6 q 97 57 97 28 l 97 799 q 78 839 97 828 q 14 850 58 850 m 492 589 l 492 286 q 553 264 510 264 l 578 264 q 642 272 611 264 q 698 297 674 279 q 738 347 722 315 q 753 426 753 379 q 738 506 753 475 q 698 556 722 538 q 642 581 674 574 q 578 589 611 589 l 492 589 m 492 842 l 492 601 l 556 601 q 650 628 618 603 q 682 719 682 653 q 647 815 682 789 q 546 842 613 842 l 492 842 z "},"":{"ha":821,"x_min":14,"x_max":807,"o":"m 303 253 l 303 256 q 356 265 339 256 q 374 300 374 275 l 374 486 q 384 638 374 569 q 422 753 394 706 q 501 827 450 801 q 633 853 553 853 l 736 853 l 736 300 q 753 265 736 275 q 807 256 769 256 l 807 253 l 582 253 l 582 256 q 637 265 619 256 q 654 300 654 275 l 654 539 l 456 539 l 456 300 q 473 265 456 275 q 528 256 490 256 l 528 253 l 303 253 m 14 6 q 78 17 58 6 q 97 57 97 28 l 97 799 q 78 839 97 828 q 14 850 58 850 l 14 853 l 263 853 l 263 850 q 200 839 219 850 q 181 799 181 828 l 181 15 q 390 5 294 15 q 558 -6 485 -6 q 671 11 625 -6 q 738 78 717 28 l 744 75 q 714 3 735 35 q 668 -48 697 -25 q 594 -71 639 -71 q 503 -60 544 -71 q 413 -35 461 -49 q 305 -10 365 -21 q 157 1 244 1 l 14 1 l 14 6 m 654 551 l 654 839 l 631 839 q 546 819 579 839 q 494 763 513 800 q 467 673 475 726 q 457 551 458 619 l 654 551 z "},"":{"ha":915,"x_min":14,"x_max":901,"o":"m 565 853 l 565 850 q 511 840 528 850 q 494 806 494 831 l 494 571 l 749 571 l 749 806 q 731 840 749 831 q 676 850 714 850 l 676 853 l 901 853 l 901 850 q 847 840 864 850 q 829 806 829 831 l 829 269 q 847 235 829 244 q 901 225 864 225 l 901 222 l 676 222 l 676 225 q 731 235 714 225 q 749 269 749 244 l 749 560 l 494 560 l 494 269 q 511 235 494 244 q 565 225 528 225 l 565 222 l 340 222 l 340 225 q 395 235 378 225 q 413 269 413 244 l 413 806 q 395 840 413 831 q 340 850 378 850 l 340 853 l 565 853 m 14 6 q 78 17 58 6 q 97 57 97 28 l 97 799 q 78 839 97 828 q 14 850 58 850 l 14 853 l 264 853 l 264 850 q 200 839 219 850 q 181 799 181 828 l 181 15 q 302 11 240 15 q 425 1 364 7 q 544 -8 486 -4 q 654 -12 603 -12 q 802 6 740 -12 q 885 78 864 25 l 893 75 q 857 6 882 36 q 795 -42 835 -21 q 689 -64 756 -64 q 582 -53 633 -64 q 470 -31 531 -43 q 335 -9 410 -19 q 157 1 260 1 l 14 1 l 14 6 z "},"":{"ha":958,"x_min":14,"x_max":944,"o":"m 14 6 q 76 17 57 6 q 96 57 96 28 l 96 799 q 76 839 96 828 q 14 850 57 850 l 14 853 l 263 853 l 263 850 q 199 839 219 850 q 179 799 179 828 l 179 15 q 301 11 239 15 q 424 1 364 7 q 543 -8 485 -4 q 653 -12 601 -12 q 801 6 740 -12 q 885 78 863 25 l 892 75 q 856 6 881 36 q 794 -42 833 -21 q 688 -64 754 -64 q 581 -53 632 -64 q 469 -31 529 -43 q 335 -9 410 -19 q 157 1 260 1 l 14 1 l 14 6 m 324 853 l 547 853 l 547 850 q 494 840 511 850 q 476 806 476 831 l 476 457 q 490 350 476 393 q 528 281 504 307 q 587 243 553 254 q 660 232 621 232 q 804 288 747 232 q 861 457 861 344 l 861 806 q 844 840 861 831 q 789 850 826 850 l 789 853 l 944 853 l 944 850 q 890 840 907 850 q 872 806 872 831 l 872 457 q 847 327 872 376 q 785 251 822 278 q 709 217 749 225 q 640 208 669 208 q 549 224 593 208 q 469 270 504 239 q 415 348 435 301 q 394 457 394 394 l 394 806 q 377 840 394 831 q 324 850 360 850 l 324 853 z "},"":{"ha":603,"x_min":14,"x_max":589,"o":"m 14 6 q 76 17 57 6 q 96 57 96 28 l 96 799 q 76 839 96 828 q 14 850 57 850 l 14 853 l 263 853 l 263 850 q 199 839 218 850 q 179 799 179 828 l 179 15 q 300 4 232 15 q 431 -7 368 -7 q 515 5 478 -7 q 569 51 553 17 l 578 49 q 550 -8 567 17 q 510 -47 535 -29 q 447 -64 485 -64 q 383 -53 413 -64 q 319 -31 353 -43 q 247 -9 286 -19 q 157 1 208 1 l 14 1 l 14 6 m 340 853 l 589 853 l 589 850 q 525 839 544 850 q 506 799 506 828 l 506 276 q 525 236 506 247 q 589 225 544 225 l 589 222 l 340 222 l 340 225 q 403 236 383 225 q 422 276 422 247 l 422 799 q 403 839 422 828 q 340 850 383 850 l 340 853 z "},"":{"ha":997,"x_min":14,"x_max":983,"o":"m 14 6 q 78 17 58 6 q 97 57 97 28 l 97 799 q 78 839 97 828 q 14 850 58 850 l 14 853 l 186 853 l 492 231 l 492 799 q 472 839 492 828 q 410 850 453 850 l 410 853 l 582 853 l 888 231 l 888 799 q 867 839 888 828 q 804 850 847 850 l 804 853 l 983 853 l 983 850 q 921 839 940 850 q 901 799 901 828 l 901 -12 l 506 792 l 506 -12 l 111 792 l 111 57 q 131 17 111 28 q 194 6 150 6 l 194 1 l 14 1 l 14 6 z "},"":{"ha":1110,"x_min":14,"x_max":1096,"o":"m 14 850 l 14 853 l 265 853 q 385 842 328 853 q 487 804 443 831 q 556 734 531 778 q 582 625 582 690 q 530 481 582 532 q 397 411 478 431 l 406 396 q 474 260 438 329 q 560 135 511 192 q 672 44 608 79 q 824 8 736 8 q 938 30 890 8 q 1018 78 986 51 q 1079 147 1054 108 l 1089 139 q 1013 54 1058 92 q 913 -5 974 22 q 765 -32 853 -32 q 628 -9 688 -32 q 522 53 568 14 q 439 145 475 92 q 374 258 403 199 l 304 399 q 285 398 294 399 q 265 397 275 397 l 181 397 l 181 56 q 200 17 181 28 q 263 6 219 6 l 263 1 l 14 1 l 14 6 q 77 17 57 6 q 97 57 97 28 l 97 799 q 77 839 97 828 q 14 850 57 850 m 181 839 l 181 411 l 260 411 q 340 417 297 411 q 417 443 382 422 q 476 507 453 464 q 499 625 499 550 q 476 743 499 700 q 417 808 453 786 q 340 834 382 829 q 260 839 297 839 l 181 839 m 1042 853 l 1075 711 l 1067 708 q 1049 758 1058 733 q 1021 801 1039 782 q 974 831 1003 819 q 899 843 944 843 l 814 843 l 814 631 l 917 631 q 949 646 940 631 q 957 696 957 661 l 965 696 l 965 554 l 957 554 q 949 604 957 589 q 917 619 940 619 l 814 619 l 814 264 l 921 264 q 996 276 967 264 q 1043 306 1025 288 q 1070 349 1061 325 q 1088 397 1079 372 l 1096 394 l 1063 253 l 668 253 l 668 256 q 718 264 703 256 q 733 296 733 272 l 733 810 q 718 842 733 833 q 668 850 703 850 l 668 853 l 1042 853 z "},"":{"ha":1264,"x_min":14,"x_max":1250,"o":"m 97 57 l 97 799 q 77 839 97 828 q 14 850 57 850 l 14 853 l 265 853 q 385 842 328 853 q 487 804 443 831 q 556 734 531 778 q 582 625 582 690 q 530 481 582 532 q 397 411 478 431 l 406 396 q 478 260 438 329 q 574 135 519 192 q 701 44 629 79 q 869 8 774 8 q 1001 30 944 8 q 1097 78 1058 51 q 1178 147 1143 108 l 1188 139 q 1094 54 1149 92 q 977 -5 1047 22 q 811 -32 907 -32 q 666 -9 733 -32 q 544 53 599 14 q 446 145 489 92 q 374 258 403 199 l 304 399 q 285 398 294 399 q 265 397 275 397 l 181 397 l 181 56 q 200 17 181 28 q 263 6 219 6 l 263 1 l 14 1 l 14 6 q 77 17 57 6 q 97 57 97 28 m 181 411 l 260 411 q 340 417 297 411 q 417 443 382 422 q 476 507 453 464 q 499 625 499 550 q 476 743 499 700 q 417 808 453 786 q 340 834 382 829 q 260 839 297 839 l 181 839 l 181 411 m 885 853 l 885 850 q 833 841 849 850 q 817 808 817 832 l 817 461 q 828 361 817 401 q 863 296 840 321 q 915 260 885 271 q 983 250 946 250 q 1119 303 1067 250 q 1171 461 1171 356 l 1171 808 q 1156 841 1171 832 q 1104 850 1140 850 l 1104 853 l 1250 853 l 1250 850 q 1199 841 1214 850 q 1183 808 1183 832 l 1183 461 q 1160 340 1183 386 q 1101 269 1136 294 q 1030 236 1067 244 q 965 228 993 228 q 879 242 921 228 q 806 286 838 257 q 754 359 774 315 q 735 461 735 403 l 735 808 q 719 841 735 832 q 668 850 703 850 l 668 853 l 885 853 z "},"":{"ha":1346,"x_min":14,"x_max":1332,"o":"m 686 551 q 708 675 686 617 q 772 778 731 733 q 874 849 814 822 q 1008 875 933 875 q 1143 849 1083 875 q 1245 778 1203 822 q 1310 675 1288 733 q 1332 551 1332 617 q 1310 428 1332 488 q 1245 325 1288 369 q 1143 254 1203 281 q 1008 228 1083 228 q 874 254 933 228 q 772 325 814 281 q 708 428 731 369 q 686 551 686 488 m 14 6 q 76 17 57 6 q 96 57 96 28 l 96 799 q 76 839 96 828 q 14 850 57 850 l 14 853 l 264 853 q 384 842 326 853 q 485 804 442 831 q 555 734 529 778 q 581 625 581 690 q 528 481 581 532 q 397 411 476 431 l 429 346 q 638 90 513 178 q 926 1 763 1 q 1078 22 1014 1 q 1183 65 1142 42 q 1264 129 1231 93 l 1274 119 q 1185 44 1239 76 q 1067 -8 1139 15 q 892 -32 994 -32 q 716 -13 796 -32 q 569 47 636 6 q 447 153 503 88 q 344 315 392 219 l 304 399 q 284 398 293 399 q 264 397 275 397 l 179 397 l 179 56 q 199 17 179 28 q 263 6 218 6 l 263 1 l 14 1 l 14 6 m 1008 239 q 1185 324 1126 239 q 1244 551 1244 408 q 1185 779 1244 694 q 1008 864 1126 864 q 833 779 892 864 q 774 551 774 694 q 833 324 774 408 q 1008 239 892 239 m 179 411 l 258 411 q 338 417 296 411 q 416 443 381 422 q 474 507 451 464 q 497 625 497 550 q 474 743 497 700 q 416 808 451 786 q 338 834 381 829 q 258 839 296 839 l 179 839 l 179 411 z "},"":{"ha":1246,"x_min":14,"x_max":1232,"o":"m 96 57 l 96 799 q 76 839 96 828 q 14 850 57 850 l 14 853 l 264 853 q 384 842 326 853 q 485 804 442 831 q 556 734 529 778 q 582 625 582 690 q 529 481 582 532 q 397 411 476 431 l 429 346 q 638 90 513 178 q 926 1 763 1 q 1057 22 1001 1 q 1150 65 1113 42 q 1224 129 1193 93 l 1232 119 q 1146 44 1196 76 q 1040 -8 1103 15 q 892 -32 976 -32 q 724 -13 803 -32 q 577 47 646 6 q 451 153 508 88 q 346 315 393 219 l 304 399 q 284 398 293 399 q 264 397 275 397 l 179 397 l 179 56 q 199 17 179 28 q 263 6 219 6 l 263 1 l 14 1 l 14 6 q 76 17 57 6 q 96 57 96 28 m 179 839 l 179 411 l 260 411 q 340 417 297 411 q 417 443 382 422 q 476 507 453 464 q 499 625 499 550 q 476 743 499 700 q 417 808 453 786 q 340 834 382 829 q 260 839 297 839 l 179 839 m 686 551 q 708 684 686 625 q 769 786 731 743 q 859 852 807 829 q 971 875 911 875 q 1047 866 1015 875 q 1101 846 1079 857 q 1136 827 1124 835 q 1156 821 1149 819 q 1162 830 1161 824 q 1161 844 1163 836 q 1157 864 1160 853 l 1167 868 l 1221 703 l 1210 699 q 1154 778 1188 743 q 1085 833 1126 808 q 986 857 1044 857 q 910 837 949 857 q 841 777 872 817 q 790 681 810 738 q 769 551 769 625 q 793 415 769 472 q 851 319 817 357 q 926 263 886 281 q 996 244 965 244 q 1104 267 1061 244 q 1174 317 1147 289 q 1222 389 1204 349 l 1232 386 q 1179 307 1213 342 q 1103 253 1150 278 q 985 228 1056 228 q 868 251 922 228 q 774 317 814 274 q 710 419 733 360 q 686 551 686 479 z "},"":{"ha":1160,"x_min":14,"x_max":1146,"o":"m 14 1 l 14 6 q 78 17 58 6 q 97 57 97 28 l 97 799 q 78 839 97 828 q 14 850 58 850 l 14 853 l 265 853 q 385 842 328 853 q 487 804 443 831 q 556 734 531 778 q 582 625 582 690 q 530 481 582 532 q 397 411 478 431 l 406 396 q 476 260 439 329 q 561 135 513 192 q 674 44 610 79 q 825 8 738 8 q 951 30 899 8 q 1040 78 1004 51 q 1110 147 1081 108 l 1119 139 q 1035 54 1086 92 q 925 -5 992 22 q 767 -32 858 -32 q 628 -9 689 -32 q 522 53 568 14 q 439 145 475 92 q 374 258 403 199 l 304 399 q 285 398 294 399 q 265 397 275 397 l 181 397 l 181 56 q 200 17 181 28 q 263 6 219 6 l 263 1 l 14 1 m 640 253 l 640 256 q 695 265 678 256 q 713 300 713 275 l 713 486 q 723 638 713 569 q 761 753 733 706 q 840 827 789 801 q 971 853 890 853 l 1074 853 l 1074 300 q 1091 265 1074 275 q 1146 256 1108 256 l 1146 253 l 921 253 l 921 256 q 976 265 958 256 q 993 300 993 275 l 993 539 l 794 539 l 794 300 q 811 265 794 275 q 865 256 828 256 l 865 253 l 640 253 m 260 411 q 340 417 297 411 q 417 443 382 422 q 476 507 453 464 q 499 625 499 550 q 476 743 499 700 q 417 808 453 786 q 340 834 382 829 q 260 839 297 839 l 181 839 l 181 411 l 260 411 m 993 551 l 993 839 l 969 839 q 885 819 918 839 q 832 763 851 800 q 805 673 813 726 q 794 551 797 619 l 993 551 z "},"":{"ha":1217,"x_min":14,"x_max":1203,"o":"m 14 850 l 14 853 l 265 853 q 385 842 328 853 q 487 804 443 831 q 556 734 531 778 q 582 625 582 690 q 530 481 582 532 q 397 411 478 431 l 406 396 q 477 258 439 328 q 567 129 515 188 q 651 197 599 171 q 775 222 703 222 q 879 198 836 222 q 945 138 922 174 q 970 59 968 101 q 951 -19 972 17 q 888 -80 931 -56 q 775 -104 844 -104 l 775 -94 q 844 -72 817 -94 q 883 -16 871 -50 q 893 58 894 18 q 876 131 892 97 q 831 188 860 165 q 761 210 803 210 q 669 173 707 210 q 612 81 631 136 q 596 -40 593 25 q 626 -160 599 -104 q 708 -252 654 -215 q 847 -289 763 -289 q 961 -265 911 -289 q 1047 -201 1011 -242 q 1101 -104 1082 -160 q 1119 15 1119 -49 q 1088 151 1119 89 q 1009 268 1057 213 q 906 375 961 324 q 803 477 851 426 q 724 581 756 528 q 693 694 693 635 q 706 759 693 728 q 746 815 719 790 q 812 853 772 839 q 904 867 851 867 q 976 858 946 867 q 1026 840 1006 850 q 1060 823 1047 831 q 1081 818 1074 815 q 1088 828 1086 821 q 1088 847 1089 836 q 1083 872 1086 858 l 1094 875 l 1133 674 l 1121 668 q 1072 761 1101 719 q 1010 824 1049 796 q 918 853 971 853 q 815 816 854 853 q 776 722 776 779 q 808 628 776 674 q 887 535 839 582 q 990 437 935 488 q 1092 328 1044 386 q 1172 203 1140 269 q 1203 57 1203 136 q 1178 -82 1203 -17 q 1107 -197 1153 -147 q 997 -276 1061 -247 q 856 -306 933 -306 q 683 -272 754 -306 q 571 -185 611 -237 q 519 -71 531 -133 q 525 50 508 -8 q 440 143 476 90 q 374 258 404 196 l 304 399 q 285 398 294 399 q 265 397 275 397 l 181 397 l 181 56 q 200 17 181 28 q 263 6 219 6 l 263 1 l 14 1 l 14 6 q 78 17 58 6 q 97 57 97 28 l 97 799 q 78 839 97 828 q 14 850 58 850 m 260 411 q 340 417 297 411 q 417 443 382 422 q 476 507 453 464 q 499 625 499 550 q 476 743 499 700 q 417 808 453 786 q 340 834 382 829 q 260 839 297 839 l 181 839 l 181 411 l 260 411 z "},"":{"ha":1100,"x_min":14,"x_max":1086,"o":"m 28 367 q 64 230 39 296 q 126 113 89 164 q 213 32 164 63 q 321 1 261 1 q 438 47 390 1 q 485 182 485 93 q 453 296 485 249 q 374 380 421 343 q 271 449 326 417 q 168 515 215 481 q 89 592 121 550 q 57 694 57 635 q 70 759 57 728 q 110 815 83 790 q 176 853 136 839 q 269 867 215 867 q 341 858 311 867 q 392 840 371 850 q 425 823 413 831 q 444 818 438 815 q 452 828 451 821 q 453 847 453 836 q 449 872 451 858 l 460 875 l 499 674 l 485 668 q 438 761 465 719 q 374 824 413 796 q 283 853 336 853 q 179 816 218 853 q 140 722 140 779 q 163 651 140 682 q 220 591 185 619 q 299 536 256 563 q 387 481 343 510 q 470 417 431 451 q 535 339 510 382 q 564 257 556 301 q 622 154 589 201 q 691 73 654 107 q 766 20 728 39 q 840 1 804 1 q 956 47 910 1 q 1003 182 1003 93 q 972 296 1003 249 q 892 380 940 343 q 790 449 844 417 q 687 515 735 481 q 608 592 639 550 q 576 694 576 635 q 590 759 576 728 q 629 815 603 790 q 695 853 656 839 q 788 867 735 867 q 859 858 829 867 q 910 840 889 850 q 944 823 931 831 q 964 818 957 815 q 971 828 969 821 q 971 847 972 836 q 968 872 971 858 l 978 875 l 1017 674 l 1004 668 q 956 761 985 719 q 893 824 932 796 q 801 853 854 853 q 699 816 738 853 q 660 722 660 779 q 691 637 660 674 q 770 567 722 600 q 873 502 818 535 q 976 428 928 469 q 1055 335 1024 388 q 1086 210 1086 282 q 1071 124 1086 164 q 1024 53 1056 83 q 946 6 993 24 q 835 -12 899 -12 q 738 9 779 -12 q 664 58 696 31 q 606 108 632 85 q 557 138 581 132 q 477 30 538 72 q 315 -12 417 -12 q 212 11 257 -12 q 133 63 167 35 q 78 112 100 90 q 44 131 56 133 q 34 120 38 128 q 28 103 31 113 q 25 78 25 92 l 14 79 l 14 365 l 28 367 z "},"":{"ha":1036,"x_min":0,"x_max":1036,"o":"m 43 853 l 994 853 l 1036 674 l 1026 669 q 1003 732 1017 701 q 968 786 990 763 q 909 824 946 810 q 814 839 872 839 l 760 839 l 760 57 q 780 17 760 28 q 843 6 800 6 l 843 1 l 594 1 l 594 6 q 657 17 638 6 q 676 57 676 28 l 676 839 l 360 839 l 360 57 q 379 17 360 28 q 442 6 399 6 l 442 1 l 193 1 l 193 6 q 257 17 238 6 q 276 57 276 28 l 276 839 l 222 839 q 127 824 164 839 q 68 786 90 810 q 33 732 46 763 q 11 669 21 701 l 0 674 l 43 853 z "},"":{"ha":1017,"x_min":0,"x_max":1003,"o":"m 43 853 l 1003 853 l 1003 839 l 618 15 l 767 15 q 862 30 825 15 q 921 68 899 44 q 956 122 943 92 q 978 185 968 153 l 989 181 l 946 1 l 517 1 l 908 839 l 781 839 q 685 824 722 839 q 626 786 649 810 q 592 732 604 763 q 569 669 579 701 l 558 674 l 599 839 l 360 839 l 360 57 q 379 17 360 28 q 442 6 399 6 l 442 1 l 193 1 l 193 6 q 257 17 238 6 q 276 57 276 28 l 276 839 l 222 839 q 127 824 164 839 q 68 786 90 810 q 33 732 46 763 q 11 669 21 701 l 0 674 l 43 853 z "},"":{"ha":653,"x_min":14,"x_max":639,"o":"m 14 654 l 14 658 l 229 658 l 229 654 q 175 645 192 654 q 158 611 158 636 l 158 15 q 223 12 188 15 q 297 6 258 8 q 374 0 335 3 q 450 -3 414 -3 q 565 11 515 -3 q 625 64 614 25 l 629 63 q 608 1 624 28 q 573 -42 596 -22 q 513 -61 550 -61 q 430 -51 471 -61 q 346 -30 389 -42 q 257 -8 303 -18 q 158 1 211 1 l 14 1 l 14 4 q 69 14 51 4 q 86 49 86 24 l 86 611 q 69 645 86 636 q 14 654 51 654 m 258 658 l 579 658 l 615 503 l 607 499 q 588 553 599 526 q 557 600 576 579 q 506 633 538 621 q 424 646 474 646 l 401 646 l 401 443 l 457 443 q 492 460 482 443 q 501 514 501 476 l 510 514 l 510 358 l 501 358 q 492 413 501 396 q 457 431 482 431 l 401 431 l 401 182 l 447 182 q 529 194 497 182 q 581 228 561 207 q 611 275 600 249 q 631 329 622 301 l 639 325 l 603 171 l 258 171 l 258 174 q 313 183 296 174 q 331 218 331 193 l 331 611 q 313 645 331 636 q 258 654 296 654 l 258 658 z "},"":{"ha":768,"x_min":14,"x_max":754,"o":"m 460 658 l 460 654 q 413 645 422 654 q 403 611 403 636 l 403 465 l 610 465 l 610 611 q 599 645 610 636 q 553 654 589 654 l 553 658 l 754 658 l 754 654 q 699 645 717 654 q 682 611 682 636 l 682 218 q 699 183 682 193 q 754 174 717 174 l 754 171 l 553 171 l 553 174 q 599 183 589 174 q 610 218 610 193 l 610 453 l 403 453 l 403 218 q 413 183 403 193 q 460 174 422 174 l 460 171 l 258 171 l 258 174 q 313 183 296 174 q 331 218 331 193 l 331 611 q 313 645 331 636 q 258 654 296 654 l 258 658 l 460 658 m 14 658 l 229 658 l 229 654 q 176 645 193 654 q 158 611 158 636 l 158 15 q 230 12 189 15 q 317 6 271 8 q 414 0 364 3 q 511 -3 464 -3 q 592 0 553 -3 q 660 10 631 3 q 710 31 690 18 q 736 64 731 44 l 740 63 q 722 1 738 28 q 679 -42 708 -22 q 596 -61 650 -61 q 492 -51 547 -61 q 381 -30 438 -42 q 267 -8 324 -18 q 158 1 211 1 l 14 1 l 14 4 q 69 14 51 4 q 86 49 86 24 l 86 611 q 69 645 86 636 q 14 654 51 654 l 14 658 z "},"":{"ha":488,"x_min":14,"x_max":474,"o":"m 14 4 q 69 14 51 4 q 86 49 86 24 l 86 611 q 69 645 86 636 q 14 654 51 654 l 14 658 l 229 658 l 229 654 q 174 645 192 654 q 157 611 157 636 l 157 10 q 273 -5 214 7 q 379 -17 332 -17 q 438 -6 414 -17 q 468 33 461 4 l 474 32 q 458 -15 469 6 q 431 -47 449 -32 q 381 -61 413 -61 q 326 -51 354 -61 q 268 -30 299 -42 q 201 -8 238 -18 q 121 1 165 1 l 14 1 l 14 4 m 474 658 l 474 654 q 419 645 436 654 q 401 611 401 636 l 401 190 q 419 156 401 165 q 474 146 436 146 l 474 143 l 258 143 l 258 146 q 313 156 296 146 q 329 190 329 165 l 329 611 q 313 645 329 636 q 258 654 296 654 l 258 658 l 474 658 z "},"":{"ha":653,"x_min":14,"x_max":639,"o":"m 14 4 q 68 14 51 4 q 85 49 85 24 l 85 611 q 68 645 85 636 q 14 654 51 654 l 14 658 l 229 658 l 229 654 q 174 645 192 654 q 157 611 157 636 l 157 15 q 222 12 186 15 q 297 6 258 8 q 374 0 335 3 q 449 -3 413 -3 q 563 11 514 -3 q 624 64 613 25 l 629 63 q 608 1 624 28 q 573 -42 596 -22 q 513 -61 550 -61 q 430 -51 471 -61 q 345 -30 389 -42 q 256 -8 301 -18 q 157 1 210 1 l 14 1 l 14 4 m 474 658 l 474 654 q 419 645 436 654 q 401 611 401 636 l 401 182 l 447 182 q 529 194 497 182 q 581 228 561 207 q 610 275 600 249 q 629 329 621 301 l 639 325 l 601 171 l 258 171 l 258 174 q 312 183 294 174 q 329 218 329 193 l 329 611 q 312 645 329 636 q 258 654 294 654 l 258 658 l 474 658 z "},"":{"ha":792,"x_min":14,"x_max":792,"o":"m 257 658 l 472 658 l 472 654 q 417 645 435 654 q 400 611 400 636 l 400 343 l 607 611 q 617 645 626 636 q 569 654 607 654 l 569 658 l 729 658 l 729 654 q 669 645 696 654 q 622 611 642 636 l 500 451 l 699 49 q 733 14 711 24 q 792 4 754 4 l 792 1 l 563 1 l 563 4 q 610 14 597 4 q 611 49 624 24 l 447 383 l 400 324 l 400 197 q 417 163 400 172 q 472 153 435 153 l 472 149 l 257 149 l 257 153 q 311 163 294 153 q 328 197 328 172 l 328 611 q 311 645 328 636 q 257 654 294 654 l 257 658 m 229 658 l 229 654 q 176 645 193 654 q 158 611 158 636 l 158 10 q 273 -4 214 7 q 381 -15 332 -15 q 438 -5 414 -15 q 469 33 461 6 l 474 32 q 458 -15 469 6 q 431 -47 449 -32 q 381 -61 413 -61 q 326 -51 354 -61 q 268 -30 299 -42 q 202 -8 238 -18 q 122 1 167 1 l 14 1 l 14 4 q 69 14 51 4 q 86 49 86 24 l 86 611 q 69 645 86 636 q 14 654 51 654 l 14 658 l 229 658 z "},"":{"ha":939,"x_min":14,"x_max":925,"o":"m 285 142 l 285 144 q 339 154 322 144 q 356 189 356 164 l 356 611 q 339 645 356 636 q 285 654 322 654 l 285 658 l 418 658 l 610 228 l 800 658 l 925 658 l 925 654 q 871 645 888 654 q 854 611 854 636 l 854 49 q 871 14 854 24 q 925 4 888 4 l 925 1 l 710 1 l 710 4 q 765 14 747 4 q 782 49 782 24 l 782 583 l 574 114 l 368 583 l 368 189 q 385 154 368 164 q 440 144 403 144 l 440 142 l 285 142 m 14 658 l 229 658 l 229 654 q 175 645 192 654 q 158 611 158 636 l 158 10 q 273 -4 214 7 q 379 -15 332 -15 q 436 -5 413 -15 q 468 33 460 6 l 474 32 q 458 -15 469 6 q 431 -47 449 -32 q 381 -61 413 -61 q 326 -51 354 -61 q 268 -30 299 -42 q 202 -8 238 -18 q 122 1 167 1 l 14 1 l 14 4 q 69 14 51 4 q 86 49 86 24 l 86 611 q 69 645 86 636 q 14 654 51 654 l 14 658 z "},"":{"ha":794,"x_min":14,"x_max":781,"o":"m 283 142 l 283 144 q 338 154 321 144 q 356 189 356 164 l 356 611 q 338 645 356 636 q 283 654 321 654 l 283 658 l 428 658 l 697 175 l 697 611 q 680 645 697 636 q 625 654 663 654 l 625 658 l 781 658 l 781 654 q 726 645 743 654 q 708 611 708 636 l 708 -11 l 367 601 l 367 189 q 384 154 367 164 q 439 144 401 144 l 439 142 l 283 142 m 14 4 q 67 14 50 4 q 85 49 85 24 l 85 611 q 67 645 85 636 q 14 654 50 654 l 14 658 l 229 658 l 229 654 q 174 645 192 654 q 157 611 157 636 l 157 10 q 219 4 186 8 q 285 -4 251 0 q 353 -12 319 -8 q 417 -15 388 -15 q 489 -5 460 -15 q 526 33 518 6 l 532 32 q 517 -15 528 6 q 489 -47 507 -32 q 439 -61 471 -61 q 376 -51 413 -61 q 297 -30 339 -42 q 210 -8 254 -18 q 121 1 165 1 l 14 1 l 14 4 z "},"":{"ha":813,"x_min":14,"x_max":799,"o":"m 276 410 q 294 510 276 463 q 347 593 313 557 q 429 651 381 629 q 538 672 478 672 q 647 651 599 672 q 728 593 694 629 q 781 510 763 557 q 799 410 799 463 q 781 310 799 358 q 728 227 763 263 q 647 170 694 192 q 538 149 599 149 q 429 170 478 149 q 347 227 381 192 q 294 310 313 263 q 276 410 276 358 m 538 157 q 677 226 626 157 q 728 410 728 294 q 677 594 728 526 q 538 663 626 663 q 397 594 447 663 q 347 410 347 526 q 397 226 347 294 q 538 157 447 157 m 14 4 q 68 14 51 4 q 85 49 85 24 l 85 611 q 68 645 85 636 q 14 654 51 654 l 14 658 l 229 658 l 229 654 q 174 645 192 654 q 157 611 157 636 l 157 15 q 230 11 189 15 q 317 3 271 7 q 413 -5 364 -1 q 507 -8 461 -8 q 644 7 586 -8 q 715 64 701 22 l 721 64 q 703 1 718 29 q 660 -42 689 -22 q 576 -61 631 -61 q 476 -51 528 -61 q 370 -30 424 -42 q 263 -8 317 -18 q 157 1 210 1 l 14 1 l 14 4 z "},"":{"ha":693,"x_min":14,"x_max":679,"o":"m 329 217 l 329 610 q 313 644 329 635 q 258 654 296 654 l 258 658 l 451 658 q 515 649 476 658 q 590 615 554 640 q 653 541 626 589 q 679 414 679 493 q 653 287 679 335 q 590 213 626 239 q 515 178 554 188 q 451 169 476 169 l 258 169 l 258 172 q 313 182 296 172 q 329 217 329 192 m 403 644 l 403 233 q 463 181 403 185 q 517 190 490 182 q 563 224 543 199 q 596 294 583 249 q 608 413 608 339 q 594 539 608 493 q 557 608 581 585 q 503 638 533 632 q 440 644 474 644 l 403 644 m 14 1 l 14 4 q 68 14 51 4 q 85 49 85 24 l 85 611 q 68 645 85 636 q 14 654 51 654 l 14 658 l 229 658 l 229 654 q 174 645 192 654 q 157 611 157 636 l 157 15 q 222 12 186 15 q 297 6 258 8 q 374 0 335 3 q 449 -3 413 -3 q 563 11 514 -3 q 624 64 613 25 l 629 63 q 608 1 624 28 q 573 -42 596 -22 q 513 -61 550 -61 q 430 -51 471 -61 q 345 -30 389 -42 q 256 -8 301 -18 q 157 1 210 1 l 14 1 z "},"":{"ha":889,"x_min":14,"x_max":889,"o":"m 229 658 l 229 654 q 175 645 192 654 q 158 611 158 636 l 158 14 l 225 14 q 299 24 269 14 q 347 53 328 35 q 378 97 367 72 q 400 147 390 121 l 583 681 l 801 49 q 834 14 810 24 q 889 4 858 4 l 889 1 l 665 1 l 665 4 q 717 14 703 4 q 722 49 731 24 l 658 236 l 446 236 l 365 1 l 14 1 l 14 4 q 69 14 51 4 q 86 49 86 24 l 86 611 q 69 645 86 636 q 14 654 51 654 l 14 658 l 229 658 m 450 249 l 654 249 l 551 543 l 450 249 z "},"":{"ha":958,"x_min":0,"x_max":944,"o":"m 0 4 q 56 14 33 4 q 88 49 79 24 l 306 681 l 471 200 q 442 156 450 185 q 432 108 435 128 q 488 196 444 160 q 608 232 532 232 q 706 198 672 232 q 742 124 740 164 q 708 49 743 83 q 597 15 672 15 l 597 24 q 659 55 639 24 q 680 123 679 86 q 662 191 681 160 q 606 222 643 222 q 544 197 569 222 q 508 133 519 171 q 501 49 497 94 q 525 -34 504 4 q 585 -98 546 -72 q 685 -124 625 -124 q 758 -111 724 -124 q 817 -74 792 -99 q 858 -13 843 -50 q 872 72 872 24 q 848 172 872 129 q 787 252 824 215 q 708 322 750 289 q 628 389 665 354 q 567 463 592 424 q 543 550 543 501 q 588 640 543 608 q 700 671 633 671 q 754 664 731 671 q 794 649 778 657 q 822 634 811 640 q 838 629 832 628 q 843 638 842 631 q 843 653 844 644 q 840 675 843 663 l 850 678 l 883 504 l 872 499 q 832 579 856 543 q 782 635 813 610 q 711 660 751 660 q 638 637 661 660 q 615 574 615 614 q 640 495 615 531 q 701 427 664 460 q 780 361 738 394 q 859 290 822 328 q 920 207 896 253 q 944 104 944 161 q 925 3 944 49 q 870 -73 906 -42 q 786 -121 835 -104 q 679 -137 738 -137 q 562 -117 611 -137 q 481 -62 513 -96 q 438 11 450 -29 q 429 90 425 51 l 379 236 l 168 236 l 103 49 q 108 14 94 24 q 160 4 122 4 l 160 1 l 0 1 l 0 4 m 375 249 l 274 543 l 172 249 l 375 249 z "},"":{"ha":949,"x_min":14,"x_max":935,"o":"m 14 658 l 390 658 l 426 503 l 418 499 q 399 553 410 526 q 368 600 388 579 q 317 633 349 621 q 235 646 285 646 l 158 646 l 158 397 l 254 397 q 289 415 279 397 q 299 469 299 432 l 307 469 l 307 314 l 299 314 q 289 369 299 351 q 254 386 279 386 l 158 386 l 158 14 l 264 14 q 383 37 350 14 q 421 94 417 60 q 474 191 429 150 q 599 232 518 232 q 697 198 663 232 q 733 124 732 164 q 699 49 735 83 q 589 15 664 15 l 589 24 q 651 55 631 24 q 672 123 671 86 q 653 191 672 160 q 597 222 635 222 q 536 197 561 222 q 500 133 511 171 q 492 49 489 94 q 517 -34 496 4 q 577 -98 538 -72 q 676 -124 617 -124 q 749 -111 715 -124 q 809 -74 783 -99 q 849 -13 835 -50 q 864 72 864 24 q 840 172 864 129 q 778 252 815 215 q 699 322 742 289 q 620 389 657 354 q 559 463 583 424 q 535 550 535 501 q 580 640 535 608 q 692 671 625 671 q 746 664 722 671 q 786 649 769 657 q 813 634 803 640 q 829 629 824 628 q 835 638 833 631 q 835 653 836 644 q 832 675 835 663 l 842 678 l 875 504 l 864 499 q 824 579 847 543 q 774 635 804 610 q 703 660 743 660 q 630 637 653 660 q 607 574 607 614 q 631 495 607 531 q 692 427 656 460 q 771 361 728 394 q 850 290 814 328 q 910 207 886 253 q 935 104 935 161 q 915 3 935 49 q 860 -73 896 -42 q 777 -121 825 -104 q 671 -137 729 -137 q 515 -97 574 -137 q 433 1 456 -56 l 14 1 l 14 4 q 69 14 51 4 q 86 49 86 24 l 86 611 q 69 645 86 636 q 14 654 51 654 l 14 658 z "},"":{"ha":861,"x_min":14,"x_max":847,"o":"m 229 658 l 229 654 q 176 645 193 654 q 158 611 158 636 l 158 14 l 238 14 q 301 38 274 14 q 335 97 328 61 q 388 192 343 151 q 511 232 432 232 q 610 198 575 232 q 646 124 644 164 q 612 49 647 83 q 501 15 576 15 l 501 24 q 563 55 543 24 q 584 123 583 86 q 566 191 585 160 q 510 222 547 222 q 449 197 474 222 q 413 133 424 171 q 405 49 401 94 q 429 -34 408 4 q 490 -98 450 -72 q 589 -124 529 -124 q 662 -111 628 -124 q 722 -74 696 -99 q 762 -13 747 -50 q 776 72 776 24 q 752 172 776 129 q 691 252 728 215 q 612 322 654 289 q 533 389 569 354 q 472 463 496 424 q 447 550 447 501 q 492 640 447 608 q 603 671 536 671 q 658 664 635 671 q 699 649 682 657 q 726 634 715 640 q 742 629 736 628 q 747 638 746 631 q 747 653 749 644 q 744 675 747 663 l 754 678 l 788 504 l 776 499 q 736 579 760 543 q 686 635 717 610 q 615 660 656 660 q 542 637 565 660 q 519 574 519 614 q 544 495 519 531 q 604 427 568 460 q 683 361 640 394 q 763 290 726 328 q 823 207 799 253 q 847 104 847 161 q 828 3 847 49 q 773 -73 808 -42 q 690 -121 738 -104 q 583 -137 642 -137 q 427 -97 486 -137 q 346 1 368 -56 l 14 1 l 14 4 q 69 14 51 4 q 86 49 86 24 l 86 611 q 69 645 86 636 q 14 654 51 654 l 14 658 l 229 658 z "},"":{"ha":935,"x_min":14,"x_max":921,"o":"m 14 4 q 69 14 51 4 q 86 49 86 24 l 86 611 q 69 645 86 636 q 14 654 51 654 l 14 658 l 229 658 l 229 654 q 175 645 192 654 q 158 611 158 636 l 158 343 l 365 611 q 375 645 385 636 q 328 654 365 654 l 326 654 l 326 658 l 488 658 l 488 654 q 427 645 454 654 q 381 611 400 636 l 258 453 l 424 178 q 403 122 406 151 q 406 68 401 93 q 417 129 406 100 q 450 181 428 158 q 506 218 472 204 q 585 232 540 232 q 683 198 649 232 q 718 124 717 164 q 684 49 719 83 q 574 15 649 15 l 574 24 q 636 55 615 24 q 657 123 657 86 q 638 191 657 160 q 583 222 619 222 q 522 197 547 222 q 485 133 497 171 q 477 49 474 94 q 502 -34 481 4 q 563 -98 524 -72 q 663 -124 603 -124 q 735 -111 701 -124 q 794 -74 769 -99 q 834 -13 819 -50 q 849 72 849 24 q 824 172 849 129 q 764 252 800 215 q 685 322 728 289 q 606 389 642 354 q 545 463 569 424 q 521 550 521 501 q 565 640 521 608 q 676 671 610 671 q 731 664 707 671 q 771 649 754 657 q 798 634 788 640 q 814 629 808 628 q 819 638 818 631 q 821 653 821 644 q 818 675 819 663 l 826 678 l 861 504 l 849 499 q 808 579 832 543 q 759 635 789 610 q 689 660 729 660 q 615 637 638 660 q 593 574 593 614 q 617 495 593 531 q 678 427 642 460 q 757 361 714 394 q 836 290 800 328 q 897 207 872 253 q 921 104 921 161 q 901 3 921 49 q 847 -73 882 -42 q 763 -121 811 -104 q 657 -137 714 -137 q 558 -123 601 -137 q 483 -84 514 -108 q 433 -29 451 -60 q 408 35 415 1 l 204 385 l 158 324 l 158 49 q 175 14 158 24 q 229 4 192 4 l 229 1 l 14 1 l 14 4 z "},"":{"ha":1015,"x_min":14,"x_max":1001,"o":"m 14 4 q 68 14 51 4 q 85 49 85 24 l 85 611 q 68 645 85 636 q 14 654 51 654 l 14 658 l 213 658 q 303 652 253 658 q 399 626 354 646 q 474 571 443 607 q 504 475 504 535 q 483 392 504 425 q 427 339 461 360 q 352 308 393 318 q 271 296 311 299 q 289 222 272 258 q 334 156 306 186 q 401 104 363 125 q 486 76 440 83 q 499 135 488 107 q 533 185 511 164 q 589 219 556 207 q 665 232 622 232 q 763 198 729 232 q 799 124 797 164 q 765 49 800 83 q 654 15 729 15 l 654 24 q 717 55 696 24 q 738 123 738 86 q 719 191 738 160 q 664 222 700 222 q 603 197 628 222 q 566 133 578 171 q 558 49 554 94 q 583 -34 561 4 q 644 -98 604 -72 q 743 -124 683 -124 q 816 -111 782 -124 q 875 -74 850 -99 q 915 -13 900 -50 q 929 72 929 24 q 905 172 929 129 q 844 252 881 215 q 765 322 808 289 q 686 389 722 354 q 626 463 650 424 q 601 550 601 501 q 646 640 601 608 q 757 671 690 671 q 811 664 788 671 q 851 649 835 657 q 878 634 868 640 q 894 629 889 628 q 900 638 899 631 q 901 653 901 644 q 899 675 900 663 l 907 678 l 942 504 l 929 499 q 889 579 913 543 q 840 635 869 610 q 769 660 810 660 q 696 637 718 660 q 674 574 674 614 q 698 495 674 531 q 758 427 722 460 q 838 361 794 394 q 917 290 881 328 q 977 207 953 253 q 1001 104 1001 161 q 982 3 1001 49 q 927 -73 963 -42 q 844 -121 892 -104 q 738 -137 796 -137 q 580 -97 639 -137 q 499 1 521 -56 q 393 33 440 6 q 313 101 346 60 q 263 192 281 142 q 244 293 246 243 l 157 293 l 157 49 q 174 14 157 24 q 229 4 192 4 l 229 1 l 14 1 l 14 4 m 226 304 q 285 310 250 304 q 353 333 321 315 q 410 384 386 350 q 433 475 433 418 q 410 566 433 532 q 353 618 386 600 q 285 641 321 636 q 226 646 250 646 l 157 646 l 157 304 l 226 304 z "},"":{"ha":857,"x_min":14,"x_max":843,"o":"m 14 39 l 14 286 l 26 288 q 53 174 36 226 q 97 83 71 121 q 160 23 124 44 q 242 1 196 1 q 340 38 301 1 q 379 144 379 74 q 355 232 379 196 q 294 297 331 268 q 215 350 258 325 q 136 403 172 375 q 76 466 100 431 q 51 550 51 501 q 96 640 51 608 q 207 671 140 671 q 261 664 238 671 q 301 649 285 657 q 328 634 318 640 q 344 629 339 628 q 350 638 349 631 q 351 653 351 644 q 349 675 350 663 l 357 678 l 392 504 l 379 499 q 339 579 363 543 q 290 635 319 610 q 219 660 260 660 q 146 637 168 660 q 124 574 124 614 q 148 497 124 529 q 208 438 172 465 q 288 386 244 411 q 367 330 331 361 q 427 258 403 299 q 451 160 451 218 l 451 157 q 524 44 479 86 q 635 1 568 1 q 733 38 694 1 q 772 144 772 74 q 748 232 772 196 q 687 297 724 268 q 608 350 650 325 q 528 403 565 375 q 467 466 492 431 q 443 550 443 501 q 488 640 443 608 q 600 671 533 671 q 654 664 631 671 q 694 649 678 657 q 722 634 711 640 q 738 629 732 628 q 743 638 742 631 q 743 653 744 644 q 740 675 743 663 l 750 678 l 783 504 l 772 499 q 732 579 756 543 q 682 635 713 610 q 611 660 651 660 q 538 637 561 660 q 515 574 515 614 q 540 497 515 529 q 600 438 564 465 q 679 386 636 411 q 758 330 722 361 q 819 258 794 299 q 843 160 843 218 q 787 35 843 81 q 640 -11 731 -11 q 556 4 590 -11 q 498 38 522 19 q 459 70 474 56 q 433 83 444 85 q 362 14 410 39 q 249 -11 314 -11 q 163 5 199 -11 q 104 39 128 21 q 65 72 81 57 q 40 83 50 86 q 31 74 33 81 q 26 60 28 67 q 24 39 24 50 l 14 39 z "},"":{"ha":763,"x_min":-114,"x_max":763,"o":"m 108 443 q 164 425 136 438 q 219 397 192 413 l 382 868 l 661 57 q 700 17 672 28 q 763 6 728 6 l 763 1 l 504 1 l 504 6 q 565 17 549 6 q 569 57 581 28 l 501 253 l 485 257 q 395 281 442 265 q 299 314 349 296 l 219 343 l 121 57 q 126 17 110 28 q 186 6 142 6 l 186 1 l 1 1 l 1 6 q 66 17 40 6 q 103 57 92 28 l 203 347 q 110 374 158 363 q 13 386 61 386 q -106 350 -58 386 l -114 361 q -72 391 -97 375 q -16 421 -46 407 q 46 442 14 435 q 108 443 78 449 m 235 389 q 350 324 288 358 q 496 271 413 290 l 346 708 l 235 389 z "},"":{"ha":651,"x_min":-140,"x_max":638,"o":"m 97 397 l 97 799 q 78 839 97 828 q 14 850 58 850 l 14 853 l 290 853 q 485 806 417 853 q 554 676 554 758 q 506 564 554 608 q 368 506 458 519 q 469 463 421 493 q 556 388 518 432 q 615 290 593 344 q 638 174 638 235 q 600 1 638 71 q 506 -112 563 -69 q 381 -174 449 -156 q 253 -193 314 -193 q 51 -152 133 -193 q -76 -49 -31 -111 q -131 86 -121 13 q -118 225 -140 160 q -41 338 -96 290 q 97 397 14 386 m 239 -179 q 357 -156 300 -179 q 458 -89 414 -133 q 528 22 501 -44 q 554 174 554 88 q 531 309 554 249 q 473 412 508 369 q 395 477 438 454 q 315 500 353 500 l 181 500 l 181 419 q 151 412 171 418 q 113 399 131 406 q 126 399 119 399 q 139 400 132 400 q 269 372 208 400 q 361 276 331 343 q 380 188 383 228 q 364 121 376 149 q 324 63 350 88 l 317 67 q 334 109 328 82 q 339 168 340 136 q 328 235 338 200 q 300 299 319 269 q 251 351 281 329 q 181 382 222 374 l 181 56 q 200 17 181 28 q 264 6 219 6 l 264 1 l 14 1 l 14 6 q 78 17 58 6 q 97 57 97 28 l 97 381 q 0 321 39 368 q -55 212 -39 274 q -62 81 -71 150 q -19 -46 -54 13 q 81 -142 17 -104 q 239 -179 144 -179 m 181 514 l 304 514 q 425 556 379 514 q 471 676 471 597 q 425 797 471 756 q 304 839 379 839 l 181 839 l 181 514 z "},"":{"ha":685,"x_min":-122,"x_max":672,"o":"m 97 589 l 97 799 q 78 839 97 828 q 14 850 58 850 l 14 853 l 271 853 q 421 826 349 853 q 549 747 493 800 q 638 615 604 694 q 672 428 672 535 q 638 241 672 321 q 549 108 604 161 q 421 28 493 54 q 271 1 349 1 q 72 41 153 1 q -54 141 -8 81 q -111 273 -100 201 q -103 410 -122 344 q -33 524 -83 475 q 97 589 18 574 m 157 593 q 246 582 208 593 q 310 553 283 571 q 353 513 336 535 q 379 471 369 492 q 398 382 401 422 q 382 314 394 342 q 342 256 368 281 l 336 261 q 357 334 353 285 q 344 435 361 383 q 289 530 328 488 q 181 579 250 572 l 181 21 q 208 17 194 18 q 236 15 221 15 q 367 37 304 15 q 480 107 431 58 q 559 235 529 156 q 589 428 589 314 q 558 626 589 547 q 476 753 528 706 q 359 819 425 800 q 224 839 293 839 l 181 839 l 181 611 q 143 603 161 608 q 114 590 125 597 q 135 593 125 593 q 157 593 146 593 m 97 50 l 97 571 q 19 519 51 556 q -29 433 -12 482 q -47 329 -46 385 q -32 221 -47 274 q 16 123 -17 168 q 97 50 49 78 z "},"":{"ha":840,"x_min":15,"x_max":828,"o":"m 426 867 q 519 856 481 867 q 583 833 557 846 q 626 813 610 821 q 651 808 642 804 q 660 821 658 811 q 658 842 661 831 q 653 871 657 856 l 664 875 l 731 674 l 718 668 q 657 757 694 718 q 572 818 625 790 q 440 846 519 846 q 306 817 368 846 q 197 733 243 788 q 125 601 151 679 q 99 428 99 524 q 125 254 99 332 q 197 122 151 176 q 306 38 243 67 q 440 8 368 8 q 572 35 518 8 q 661 96 625 63 l 661 424 q 606 438 636 432 q 544 447 579 443 q 467 451 508 451 q 370 442 418 451 q 282 397 322 432 l 275 403 q 310 438 290 418 q 356 473 331 457 q 410 500 381 489 q 469 510 439 511 q 517 499 492 508 q 573 480 543 490 q 637 460 603 469 q 710 451 671 451 l 828 451 l 828 447 q 764 437 783 447 q 744 397 744 426 l 744 1 l 735 1 q 714 54 728 42 q 682 67 700 67 q 642 54 664 67 q 591 27 621 42 q 521 0 561 13 q 426 -12 481 -12 q 259 20 335 -12 q 129 112 183 53 q 45 251 75 171 q 15 428 15 332 q 45 604 15 524 q 129 743 75 685 q 259 834 183 801 q 426 867 335 867 z "},"":{"ha":713,"x_min":-126,"x_max":699,"o":"m 97 533 l 97 799 q 77 839 97 828 q 14 850 57 850 l 14 853 l 263 853 l 263 850 q 200 839 219 850 q 181 799 181 828 l 181 519 q 139 528 158 526 q 108 531 119 531 q 194 496 151 521 q 287 442 238 471 q 396 388 336 414 q 533 351 456 363 l 533 799 q 513 839 533 828 q 450 850 493 850 l 450 853 l 699 853 l 699 850 q 636 839 656 850 q 617 799 617 828 l 617 57 q 636 17 617 28 q 699 6 656 6 l 699 1 l 450 1 l 450 6 q 513 17 493 6 q 533 57 533 28 l 533 338 q 503 342 518 339 q 472 347 488 344 q 383 371 429 356 q 288 404 336 386 q 181 442 236 424 l 181 57 q 200 17 181 28 q 263 6 219 6 l 263 1 l 14 1 l 14 6 q 77 17 57 6 q 97 57 97 28 l 97 465 q 79 469 88 468 q 63 472 71 469 q 31 476 46 475 q 1 478 17 478 q -118 440 -72 478 l -126 451 q -84 482 -110 465 q -28 512 -58 499 q 34 532 1 525 q 97 533 67 539 z "},"":{"ha":633,"x_min":14,"x_max":619,"o":"m 236 346 l 236 336 q 145 354 186 336 q 75 403 104 372 q 30 476 46 435 q 14 567 14 518 q 37 674 14 622 q 100 763 60 725 q 217 830 149 807 q 371 853 286 853 l 619 853 l 619 850 q 557 839 576 850 q 538 799 538 828 l 538 57 q 557 17 538 28 q 619 6 576 6 l 619 1 l 371 1 l 371 6 q 435 17 415 6 q 454 57 454 28 l 454 799 q 435 833 454 828 q 371 839 415 839 q 210 802 271 839 q 121 711 150 765 q 91 592 92 657 q 108 474 90 528 q 160 383 126 419 q 236 346 194 346 z "},"":{"ha":729,"x_min":14,"x_max":715,"o":"m 14 775 q 47 815 26 793 q 92 858 67 838 q 147 894 118 879 q 208 913 176 910 q 292 906 249 915 q 385 882 336 896 q 490 856 433 868 q 611 844 546 844 q 662 846 636 844 q 715 853 688 847 l 715 842 q 693 838 704 839 q 669 835 682 836 q 644 820 654 832 q 633 793 633 808 l 633 282 q 566 58 633 135 q 375 -18 499 -18 q 251 10 301 -18 q 175 81 201 39 q 147 174 149 124 q 169 266 146 224 q 240 337 192 308 q 360 365 288 365 l 358 354 q 282 328 313 354 q 236 262 251 301 q 223 176 221 222 q 244 91 225 131 q 302 25 264 51 q 399 -1 340 -1 q 506 47 463 -1 q 550 204 550 94 l 550 788 q 528 829 550 817 q 478 833 503 832 q 425 838 453 835 q 305 847 365 843 q 192 844 244 850 q 25 767 72 832 l 14 775 z "},"":{"ha":1458,"x_min":14,"x_max":1444,"o":"m 729 1167 q 1013 1115 882 1167 q 1239 966 1143 1063 q 1390 733 1335 869 q 1444 428 1444 596 q 1390 123 1444 260 q 1239 -110 1335 -14 q 1013 -259 1143 -207 q 729 -311 882 -311 q 446 -259 576 -311 q 219 -110 315 -207 q 69 123 124 -14 q 14 428 14 260 q 69 733 14 596 q 219 966 124 869 q 446 1115 315 1063 q 729 1167 576 1167 m 729 -297 q 963 -251 850 -297 q 1165 -112 1076 -204 q 1308 115 1254 -21 q 1361 428 1361 250 q 1308 741 1361 606 q 1165 968 1254 876 q 963 1106 1076 1060 q 729 1153 850 1153 q 495 1106 608 1153 q 293 968 382 1060 q 151 741 204 876 q 97 428 97 606 q 151 115 97 250 q 293 -112 204 -21 q 495 -251 382 -204 q 729 -297 608 -297 z "},"":{"ha":879,"x_min":14,"x_max":1542,"o":"m 439 867 q 608 835 531 867 q 743 747 686 804 q 833 609 800 690 q 865 428 865 528 q 821 219 865 310 q 701 71 776 129 q 848 -22 768 28 q 1013 -114 928 -72 q 1185 -183 1099 -156 q 1350 -210 1271 -210 q 1442 -198 1407 -210 q 1499 -171 1478 -186 q 1535 -132 1522 -154 l 1542 -136 q 1490 -192 1525 -167 q 1410 -228 1461 -211 q 1275 -246 1358 -246 q 1112 -217 1196 -246 q 948 -145 1028 -189 q 794 -51 868 -101 q 658 43 719 -1 q 439 -12 563 -12 q 269 19 347 -12 q 135 107 192 50 q 46 246 78 164 q 14 428 14 328 q 46 609 14 528 q 135 747 78 690 q 269 835 192 804 q 439 867 347 867 m 439 1 q 632 63 550 1 q 598 87 614 75 q 568 108 582 99 q 510 138 544 125 q 442 150 476 150 q 392 141 415 150 q 349 108 368 132 l 342 111 q 394 158 360 139 q 472 176 428 176 q 540 165 504 176 q 615 129 576 154 q 640 112 628 121 q 668 93 653 103 q 751 231 721 147 q 782 428 782 315 q 756 611 782 532 q 683 744 729 690 q 574 826 636 799 q 439 853 511 853 q 304 826 367 853 q 196 744 242 799 q 124 611 150 690 q 97 428 97 532 q 124 244 97 324 q 196 110 150 164 q 304 28 242 56 q 439 1 367 1 z "},"":{"ha":306,"x_min":-194,"x_max":686,"o":"m -194 1050 l -186 1053 q -153 1021 -178 1035 q -90 998 -132 1008 q 22 988 -49 988 q 131 1003 75 988 q 243 1038 188 1019 q 350 1072 299 1057 q 444 1088 401 1088 q 553 1064 508 1088 q 628 1013 599 1040 q 686 938 663 979 l 682 932 q 667 947 682 932 q 624 981 653 963 q 549 1014 594 999 q 443 1029 504 1029 q 316 1019 379 1029 q 194 996 253 1010 l 194 57 q 214 17 194 28 q 276 6 233 6 l 276 1 l 28 1 l 28 6 q 91 17 71 6 q 111 57 111 28 l 111 976 q 16 956 60 965 q -60 947 -28 947 q -140 963 -112 947 q -179 999 -167 979 q -194 1050 -193 1021 z "},"":{"ha":618,"x_min":14,"x_max":604,"o":"m 236 428 l 236 418 q 136 423 178 413 q 67 456 94 433 q 27 512 40 479 q 14 582 14 544 q 39 695 14 644 q 110 781 64 746 q 223 834 157 815 q 371 853 289 853 l 604 853 l 604 839 l 221 15 l 368 15 q 463 30 426 15 q 522 68 500 44 q 558 122 544 92 q 581 185 571 153 l 590 181 l 549 1 l 119 1 l 510 839 l 371 839 q 206 808 268 839 q 114 732 143 778 q 83 633 85 686 q 101 535 82 581 q 157 458 121 489 q 236 428 193 428 z "},"":{"ha":651,"x_min":14,"x_max":1229,"o":"m 14 850 l 14 853 l 68 853 q 259 876 167 853 q 438 933 351 899 q 602 1007 524 967 q 751 1081 681 1047 q 885 1138 822 1115 q 1000 1161 947 1161 q 1119 1130 1074 1161 q 1188 1061 1164 1099 q 1229 961 1217 1017 l 1221 958 q 1179 1018 1208 992 q 1108 1058 1154 1040 q 985 1076 1063 1076 q 825 1049 915 1076 q 634 984 735 1021 q 427 910 533 947 q 218 853 321 872 l 289 853 q 485 806 415 853 q 554 676 554 758 q 509 566 554 610 q 381 507 464 522 q 478 482 432 500 q 559 433 524 464 q 615 359 594 403 q 636 257 636 315 q 607 138 636 186 q 530 59 578 89 q 422 15 482 29 q 299 1 361 1 l 14 1 l 14 6 q 76 16 57 6 q 96 56 96 26 l 96 799 q 76 839 96 828 q 14 850 57 850 m 179 500 l 179 78 q 199 32 179 49 q 263 15 219 15 l 314 15 q 394 25 351 15 q 472 61 436 35 q 530 135 507 88 q 553 257 553 182 q 530 380 553 332 q 472 454 507 428 q 394 490 436 481 q 314 500 351 500 l 179 500 m 179 514 l 303 514 q 425 556 379 514 q 471 676 471 597 q 425 797 471 756 q 303 839 379 839 l 179 839 l 179 514 z "},"":{"ha":685,"x_min":14,"x_max":1240,"o":"m 96 56 l 96 799 q 76 839 96 828 q 14 850 57 850 l 14 853 l 79 853 q 270 876 178 853 q 449 933 363 899 q 613 1007 535 967 q 763 1081 692 1047 q 896 1138 833 1115 q 1011 1161 958 1161 q 1130 1130 1085 1161 q 1200 1061 1175 1099 q 1240 961 1228 1017 l 1232 958 q 1190 1018 1219 992 q 1119 1058 1165 1040 q 996 1076 1074 1076 q 836 1049 926 1076 q 646 984 746 1021 q 440 910 546 947 q 231 853 333 872 l 269 853 q 419 826 347 853 q 547 747 492 800 q 637 615 603 694 q 671 428 671 535 q 637 241 671 321 q 547 108 603 161 q 419 28 492 54 q 269 1 347 1 l 14 1 l 14 6 q 76 16 57 6 q 96 56 96 26 m 179 78 q 249 15 179 21 q 376 40 315 18 q 484 110 438 63 q 559 236 531 158 q 588 428 588 314 q 557 626 588 547 q 476 753 526 706 q 359 819 425 800 q 224 839 293 839 l 179 839 l 179 78 z "},"":{"ha":582,"x_min":14,"x_max":1258,"o":"m 14 850 l 14 853 l 97 853 q 288 874 196 853 q 466 926 381 894 q 631 993 551 957 q 780 1060 710 1029 q 913 1113 850 1092 q 1029 1133 975 1133 q 1148 1102 1103 1133 q 1217 1033 1193 1071 q 1258 933 1246 989 l 1249 931 q 1207 990 1236 964 q 1136 1031 1182 1013 q 1013 1049 1090 1049 q 901 1035 963 1049 q 772 1001 840 1022 q 629 956 703 981 q 480 909 556 932 q 328 868 404 886 q 181 843 253 850 l 181 553 l 340 553 q 380 579 369 553 q 390 676 390 606 l 401 676 l 401 414 l 390 414 q 380 512 390 485 q 340 539 369 539 l 181 539 l 181 15 l 344 15 q 440 30 403 15 q 499 68 476 44 q 534 122 521 92 q 557 185 547 153 l 567 181 l 525 1 l 14 1 l 14 6 q 78 16 58 6 q 97 56 97 26 l 97 799 q 78 839 97 828 q 14 850 58 850 z "},"":{"ha":699,"x_min":14,"x_max":1235,"o":"m 14 850 l 14 853 l 74 853 q 265 876 172 853 q 443 933 357 899 q 608 1007 529 967 q 757 1081 686 1047 q 890 1138 828 1115 q 1006 1161 953 1161 q 1124 1130 1079 1161 q 1193 1061 1169 1099 q 1235 961 1222 1017 l 1226 958 q 1185 1018 1214 992 q 1114 1058 1160 1040 q 990 1076 1068 1076 q 831 1049 921 1076 q 640 984 740 1021 q 433 910 539 947 q 224 853 326 872 l 264 853 q 384 842 326 853 q 485 804 442 831 q 556 734 529 778 q 582 625 582 690 q 565 535 582 574 q 519 471 549 497 q 450 428 490 444 q 364 406 410 413 l 583 56 q 628 16 601 26 q 697 6 654 6 l 697 1 l 432 1 l 432 6 q 487 16 472 6 q 483 56 501 26 l 269 397 l 181 397 l 181 56 q 200 16 181 26 q 263 6 219 6 l 263 1 l 14 1 l 14 6 q 77 16 57 6 q 97 56 97 26 l 97 799 q 77 839 97 828 q 14 850 57 850 m 181 839 l 181 411 l 260 411 q 340 416 297 411 q 417 442 382 421 q 476 507 453 464 q 499 625 499 550 q 476 743 499 700 q 417 808 453 786 q 340 834 382 829 q 260 839 297 839 l 181 839 z "},"":{"ha":469,"x_min":0,"x_max":1322,"o":"m 42 853 l 161 853 q 352 876 260 853 q 531 933 444 899 q 695 1007 617 967 q 844 1081 774 1047 q 978 1138 915 1115 q 1093 1161 1040 1161 q 1212 1130 1167 1161 q 1281 1061 1257 1099 q 1322 961 1310 1017 l 1314 958 q 1272 1018 1301 992 q 1201 1058 1247 1040 q 1078 1076 1156 1076 q 927 1051 1011 1076 q 749 992 843 1026 q 556 922 656 958 q 358 863 457 886 l 358 56 q 378 16 358 26 q 442 6 399 6 l 442 1 l 193 1 l 193 6 q 256 16 236 6 q 275 56 275 26 l 275 839 l 221 839 q 126 824 163 839 q 67 786 89 810 q 32 732 44 763 q 10 669 19 701 l 0 674 l 42 853 z "},"":{"ha":763,"x_min":0,"x_max":1757,"o":"m 0 853 l 258 853 l 258 850 q 199 839 215 850 q 193 799 183 828 l 418 147 l 661 853 q 656 893 672 882 q 596 904 640 904 l 596 908 q 787 931 694 908 q 965 988 879 954 q 1130 1063 1051 1022 q 1279 1137 1208 1103 q 1413 1194 1350 1171 q 1528 1217 1475 1217 q 1647 1185 1601 1217 q 1715 1117 1692 1154 q 1757 1015 1744 1072 l 1749 1013 q 1707 1072 1736 1046 q 1636 1113 1682 1094 q 1513 1131 1590 1131 q 1360 1105 1446 1131 q 1179 1044 1275 1079 q 982 974 1083 1010 q 781 915 881 938 q 713 893 735 904 q 679 853 690 882 l 381 -12 l 101 799 q 64 839 92 828 q 0 850 36 850 l 0 853 z "},"":{"ha":1081,"x_min":0,"x_max":2075,"o":"m 0 853 l 258 853 l 258 850 q 199 839 215 850 q 193 799 183 828 l 418 147 l 531 476 l 421 799 q 396 839 410 828 q 346 850 382 850 l 346 853 l 733 853 l 733 850 q 683 839 696 850 q 660 799 671 828 l 586 583 l 736 147 l 979 853 q 974 893 990 882 q 914 904 958 904 l 914 908 q 1105 931 1013 908 q 1283 988 1197 954 q 1448 1063 1369 1022 q 1597 1137 1526 1103 q 1731 1194 1668 1171 q 1846 1217 1793 1217 q 1965 1185 1919 1217 q 2035 1117 2010 1154 q 2075 1015 2063 1072 l 2067 1013 q 2025 1072 2054 1046 q 1954 1113 2000 1094 q 1831 1131 1908 1131 q 1678 1105 1764 1131 q 1497 1044 1593 1079 q 1300 974 1401 1010 q 1100 915 1199 938 q 1031 893 1053 904 q 997 853 1008 882 l 700 -12 l 540 450 l 381 -12 l 101 799 q 63 839 92 828 q 0 850 35 850 l 0 853 m 513 799 l 576 610 l 642 799 q 641 839 653 828 q 576 850 629 850 q 513 839 524 850 q 513 799 501 828 z "},"":{"ha":794,"x_min":14,"x_max":1763,"o":"m 14 853 l 263 853 l 263 850 q 200 839 219 850 q 181 799 181 828 l 181 307 q 251 87 181 158 q 433 15 321 15 q 534 35 488 15 q 614 94 581 56 q 666 186 647 132 q 685 307 685 240 l 685 853 q 665 893 685 882 q 601 904 644 904 l 601 908 q 792 931 700 908 q 971 988 885 954 q 1135 1063 1057 1022 q 1285 1137 1214 1103 q 1418 1194 1356 1171 q 1533 1217 1481 1217 q 1652 1185 1607 1217 q 1721 1117 1697 1154 q 1763 1015 1750 1072 l 1754 1013 q 1713 1072 1742 1046 q 1641 1113 1688 1094 q 1518 1131 1594 1131 q 1364 1105 1450 1131 q 1181 1044 1278 1079 q 983 972 1085 1008 q 781 914 881 935 l 778 914 q 774 913 776 913 q 717 892 735 904 q 699 853 699 881 l 699 307 q 679 177 699 236 q 621 76 660 118 q 526 11 582 35 q 397 -12 471 -12 q 269 11 325 -12 q 174 76 213 35 q 117 177 136 118 q 97 307 97 236 l 97 799 q 78 839 97 828 q 14 850 58 850 l 14 853 z "},"":{"ha":763,"x_min":0,"x_max":1547,"o":"m 0 1 l 0 6 q 65 17 39 6 q 101 57 90 28 l 381 868 l 671 22 q 731 -41 679 0 q 869 -122 782 -82 q 1078 -190 957 -161 q 1346 -219 1199 -219 q 1453 -204 1415 -219 q 1511 -169 1492 -189 q 1539 -119 1533 -147 l 1547 -122 q 1518 -214 1540 -174 q 1463 -277 1499 -249 q 1361 -306 1426 -306 q 1216 -286 1289 -306 q 1072 -236 1143 -267 q 932 -171 1000 -206 q 801 -106 864 -136 q 681 -54 738 -75 q 575 -31 624 -33 l 514 -29 l 514 -25 q 573 -14 557 -25 q 579 26 589 -3 l 476 322 l 211 322 l 119 57 q 124 17 108 28 q 185 6 140 6 l 185 1 l 0 1 m 472 336 l 344 708 l 215 336 l 472 336 z "},"":{"ha":651,"x_min":14,"x_max":1229,"o":"m 14 6 q 76 17 57 6 q 96 57 96 28 l 96 799 q 76 839 96 828 q 14 850 57 850 l 14 853 l 289 853 q 484 806 415 853 q 553 676 553 758 q 508 567 553 610 q 381 507 464 524 q 478 482 432 500 q 559 433 524 464 q 615 359 594 403 q 636 257 636 315 q 607 138 636 186 q 530 59 578 89 q 421 15 482 29 q 297 1 360 1 l 218 1 q 427 -55 321 -18 q 634 -128 533 -92 q 824 -193 735 -165 q 985 -221 914 -221 q 1108 -203 1061 -221 q 1179 -162 1154 -185 q 1221 -104 1208 -137 l 1229 -106 q 1188 -207 1217 -162 q 1119 -276 1164 -244 q 1000 -307 1074 -307 q 885 -284 947 -307 q 751 -227 822 -261 q 602 -153 681 -193 q 438 -78 524 -112 q 259 -22 351 -44 q 68 1 167 1 l 14 1 l 14 6 m 263 15 l 314 15 q 394 25 351 15 q 472 61 436 35 q 530 135 507 88 q 553 257 553 182 q 530 380 553 332 q 472 454 507 428 q 394 490 436 481 q 314 500 351 500 l 179 500 l 179 78 q 199 32 179 49 q 263 15 218 15 m 179 514 l 303 514 q 424 556 378 514 q 469 676 469 597 q 424 797 469 756 q 303 839 378 839 l 179 839 l 179 514 z "},"":{"ha":685,"x_min":14,"x_max":1240,"o":"m 14 1 l 14 6 q 76 17 57 6 q 96 57 96 28 l 96 799 q 76 839 96 828 q 14 850 57 850 l 14 853 l 269 853 q 419 826 347 853 q 547 747 492 800 q 637 615 603 694 q 671 428 671 535 q 637 241 671 321 q 547 108 603 161 q 419 28 492 54 q 269 1 347 1 l 229 1 q 439 -55 332 -18 q 646 -128 546 -92 q 836 -193 746 -165 q 996 -221 926 -221 q 1119 -203 1074 -221 q 1190 -162 1165 -185 q 1232 -104 1219 -137 l 1240 -106 q 1199 -207 1228 -162 q 1130 -276 1175 -244 q 1011 -307 1085 -307 q 896 -284 958 -307 q 763 -227 833 -261 q 613 -153 692 -193 q 449 -78 535 -112 q 270 -22 363 -44 q 79 1 178 1 l 14 1 m 179 78 q 247 15 179 21 q 376 40 314 18 q 484 110 438 63 q 559 236 531 158 q 588 428 588 314 q 557 626 588 547 q 476 753 526 706 q 359 819 425 800 q 224 839 293 839 l 179 839 l 179 78 z "},"":{"ha":582,"x_min":14,"x_max":1271,"o":"m 14 6 q 76 17 57 6 q 96 57 96 28 l 96 799 q 76 839 96 828 q 14 850 57 850 l 14 853 l 497 853 l 539 674 l 529 669 q 506 732 519 701 q 471 786 493 763 q 412 824 449 810 q 317 839 375 839 l 179 839 l 179 497 l 339 497 q 379 517 368 497 q 390 579 390 536 l 401 579 l 401 300 l 390 300 q 379 443 390 403 q 339 483 368 483 l 179 483 l 179 13 q 406 -29 289 4 q 635 -99 524 -62 q 849 -164 747 -135 q 1026 -193 950 -193 q 1149 -175 1103 -193 q 1219 -135 1194 -157 q 1261 -76 1249 -110 l 1271 -78 q 1229 -179 1258 -135 q 1160 -248 1206 -217 q 1042 -279 1115 -279 q 926 -258 989 -279 q 793 -206 864 -237 q 644 -139 722 -175 q 479 -72 565 -103 q 301 -19 393 -40 q 110 1 208 1 l 14 1 l 14 6 z "},"":{"ha":840,"x_min":14,"x_max":1849,"o":"m 14 428 q 44 604 14 524 q 129 743 75 685 q 259 834 183 801 q 425 867 335 867 q 517 856 479 867 q 582 833 556 846 q 625 813 608 821 q 651 808 642 804 q 659 821 658 811 q 658 842 660 831 q 651 871 656 856 l 663 875 l 729 674 l 717 668 q 656 757 693 718 q 571 818 624 790 q 439 846 518 846 q 304 817 367 846 q 196 733 242 788 q 124 601 150 679 q 97 428 97 524 q 124 254 97 332 q 196 122 150 176 q 304 38 242 67 q 439 8 367 8 q 571 35 517 8 q 660 96 625 63 l 660 386 q 656 411 660 400 q 637 431 651 422 q 593 443 622 439 q 515 447 564 447 l 515 451 l 826 451 l 826 447 q 763 437 783 447 q 743 397 743 426 l 743 1 q 752 -114 743 -62 q 782 -202 761 -165 q 838 -259 803 -239 q 924 -279 872 -279 q 1109 -256 1015 -279 q 1292 -205 1203 -233 q 1463 -153 1381 -176 q 1611 -131 1544 -131 q 1661 -135 1639 -131 q 1772 -187 1735 -149 q 1828 -268 1810 -226 q 1849 -374 1847 -317 l 1840 -375 q 1810 -310 1835 -340 q 1748 -256 1790 -282 q 1629 -215 1706 -231 q 1591 -210 1610 -212 q 1551 -208 1572 -208 q 1409 -222 1485 -208 q 1252 -251 1333 -235 q 1088 -280 1171 -267 q 924 -293 1006 -293 q 792 -271 843 -293 q 713 -204 742 -249 q 672 -93 683 -160 q 661 63 661 -26 q 623 44 644 57 q 573 19 601 32 q 508 -3 544 7 q 425 -12 472 -12 q 259 20 335 -12 q 129 112 183 53 q 44 251 75 171 q 14 428 14 332 z "},"":{"ha":713,"x_min":14,"x_max":1722,"o":"m 97 57 l 97 799 q 78 839 97 828 q 14 850 58 850 l 14 853 l 263 853 l 263 850 q 200 839 219 850 q 181 799 181 828 l 181 497 l 533 497 l 533 799 q 514 839 533 828 q 450 850 494 850 l 450 853 l 699 853 l 699 850 q 636 839 656 850 q 617 799 617 828 l 617 1 q 625 -114 617 -62 q 654 -202 633 -165 q 710 -259 675 -239 q 796 -279 744 -279 q 981 -256 888 -279 q 1165 -205 1075 -233 q 1335 -153 1254 -176 q 1483 -131 1417 -131 q 1533 -135 1511 -131 q 1645 -187 1607 -149 q 1700 -268 1683 -226 q 1722 -374 1721 -317 l 1713 -375 q 1683 -310 1707 -340 q 1620 -256 1663 -282 q 1503 -215 1578 -231 q 1464 -210 1483 -212 q 1424 -208 1444 -208 q 1281 -222 1357 -208 q 1124 -251 1206 -235 q 960 -280 1043 -267 q 796 -293 878 -293 q 661 -269 713 -293 q 581 -198 610 -246 q 543 -79 553 -150 q 533 86 533 -8 l 533 483 l 181 483 l 181 57 q 200 17 181 28 q 263 6 219 6 l 263 1 l 14 1 l 14 6 q 78 17 58 6 q 97 57 97 28 z "},"":{"ha":681,"x_min":14,"x_max":946,"o":"m 263 853 l 263 850 q 200 839 219 850 q 181 799 181 828 l 181 494 l 457 799 q 474 839 483 828 q 421 850 464 850 l 421 853 l 608 853 l 608 850 q 537 839 569 850 q 478 799 504 828 l 288 589 q 374 521 335 578 q 452 384 414 464 q 528 215 490 304 q 608 49 565 125 q 701 -78 651 -28 q 811 -128 750 -128 q 874 -117 850 -128 q 913 -93 897 -106 q 938 -57 929 -76 l 946 -61 q 906 -124 931 -96 q 848 -167 883 -147 q 760 -186 813 -186 q 626 -140 683 -186 q 524 -21 568 -93 q 445 138 481 51 q 377 304 410 225 q 310 445 344 383 q 232 529 275 507 l 181 471 l 181 57 q 200 17 181 28 q 263 6 219 6 l 263 1 l 14 1 l 14 6 q 77 17 57 6 q 97 57 97 28 l 97 799 q 77 839 97 828 q 14 850 57 850 l 14 853 l 263 853 z "},"":{"ha":817,"x_min":14,"x_max":1825,"o":"m 14 853 l 169 853 l 414 301 l 660 853 l 803 853 l 803 850 q 740 839 760 850 q 721 799 721 828 l 721 1 q 729 -114 721 -62 q 758 -202 738 -165 q 814 -259 779 -239 q 900 -279 849 -279 q 1085 -256 992 -279 q 1269 -205 1179 -233 q 1440 -153 1358 -176 q 1588 -131 1521 -131 q 1638 -135 1615 -131 q 1749 -187 1711 -149 q 1804 -268 1786 -226 q 1825 -374 1824 -317 l 1817 -375 q 1788 -310 1811 -340 q 1724 -256 1767 -282 q 1607 -215 1682 -231 q 1568 -210 1588 -212 q 1528 -208 1549 -208 q 1385 -222 1461 -208 q 1228 -251 1310 -235 q 1065 -280 1147 -267 q 900 -293 982 -293 q 765 -269 817 -293 q 685 -198 714 -246 q 647 -79 657 -150 q 638 86 638 -8 l 638 767 l 372 169 l 111 767 l 111 57 q 131 17 111 28 q 193 6 150 6 l 193 1 l 14 1 l 14 6 q 78 17 58 6 q 97 57 97 28 l 97 799 q 78 839 97 828 q 14 850 58 850 l 14 853 z "},"":{"ha":292,"x_min":14,"x_max":1258,"o":"m 14 -81 l 14 -76 q 78 -65 58 -76 q 97 -25 97 -54 l 97 799 q 78 839 97 828 q 14 850 58 850 l 14 853 l 263 853 l 263 850 q 200 839 219 850 q 181 799 181 828 l 181 -69 q 388 -106 285 -78 q 592 -162 492 -133 q 787 -215 692 -192 q 971 -239 882 -239 q 1119 -221 1064 -239 q 1201 -181 1174 -203 q 1249 -121 1236 -154 l 1258 -124 q 1214 -225 1246 -181 q 1132 -294 1186 -262 q 986 -325 1078 -325 q 843 -307 913 -325 q 703 -262 774 -289 q 561 -203 633 -235 q 410 -144 489 -171 q 246 -99 332 -117 q 61 -81 160 -81 l 14 -81 z "},"":{"ha":708,"x_min":14,"x_max":1047,"o":"m 96 57 l 96 799 q 76 839 96 828 q 14 850 57 850 l 14 853 l 186 853 l 597 15 l 597 799 q 578 839 597 828 q 514 850 558 850 l 514 853 l 693 853 l 693 850 q 631 839 650 850 q 611 799 611 828 l 611 -12 q 723 -178 664 -119 q 865 -236 782 -236 q 949 -219 915 -236 q 1004 -183 983 -203 q 1043 -129 1028 -160 l 1047 -131 q 1001 -206 1032 -172 q 933 -256 976 -233 q 821 -279 889 -279 q 705 -256 754 -279 q 619 -194 656 -232 q 556 -109 583 -157 q 506 -12 529 -61 l 110 792 l 110 57 q 130 17 110 28 q 193 6 150 6 l 193 1 l 14 1 l 14 6 q 76 17 57 6 q 96 57 96 28 z "},"":{"ha":596,"x_min":-1010,"x_max":581,"o":"m -821 -135 q -771 -131 -799 -131 q -623 -153 -704 -131 q -452 -205 -542 -176 q -269 -256 -362 -233 q -83 -279 -175 -279 q 3 -259 -32 -279 q 58 -202 38 -239 q 88 -114 79 -165 q 96 1 96 -62 l 96 799 q 76 839 96 828 q 14 850 57 850 l 14 853 l 243 853 q 366 839 306 853 q 474 795 426 825 q 551 717 522 765 q 581 597 581 668 q 551 478 581 526 q 474 399 522 429 q 366 356 426 369 q 243 342 306 342 l 179 342 l 179 86 q 169 -79 179 -8 q 131 -198 160 -150 q 51 -269 103 -246 q -83 -293 0 -293 q -249 -280 -165 -293 q -412 -251 -332 -267 q -569 -222 -493 -235 q -712 -208 -646 -208 q -752 -210 -733 -208 q -790 -215 -771 -212 q -908 -256 -865 -231 q -971 -310 -950 -282 q -1000 -375 -994 -340 l -1010 -374 q -987 -268 -1008 -317 q -933 -187 -971 -226 q -821 -135 -894 -149 m 179 839 l 179 356 l 258 356 q 338 365 296 356 q 416 401 381 375 q 474 475 451 428 q 497 597 497 522 q 474 719 497 672 q 416 793 451 767 q 338 829 381 819 q 258 839 296 839 l 179 839 z "},"":{"ha":699,"x_min":14,"x_max":944,"o":"m 14 6 q 76 17 57 6 q 96 57 96 28 l 96 799 q 76 839 96 828 q 14 850 57 850 l 14 853 l 264 853 q 384 842 326 853 q 485 804 442 831 q 555 734 529 778 q 581 625 581 690 q 563 533 581 572 q 513 467 544 494 q 440 425 482 440 q 349 403 397 410 q 418 344 385 389 q 485 241 451 300 q 554 117 519 182 q 628 -3 589 51 q 712 -92 667 -57 q 810 -128 757 -128 q 873 -117 849 -128 q 911 -93 897 -106 q 936 -57 928 -76 l 944 -61 q 904 -124 929 -96 q 847 -167 882 -147 q 760 -186 813 -186 q 642 -148 693 -186 q 549 -50 590 -110 q 473 81 507 10 q 405 216 439 151 q 334 331 371 281 q 251 397 297 381 l 179 397 l 179 56 q 199 17 179 28 q 263 6 218 6 l 263 1 l 14 1 l 14 6 m 179 411 l 258 411 q 338 417 296 411 q 416 443 381 422 q 474 507 451 464 q 497 625 497 550 q 474 743 497 700 q 416 808 451 786 q 338 834 381 829 q 258 839 296 839 l 179 839 l 179 411 z "},"":{"ha":513,"x_min":14,"x_max":1175,"o":"m 404 839 l 278 839 q 183 824 219 839 q 124 786 146 810 q 89 732 101 763 q 67 669 76 701 l 56 674 l 99 853 l 499 853 l 499 839 l 113 11 q 345 -39 231 -1 q 565 -117 460 -76 q 762 -190 669 -158 q 929 -221 854 -221 q 1053 -203 1007 -221 q 1124 -162 1099 -185 q 1165 -104 1153 -137 l 1175 -106 q 1133 -207 1163 -162 q 1065 -276 1110 -244 q 946 -307 1019 -307 q 831 -284 893 -307 q 697 -227 768 -261 q 548 -153 626 -193 q 383 -78 469 -112 q 205 -22 297 -44 q 14 1 113 1 l 404 839 z "},"":{"ha":675,"x_min":-326,"x_max":1057,"o":"m -315 -146 q -276 -211 -304 -182 q -210 -255 -253 -235 q -96 -275 -167 -275 q 76 -262 -8 -275 q 241 -231 160 -250 q 399 -189 322 -211 q 547 -146 475 -167 q 535 -91 540 -125 q 525 -25 529 -57 q 518 54 521 13 q 464 22 493 36 q 403 -1 438 10 q 328 -11 368 -11 q 206 13 263 -11 q 106 83 149 38 q 38 191 63 128 q 14 331 14 254 q 37 471 14 408 q 100 578 60 533 q 195 648 140 624 q 314 672 250 672 q 394 663 361 672 q 451 641 428 653 q 488 621 474 629 q 508 615 501 613 q 515 625 514 618 q 515 640 517 632 q 511 661 514 650 l 519 665 l 578 492 l 567 486 q 508 571 543 533 q 435 628 479 603 q 329 654 390 654 q 153 570 219 654 q 86 331 86 486 q 108 187 86 247 q 165 87 129 126 q 246 28 200 47 q 340 8 292 8 q 445 31 401 8 q 518 81 489 53 l 518 318 q 514 341 518 331 q 497 358 510 351 q 460 369 485 365 q 393 372 435 372 l 393 376 l 661 376 l 661 372 q 607 363 624 372 q 590 328 590 354 l 590 -3 q 594 -70 590 -39 q 604 -129 597 -101 q 731 -101 671 -112 q 846 -90 790 -90 q 967 -108 919 -90 q 1035 -153 1014 -126 q 1053 -212 1057 -181 q 1023 -270 1050 -243 q 944 -315 996 -297 q 819 -333 893 -333 q 556 -167 625 -333 q 389 -228 474 -194 q 221 -292 304 -262 q 60 -341 138 -321 q -85 -361 -18 -361 q -208 -328 -161 -361 q -282 -256 -256 -296 q -326 -149 -312 -208 l -315 -146 m 821 -321 q 935 -287 897 -321 q 975 -214 974 -254 q 940 -140 976 -174 q 829 -107 903 -107 q 725 -118 781 -107 q 610 -149 669 -129 q 692 -277 638 -233 q 821 -321 747 -321 z "},"":{"ha":578,"x_min":14,"x_max":1011,"o":"m 14 658 l 229 658 l 229 654 q 174 645 192 654 q 157 611 157 636 l 157 376 l 421 376 l 421 611 q 403 645 421 636 q 349 654 386 654 l 349 658 l 564 658 l 564 654 q 510 645 528 654 q 493 611 493 636 l 493 18 q 512 -103 493 -53 q 562 -187 531 -154 q 634 -234 593 -219 q 719 -249 675 -249 q 852 -224 799 -249 q 938 -171 906 -200 q 1000 -93 976 -136 l 1008 -94 q 992 -194 1011 -150 q 968 -231 983 -214 q 930 -263 953 -249 q 874 -286 907 -278 q 796 -294 840 -294 q 637 -260 707 -294 q 519 -172 567 -225 q 446 -58 471 -119 q 421 57 421 4 l 421 364 l 157 364 l 157 49 q 174 14 157 24 q 229 4 192 4 l 229 1 l 14 1 l 14 4 q 68 14 51 4 q 85 49 85 24 l 85 611 q 68 645 85 636 q 14 654 51 654 l 14 658 z "},"":{"ha":668,"x_min":14,"x_max":1101,"o":"m 14 658 l 147 658 l 339 228 l 531 658 l 654 658 l 654 654 q 601 645 618 654 q 583 611 583 636 l 583 -1 q 602 -120 583 -72 q 652 -197 621 -168 q 724 -237 683 -225 q 810 -249 765 -249 q 942 -224 889 -249 q 1028 -171 996 -200 q 1090 -93 1067 -136 l 1099 -94 q 1082 -194 1101 -150 q 1058 -231 1074 -214 q 1020 -263 1043 -249 q 964 -286 997 -278 q 886 -294 931 -294 q 727 -262 797 -294 q 609 -182 657 -231 q 536 -74 561 -133 q 511 38 511 -15 l 511 583 l 303 114 l 97 583 l 97 49 q 115 14 97 24 q 169 4 132 4 l 169 1 l 14 1 l 14 4 q 68 14 51 4 q 85 49 85 24 l 85 611 q 68 645 85 636 q 14 654 51 654 l 14 658 z "},"":{"ha":281,"x_min":-396,"x_max":267,"o":"m -392 -94 l -385 -93 q -322 -171 -361 -136 q -237 -224 -290 -200 q -104 -249 -183 -249 q -19 -237 -60 -249 q 53 -197 22 -225 q 103 -120 85 -168 q 122 -1 122 -72 l 122 601 q 99 640 122 626 q 10 654 76 654 l 10 658 l 267 658 l 267 654 q 212 645 229 654 q 194 611 194 636 l 194 38 q 169 -74 194 -15 q 97 -182 144 -133 q -21 -262 49 -231 q -179 -294 -90 -294 q -257 -286 -224 -294 q -313 -263 -290 -278 q -351 -231 -336 -249 q -375 -194 -367 -214 q -392 -94 -396 -150 z "},"":{"ha":549,"x_min":-468,"x_max":1101,"o":"m -456 -178 q -411 -253 -443 -219 q -334 -303 -383 -281 q -201 -326 -285 -326 q -16 -313 -107 -326 q 163 -281 75 -300 q 334 -237 250 -261 q 497 -189 418 -212 q 389 8 444 -106 l 204 383 l 157 324 l 157 49 q 174 14 157 24 q 229 4 192 4 l 229 1 l 14 1 l 14 4 q 68 14 51 4 q 85 49 85 24 l 85 611 q 68 645 85 636 q 14 654 51 654 l 14 658 l 229 658 l 229 654 q 174 645 192 654 q 157 611 157 636 l 157 343 l 364 611 q 374 645 383 636 q 326 654 364 654 l 326 658 l 486 658 l 486 654 q 426 645 453 654 q 379 611 399 636 l 257 451 l 478 3 q 574 -168 522 -89 q 736 -129 658 -144 q 885 -114 814 -114 q 1008 -135 960 -114 q 1078 -187 1056 -156 q 1099 -254 1101 -218 q 1068 -322 1096 -290 q 987 -374 1040 -353 q 856 -394 933 -394 q 749 -384 797 -394 q 660 -351 701 -374 q 583 -295 619 -329 q 514 -214 547 -261 q 330 -283 424 -246 q 146 -353 236 -321 q -30 -406 56 -385 q -189 -426 -115 -426 q -268 -416 -233 -426 q -331 -388 -303 -406 q -380 -349 -358 -371 q -417 -304 -401 -328 q -468 -182 -451 -250 l -456 -178 m 856 -381 q 941 -362 907 -381 q 992 -317 975 -344 q 1008 -257 1008 -289 q 991 -197 1007 -225 q 944 -151 975 -169 q 867 -133 913 -133 q 733 -149 804 -133 q 588 -189 663 -164 q 713 -327 646 -274 q 856 -381 779 -381 z "},"":{"ha":251,"x_min":14,"x_max":610,"o":"m 14 658 l 229 658 l 229 654 q 174 645 192 654 q 157 611 157 636 l 157 -19 q 235 -62 194 -37 q 317 -109 275 -86 q 402 -149 358 -132 q 490 -168 446 -165 q 543 -162 522 -171 q 578 -143 564 -154 q 604 -114 594 -131 l 610 -117 q 579 -175 599 -149 q 536 -214 563 -196 q 471 -232 510 -232 q 400 -215 435 -232 q 331 -172 365 -197 q 262 -115 297 -146 q 188 -59 226 -85 q 107 -16 150 -33 q 14 1 64 1 l 14 4 q 68 14 51 4 q 85 49 85 24 l 85 611 q 68 645 85 636 q 14 654 51 654 l 14 658 z "}}}
